G04 #@! TF.GenerationSoftware,KiCad,Pcbnew,(5.0.1)-3*
G04 #@! TF.CreationDate,2021-03-04T13:58:57-05:00*
G04 #@! TF.ProjectId,pilotage,70696C6F746167652E6B696361645F70,rev?*
G04 #@! TF.SameCoordinates,Original*
G04 #@! TF.FileFunction,Soldermask,Top*
G04 #@! TF.FilePolarity,Negative*
%FSLAX46Y46*%
G04 Gerber Fmt 4.6, Leading zero omitted, Abs format (unit mm)*
G04 Created by KiCad (PCBNEW (5.0.1)-3) date 04/03/2021 13:58:57*
%MOMM*%
%LPD*%
G01*
G04 APERTURE LIST*
%ADD10C,0.100000*%
G04 APERTURE END LIST*
D10*
G36*
X129634124Y-97967083D02*
X129671811Y-97978516D01*
X129706550Y-97997084D01*
X129736995Y-98022070D01*
X129761981Y-98052515D01*
X129780549Y-98087254D01*
X129791982Y-98124941D01*
X129796447Y-98170279D01*
X129796447Y-99006957D01*
X129791982Y-99052295D01*
X129780549Y-99089982D01*
X129761981Y-99124721D01*
X129736995Y-99155166D01*
X129706550Y-99180152D01*
X129671811Y-99198720D01*
X129634124Y-99210153D01*
X129588786Y-99214618D01*
X128502108Y-99214618D01*
X128456770Y-99210153D01*
X128419083Y-99198720D01*
X128384344Y-99180152D01*
X128353899Y-99155166D01*
X128328913Y-99124721D01*
X128310345Y-99089982D01*
X128298912Y-99052295D01*
X128294447Y-99006957D01*
X128294447Y-98170279D01*
X128298912Y-98124941D01*
X128310345Y-98087254D01*
X128328913Y-98052515D01*
X128353899Y-98022070D01*
X128384344Y-97997084D01*
X128419083Y-97978516D01*
X128456770Y-97967083D01*
X128502108Y-97962618D01*
X129588786Y-97962618D01*
X129634124Y-97967083D01*
X129634124Y-97967083D01*
G37*
G36*
X158838677Y-97903465D02*
X158876364Y-97914898D01*
X158911103Y-97933466D01*
X158941548Y-97958452D01*
X158966534Y-97988897D01*
X158985102Y-98023636D01*
X158996535Y-98061323D01*
X159001000Y-98106661D01*
X159001000Y-98943339D01*
X158996535Y-98988677D01*
X158985102Y-99026364D01*
X158966534Y-99061103D01*
X158941548Y-99091548D01*
X158911103Y-99116534D01*
X158876364Y-99135102D01*
X158838677Y-99146535D01*
X158793339Y-99151000D01*
X157706661Y-99151000D01*
X157661323Y-99146535D01*
X157623636Y-99135102D01*
X157588897Y-99116534D01*
X157558452Y-99091548D01*
X157533466Y-99061103D01*
X157514898Y-99026364D01*
X157503465Y-98988677D01*
X157499000Y-98943339D01*
X157499000Y-98106661D01*
X157503465Y-98061323D01*
X157514898Y-98023636D01*
X157533466Y-97988897D01*
X157558452Y-97958452D01*
X157588897Y-97933466D01*
X157623636Y-97914898D01*
X157661323Y-97903465D01*
X157706661Y-97899000D01*
X158793339Y-97899000D01*
X158838677Y-97903465D01*
X158838677Y-97903465D01*
G37*
G36*
X123088677Y-97903465D02*
X123126364Y-97914898D01*
X123161103Y-97933466D01*
X123191548Y-97958452D01*
X123216534Y-97988897D01*
X123235102Y-98023636D01*
X123246535Y-98061323D01*
X123251000Y-98106661D01*
X123251000Y-98943339D01*
X123246535Y-98988677D01*
X123235102Y-99026364D01*
X123216534Y-99061103D01*
X123191548Y-99091548D01*
X123161103Y-99116534D01*
X123126364Y-99135102D01*
X123088677Y-99146535D01*
X123043339Y-99151000D01*
X121956661Y-99151000D01*
X121911323Y-99146535D01*
X121873636Y-99135102D01*
X121838897Y-99116534D01*
X121808452Y-99091548D01*
X121783466Y-99061103D01*
X121764898Y-99026364D01*
X121753465Y-98988677D01*
X121749000Y-98943339D01*
X121749000Y-98106661D01*
X121753465Y-98061323D01*
X121764898Y-98023636D01*
X121783466Y-97988897D01*
X121808452Y-97958452D01*
X121838897Y-97933466D01*
X121873636Y-97914898D01*
X121911323Y-97903465D01*
X121956661Y-97899000D01*
X123043339Y-97899000D01*
X123088677Y-97903465D01*
X123088677Y-97903465D01*
G37*
G36*
X126088677Y-97903465D02*
X126126364Y-97914898D01*
X126161103Y-97933466D01*
X126191548Y-97958452D01*
X126216534Y-97988897D01*
X126235102Y-98023636D01*
X126246535Y-98061323D01*
X126251000Y-98106661D01*
X126251000Y-98943339D01*
X126246535Y-98988677D01*
X126235102Y-99026364D01*
X126216534Y-99061103D01*
X126191548Y-99091548D01*
X126161103Y-99116534D01*
X126126364Y-99135102D01*
X126088677Y-99146535D01*
X126043339Y-99151000D01*
X124956661Y-99151000D01*
X124911323Y-99146535D01*
X124873636Y-99135102D01*
X124838897Y-99116534D01*
X124808452Y-99091548D01*
X124783466Y-99061103D01*
X124764898Y-99026364D01*
X124753465Y-98988677D01*
X124749000Y-98943339D01*
X124749000Y-98106661D01*
X124753465Y-98061323D01*
X124764898Y-98023636D01*
X124783466Y-97988897D01*
X124808452Y-97958452D01*
X124838897Y-97933466D01*
X124873636Y-97914898D01*
X124911323Y-97903465D01*
X124956661Y-97899000D01*
X126043339Y-97899000D01*
X126088677Y-97903465D01*
X126088677Y-97903465D01*
G37*
G36*
X143588677Y-97903465D02*
X143626364Y-97914898D01*
X143661103Y-97933466D01*
X143691548Y-97958452D01*
X143716534Y-97988897D01*
X143735102Y-98023636D01*
X143746535Y-98061323D01*
X143751000Y-98106661D01*
X143751000Y-98943339D01*
X143746535Y-98988677D01*
X143735102Y-99026364D01*
X143716534Y-99061103D01*
X143691548Y-99091548D01*
X143661103Y-99116534D01*
X143626364Y-99135102D01*
X143588677Y-99146535D01*
X143543339Y-99151000D01*
X142456661Y-99151000D01*
X142411323Y-99146535D01*
X142373636Y-99135102D01*
X142338897Y-99116534D01*
X142308452Y-99091548D01*
X142283466Y-99061103D01*
X142264898Y-99026364D01*
X142253465Y-98988677D01*
X142249000Y-98943339D01*
X142249000Y-98106661D01*
X142253465Y-98061323D01*
X142264898Y-98023636D01*
X142283466Y-97988897D01*
X142308452Y-97958452D01*
X142338897Y-97933466D01*
X142373636Y-97914898D01*
X142411323Y-97903465D01*
X142456661Y-97899000D01*
X143543339Y-97899000D01*
X143588677Y-97903465D01*
X143588677Y-97903465D01*
G37*
G36*
X155838677Y-97903465D02*
X155876364Y-97914898D01*
X155911103Y-97933466D01*
X155941548Y-97958452D01*
X155966534Y-97988897D01*
X155985102Y-98023636D01*
X155996535Y-98061323D01*
X156001000Y-98106661D01*
X156001000Y-98943339D01*
X155996535Y-98988677D01*
X155985102Y-99026364D01*
X155966534Y-99061103D01*
X155941548Y-99091548D01*
X155911103Y-99116534D01*
X155876364Y-99135102D01*
X155838677Y-99146535D01*
X155793339Y-99151000D01*
X154706661Y-99151000D01*
X154661323Y-99146535D01*
X154623636Y-99135102D01*
X154588897Y-99116534D01*
X154558452Y-99091548D01*
X154533466Y-99061103D01*
X154514898Y-99026364D01*
X154503465Y-98988677D01*
X154499000Y-98943339D01*
X154499000Y-98106661D01*
X154503465Y-98061323D01*
X154514898Y-98023636D01*
X154533466Y-97988897D01*
X154558452Y-97958452D01*
X154588897Y-97933466D01*
X154623636Y-97914898D01*
X154661323Y-97903465D01*
X154706661Y-97899000D01*
X155793339Y-97899000D01*
X155838677Y-97903465D01*
X155838677Y-97903465D01*
G37*
G36*
X136201000Y-99051000D02*
X135099000Y-99051000D01*
X135099000Y-97249000D01*
X136201000Y-97249000D01*
X136201000Y-99051000D01*
X136201000Y-99051000D01*
G37*
G36*
X132401000Y-99051000D02*
X131299000Y-99051000D01*
X131299000Y-97249000D01*
X132401000Y-97249000D01*
X132401000Y-99051000D01*
X132401000Y-99051000D01*
G37*
G36*
X186038413Y-96555525D02*
X186113456Y-96578290D01*
X186123425Y-96581314D01*
X186201774Y-96623193D01*
X186270448Y-96679552D01*
X186326807Y-96748226D01*
X186368686Y-96826575D01*
X186368687Y-96826579D01*
X186394475Y-96911587D01*
X186403182Y-97000000D01*
X186394475Y-97088413D01*
X186377642Y-97143900D01*
X186368686Y-97173425D01*
X186326807Y-97251774D01*
X186270448Y-97320448D01*
X186201774Y-97376807D01*
X186123425Y-97418686D01*
X186113456Y-97421710D01*
X186038413Y-97444475D01*
X185972158Y-97451000D01*
X185927842Y-97451000D01*
X185861589Y-97444475D01*
X185826511Y-97433833D01*
X185805476Y-97427453D01*
X185781449Y-97422673D01*
X185756945Y-97422673D01*
X185732911Y-97427453D01*
X185710272Y-97436830D01*
X185689897Y-97450444D01*
X185672570Y-97467770D01*
X185658956Y-97488145D01*
X185649578Y-97510784D01*
X185644797Y-97534817D01*
X185644797Y-97559321D01*
X185649577Y-97583355D01*
X185658954Y-97605994D01*
X185672568Y-97626369D01*
X185689895Y-97643696D01*
X185726368Y-97673630D01*
X185823341Y-97791790D01*
X185887115Y-97911103D01*
X185895399Y-97926601D01*
X185906324Y-97962618D01*
X185939772Y-98072881D01*
X185954754Y-98225000D01*
X185939772Y-98377119D01*
X185939771Y-98377122D01*
X185905932Y-98488677D01*
X185895398Y-98523401D01*
X185823341Y-98658210D01*
X185726369Y-98776369D01*
X185608210Y-98873341D01*
X185562043Y-98898018D01*
X185473399Y-98945399D01*
X185354352Y-98981511D01*
X185327119Y-98989772D01*
X185213118Y-99001000D01*
X184586882Y-99001000D01*
X184472881Y-98989772D01*
X184445648Y-98981511D01*
X184326601Y-98945399D01*
X184237957Y-98898018D01*
X184191790Y-98873341D01*
X184073631Y-98776369D01*
X183976659Y-98658210D01*
X183904602Y-98523401D01*
X183894069Y-98488677D01*
X183860229Y-98377122D01*
X183860228Y-98377119D01*
X183845246Y-98225000D01*
X183860228Y-98072881D01*
X183893676Y-97962618D01*
X183904601Y-97926601D01*
X183912885Y-97911103D01*
X183976659Y-97791790D01*
X184073631Y-97673631D01*
X184191790Y-97576659D01*
X184326599Y-97504602D01*
X184326601Y-97504601D01*
X184472878Y-97460229D01*
X184472881Y-97460228D01*
X184586882Y-97449000D01*
X185213118Y-97449000D01*
X185327119Y-97460228D01*
X185327122Y-97460229D01*
X185473399Y-97504601D01*
X185473401Y-97504602D01*
X185480792Y-97506844D01*
X185489246Y-97510345D01*
X185513279Y-97515123D01*
X185537784Y-97515121D01*
X185561817Y-97510338D01*
X185584455Y-97500959D01*
X185604828Y-97487344D01*
X185622154Y-97470015D01*
X185635766Y-97449639D01*
X185645142Y-97426999D01*
X185649920Y-97402966D01*
X185649918Y-97378461D01*
X185645135Y-97354428D01*
X185635756Y-97331790D01*
X185622150Y-97311429D01*
X185587919Y-97269718D01*
X185573193Y-97251775D01*
X185556033Y-97219671D01*
X185531314Y-97173425D01*
X185522358Y-97143900D01*
X185505525Y-97088413D01*
X185496818Y-97000000D01*
X185505525Y-96911587D01*
X185531313Y-96826579D01*
X185531314Y-96826575D01*
X185573193Y-96748226D01*
X185629552Y-96679552D01*
X185698226Y-96623193D01*
X185776575Y-96581314D01*
X185786544Y-96578290D01*
X185861587Y-96555525D01*
X185927842Y-96549000D01*
X185972158Y-96549000D01*
X186038413Y-96555525D01*
X186038413Y-96555525D01*
G37*
G36*
X189147714Y-97758058D02*
X189147717Y-97758059D01*
X189265719Y-97793854D01*
X189265721Y-97793855D01*
X189374471Y-97851983D01*
X189469790Y-97930210D01*
X189548017Y-98025529D01*
X189573327Y-98072881D01*
X189606146Y-98134281D01*
X189620528Y-98181693D01*
X189641942Y-98252286D01*
X189654028Y-98375000D01*
X189641942Y-98497714D01*
X189641941Y-98497717D01*
X189609358Y-98605131D01*
X189606145Y-98615721D01*
X189548017Y-98724471D01*
X189469790Y-98819790D01*
X189374471Y-98898017D01*
X189291352Y-98942445D01*
X189265719Y-98956146D01*
X189177248Y-98982983D01*
X189147714Y-98991942D01*
X189055747Y-99001000D01*
X188344253Y-99001000D01*
X188252286Y-98991942D01*
X188222752Y-98982983D01*
X188134281Y-98956146D01*
X188108648Y-98942445D01*
X188025529Y-98898017D01*
X187930210Y-98819790D01*
X187851983Y-98724471D01*
X187793855Y-98615721D01*
X187790643Y-98605131D01*
X187758059Y-98497717D01*
X187758058Y-98497714D01*
X187745972Y-98375000D01*
X187758058Y-98252286D01*
X187779472Y-98181693D01*
X187793854Y-98134281D01*
X187826673Y-98072881D01*
X187851983Y-98025529D01*
X187930210Y-97930210D01*
X188025529Y-97851983D01*
X188134279Y-97793855D01*
X188134281Y-97793854D01*
X188252283Y-97758059D01*
X188252286Y-97758058D01*
X188344253Y-97749000D01*
X189055747Y-97749000D01*
X189147714Y-97758058D01*
X189147714Y-97758058D01*
G37*
G36*
X140781938Y-98141716D02*
X140802556Y-98147970D01*
X140821556Y-98158126D01*
X140838208Y-98171792D01*
X140851874Y-98188444D01*
X140862030Y-98207444D01*
X140868284Y-98228062D01*
X140871000Y-98255640D01*
X140871000Y-98714360D01*
X140868284Y-98741938D01*
X140862030Y-98762556D01*
X140851874Y-98781556D01*
X140838208Y-98798208D01*
X140821556Y-98811874D01*
X140802556Y-98822030D01*
X140781938Y-98828284D01*
X140754360Y-98831000D01*
X140245640Y-98831000D01*
X140218062Y-98828284D01*
X140197444Y-98822030D01*
X140178444Y-98811874D01*
X140161792Y-98798208D01*
X140148126Y-98781556D01*
X140137970Y-98762556D01*
X140131716Y-98741938D01*
X140129000Y-98714360D01*
X140129000Y-98255640D01*
X140131716Y-98228062D01*
X140137970Y-98207444D01*
X140148126Y-98188444D01*
X140161792Y-98171792D01*
X140178444Y-98158126D01*
X140197444Y-98147970D01*
X140218062Y-98141716D01*
X140245640Y-98139000D01*
X140754360Y-98139000D01*
X140781938Y-98141716D01*
X140781938Y-98141716D01*
G37*
G36*
X166938677Y-97253465D02*
X166976364Y-97264898D01*
X167011103Y-97283466D01*
X167041548Y-97308452D01*
X167066534Y-97338897D01*
X167085102Y-97373636D01*
X167096535Y-97411323D01*
X167101000Y-97456661D01*
X167101000Y-98543339D01*
X167096535Y-98588677D01*
X167085102Y-98626364D01*
X167066534Y-98661103D01*
X167041548Y-98691548D01*
X167011103Y-98716534D01*
X166976364Y-98735102D01*
X166938677Y-98746535D01*
X166893339Y-98751000D01*
X166056661Y-98751000D01*
X166011323Y-98746535D01*
X165973636Y-98735102D01*
X165938897Y-98716534D01*
X165908452Y-98691548D01*
X165883466Y-98661103D01*
X165864898Y-98626364D01*
X165853465Y-98588677D01*
X165849000Y-98543339D01*
X165849000Y-97456661D01*
X165853465Y-97411323D01*
X165864898Y-97373636D01*
X165883466Y-97338897D01*
X165908452Y-97308452D01*
X165938897Y-97283466D01*
X165973636Y-97264898D01*
X166011323Y-97253465D01*
X166056661Y-97249000D01*
X166893339Y-97249000D01*
X166938677Y-97253465D01*
X166938677Y-97253465D01*
G37*
G36*
X168988677Y-97253465D02*
X169026364Y-97264898D01*
X169061103Y-97283466D01*
X169091548Y-97308452D01*
X169116534Y-97338897D01*
X169135102Y-97373636D01*
X169146535Y-97411323D01*
X169151000Y-97456661D01*
X169151000Y-98543339D01*
X169146535Y-98588677D01*
X169135102Y-98626364D01*
X169116534Y-98661103D01*
X169091548Y-98691548D01*
X169061103Y-98716534D01*
X169026364Y-98735102D01*
X168988677Y-98746535D01*
X168943339Y-98751000D01*
X168106661Y-98751000D01*
X168061323Y-98746535D01*
X168023636Y-98735102D01*
X167988897Y-98716534D01*
X167958452Y-98691548D01*
X167933466Y-98661103D01*
X167914898Y-98626364D01*
X167903465Y-98588677D01*
X167899000Y-98543339D01*
X167899000Y-97456661D01*
X167903465Y-97411323D01*
X167914898Y-97373636D01*
X167933466Y-97338897D01*
X167958452Y-97308452D01*
X167988897Y-97283466D01*
X168023636Y-97264898D01*
X168061323Y-97253465D01*
X168106661Y-97249000D01*
X168943339Y-97249000D01*
X168988677Y-97253465D01*
X168988677Y-97253465D01*
G37*
G36*
X120588677Y-97403465D02*
X120626364Y-97414898D01*
X120661103Y-97433466D01*
X120691548Y-97458452D01*
X120716534Y-97488897D01*
X120735102Y-97523636D01*
X120746535Y-97561323D01*
X120751000Y-97606661D01*
X120751000Y-98443339D01*
X120746535Y-98488677D01*
X120735102Y-98526364D01*
X120716534Y-98561103D01*
X120691548Y-98591548D01*
X120661103Y-98616534D01*
X120626364Y-98635102D01*
X120588677Y-98646535D01*
X120543339Y-98651000D01*
X119456661Y-98651000D01*
X119411323Y-98646535D01*
X119373636Y-98635102D01*
X119338897Y-98616534D01*
X119308452Y-98591548D01*
X119283466Y-98561103D01*
X119264898Y-98526364D01*
X119253465Y-98488677D01*
X119249000Y-98443339D01*
X119249000Y-97606661D01*
X119253465Y-97561323D01*
X119264898Y-97523636D01*
X119283466Y-97488897D01*
X119308452Y-97458452D01*
X119338897Y-97433466D01*
X119373636Y-97414898D01*
X119411323Y-97403465D01*
X119456661Y-97399000D01*
X120543339Y-97399000D01*
X120588677Y-97403465D01*
X120588677Y-97403465D01*
G37*
G36*
X106838677Y-97403465D02*
X106876364Y-97414898D01*
X106911103Y-97433466D01*
X106941548Y-97458452D01*
X106966534Y-97488897D01*
X106985102Y-97523636D01*
X106996535Y-97561323D01*
X107001000Y-97606661D01*
X107001000Y-98443339D01*
X106996535Y-98488677D01*
X106985102Y-98526364D01*
X106966534Y-98561103D01*
X106941548Y-98591548D01*
X106911103Y-98616534D01*
X106876364Y-98635102D01*
X106838677Y-98646535D01*
X106793339Y-98651000D01*
X105706661Y-98651000D01*
X105661323Y-98646535D01*
X105623636Y-98635102D01*
X105588897Y-98616534D01*
X105558452Y-98591548D01*
X105533466Y-98561103D01*
X105514898Y-98526364D01*
X105503465Y-98488677D01*
X105499000Y-98443339D01*
X105499000Y-97606661D01*
X105503465Y-97561323D01*
X105514898Y-97523636D01*
X105533466Y-97488897D01*
X105558452Y-97458452D01*
X105588897Y-97433466D01*
X105623636Y-97414898D01*
X105661323Y-97403465D01*
X105706661Y-97399000D01*
X106793339Y-97399000D01*
X106838677Y-97403465D01*
X106838677Y-97403465D01*
G37*
G36*
X86801000Y-98551000D02*
X85699000Y-98551000D01*
X85699000Y-97449000D01*
X86801000Y-97449000D01*
X86801000Y-98551000D01*
X86801000Y-98551000D01*
G37*
G36*
X84301000Y-98551000D02*
X83199000Y-98551000D01*
X83199000Y-97449000D01*
X84301000Y-97449000D01*
X84301000Y-98551000D01*
X84301000Y-98551000D01*
G37*
G36*
X164323453Y-96503465D02*
X164361140Y-96514898D01*
X164395879Y-96533466D01*
X164426324Y-96558452D01*
X164451310Y-96588897D01*
X164469878Y-96623636D01*
X164481311Y-96661323D01*
X164485776Y-96706661D01*
X164485776Y-97793339D01*
X164481311Y-97838677D01*
X164469878Y-97876364D01*
X164451310Y-97911103D01*
X164426324Y-97941548D01*
X164395879Y-97966534D01*
X164361140Y-97985102D01*
X164323453Y-97996535D01*
X164278115Y-98001000D01*
X163441437Y-98001000D01*
X163396099Y-97996535D01*
X163358412Y-97985102D01*
X163323673Y-97966534D01*
X163293228Y-97941548D01*
X163268242Y-97911103D01*
X163249674Y-97876364D01*
X163238241Y-97838677D01*
X163233776Y-97793339D01*
X163233776Y-96706661D01*
X163238241Y-96661323D01*
X163249674Y-96623636D01*
X163268242Y-96588897D01*
X163293228Y-96558452D01*
X163323673Y-96533466D01*
X163358412Y-96514898D01*
X163396099Y-96503465D01*
X163441437Y-96499000D01*
X164278115Y-96499000D01*
X164323453Y-96503465D01*
X164323453Y-96503465D01*
G37*
G36*
X162273453Y-96503465D02*
X162311140Y-96514898D01*
X162345879Y-96533466D01*
X162376324Y-96558452D01*
X162401310Y-96588897D01*
X162419878Y-96623636D01*
X162431311Y-96661323D01*
X162435776Y-96706661D01*
X162435776Y-97793339D01*
X162431311Y-97838677D01*
X162419878Y-97876364D01*
X162401310Y-97911103D01*
X162376324Y-97941548D01*
X162345879Y-97966534D01*
X162311140Y-97985102D01*
X162273453Y-97996535D01*
X162228115Y-98001000D01*
X161391437Y-98001000D01*
X161346099Y-97996535D01*
X161308412Y-97985102D01*
X161273673Y-97966534D01*
X161243228Y-97941548D01*
X161218242Y-97911103D01*
X161199674Y-97876364D01*
X161188241Y-97838677D01*
X161183776Y-97793339D01*
X161183776Y-96706661D01*
X161188241Y-96661323D01*
X161199674Y-96623636D01*
X161218242Y-96588897D01*
X161243228Y-96558452D01*
X161273673Y-96533466D01*
X161308412Y-96514898D01*
X161346099Y-96503465D01*
X161391437Y-96499000D01*
X162228115Y-96499000D01*
X162273453Y-96503465D01*
X162273453Y-96503465D01*
G37*
G36*
X140781938Y-97171716D02*
X140802556Y-97177970D01*
X140821556Y-97188126D01*
X140838208Y-97201792D01*
X140851874Y-97218444D01*
X140862030Y-97237444D01*
X140868284Y-97258062D01*
X140871000Y-97285640D01*
X140871000Y-97744360D01*
X140868284Y-97771938D01*
X140862030Y-97792556D01*
X140851874Y-97811556D01*
X140838208Y-97828208D01*
X140821556Y-97841874D01*
X140802556Y-97852030D01*
X140781938Y-97858284D01*
X140754360Y-97861000D01*
X140245640Y-97861000D01*
X140218062Y-97858284D01*
X140197444Y-97852030D01*
X140178444Y-97841874D01*
X140161792Y-97828208D01*
X140148126Y-97811556D01*
X140137970Y-97792556D01*
X140131716Y-97771938D01*
X140129000Y-97744360D01*
X140129000Y-97285640D01*
X140131716Y-97258062D01*
X140137970Y-97237444D01*
X140148126Y-97218444D01*
X140161792Y-97201792D01*
X140178444Y-97188126D01*
X140197444Y-97177970D01*
X140218062Y-97171716D01*
X140245640Y-97169000D01*
X140754360Y-97169000D01*
X140781938Y-97171716D01*
X140781938Y-97171716D01*
G37*
G36*
X90051000Y-97801000D02*
X88949000Y-97801000D01*
X88949000Y-96699000D01*
X90051000Y-96699000D01*
X90051000Y-97801000D01*
X90051000Y-97801000D01*
G37*
G36*
X129634124Y-95917083D02*
X129671811Y-95928516D01*
X129706550Y-95947084D01*
X129736995Y-95972070D01*
X129761981Y-96002515D01*
X129780549Y-96037254D01*
X129791982Y-96074941D01*
X129796447Y-96120279D01*
X129796447Y-96956957D01*
X129791982Y-97002295D01*
X129780549Y-97039982D01*
X129761981Y-97074721D01*
X129736995Y-97105166D01*
X129706550Y-97130152D01*
X129671811Y-97148720D01*
X129634124Y-97160153D01*
X129588786Y-97164618D01*
X128502108Y-97164618D01*
X128456770Y-97160153D01*
X128419083Y-97148720D01*
X128384344Y-97130152D01*
X128353899Y-97105166D01*
X128328913Y-97074721D01*
X128310345Y-97039982D01*
X128298912Y-97002295D01*
X128294447Y-96956957D01*
X128294447Y-96120279D01*
X128298912Y-96074941D01*
X128310345Y-96037254D01*
X128328913Y-96002515D01*
X128353899Y-95972070D01*
X128384344Y-95947084D01*
X128419083Y-95928516D01*
X128456770Y-95917083D01*
X128502108Y-95912618D01*
X129588786Y-95912618D01*
X129634124Y-95917083D01*
X129634124Y-95917083D01*
G37*
G36*
X143588677Y-95853465D02*
X143626364Y-95864898D01*
X143661103Y-95883466D01*
X143691548Y-95908452D01*
X143716534Y-95938897D01*
X143735102Y-95973636D01*
X143746535Y-96011323D01*
X143751000Y-96056661D01*
X143751000Y-96893339D01*
X143746535Y-96938677D01*
X143735102Y-96976364D01*
X143716534Y-97011103D01*
X143691548Y-97041548D01*
X143661103Y-97066534D01*
X143626364Y-97085102D01*
X143588677Y-97096535D01*
X143543339Y-97101000D01*
X142456661Y-97101000D01*
X142411323Y-97096535D01*
X142373636Y-97085102D01*
X142338897Y-97066534D01*
X142308452Y-97041548D01*
X142283466Y-97011103D01*
X142264898Y-96976364D01*
X142253465Y-96938677D01*
X142249000Y-96893339D01*
X142249000Y-96056661D01*
X142253465Y-96011323D01*
X142264898Y-95973636D01*
X142283466Y-95938897D01*
X142308452Y-95908452D01*
X142338897Y-95883466D01*
X142373636Y-95864898D01*
X142411323Y-95853465D01*
X142456661Y-95849000D01*
X143543339Y-95849000D01*
X143588677Y-95853465D01*
X143588677Y-95853465D01*
G37*
G36*
X126088677Y-95853465D02*
X126126364Y-95864898D01*
X126161103Y-95883466D01*
X126191548Y-95908452D01*
X126216534Y-95938897D01*
X126235102Y-95973636D01*
X126246535Y-96011323D01*
X126251000Y-96056661D01*
X126251000Y-96893339D01*
X126246535Y-96938677D01*
X126235102Y-96976364D01*
X126216534Y-97011103D01*
X126191548Y-97041548D01*
X126161103Y-97066534D01*
X126126364Y-97085102D01*
X126088677Y-97096535D01*
X126043339Y-97101000D01*
X124956661Y-97101000D01*
X124911323Y-97096535D01*
X124873636Y-97085102D01*
X124838897Y-97066534D01*
X124808452Y-97041548D01*
X124783466Y-97011103D01*
X124764898Y-96976364D01*
X124753465Y-96938677D01*
X124749000Y-96893339D01*
X124749000Y-96056661D01*
X124753465Y-96011323D01*
X124764898Y-95973636D01*
X124783466Y-95938897D01*
X124808452Y-95908452D01*
X124838897Y-95883466D01*
X124873636Y-95864898D01*
X124911323Y-95853465D01*
X124956661Y-95849000D01*
X126043339Y-95849000D01*
X126088677Y-95853465D01*
X126088677Y-95853465D01*
G37*
G36*
X158838677Y-95853465D02*
X158876364Y-95864898D01*
X158911103Y-95883466D01*
X158941548Y-95908452D01*
X158966534Y-95938897D01*
X158985102Y-95973636D01*
X158996535Y-96011323D01*
X159001000Y-96056661D01*
X159001000Y-96893339D01*
X158996535Y-96938677D01*
X158985102Y-96976364D01*
X158966534Y-97011103D01*
X158941548Y-97041548D01*
X158911103Y-97066534D01*
X158876364Y-97085102D01*
X158838677Y-97096535D01*
X158793339Y-97101000D01*
X157706661Y-97101000D01*
X157661323Y-97096535D01*
X157623636Y-97085102D01*
X157588897Y-97066534D01*
X157558452Y-97041548D01*
X157533466Y-97011103D01*
X157514898Y-96976364D01*
X157503465Y-96938677D01*
X157499000Y-96893339D01*
X157499000Y-96056661D01*
X157503465Y-96011323D01*
X157514898Y-95973636D01*
X157533466Y-95938897D01*
X157558452Y-95908452D01*
X157588897Y-95883466D01*
X157623636Y-95864898D01*
X157661323Y-95853465D01*
X157706661Y-95849000D01*
X158793339Y-95849000D01*
X158838677Y-95853465D01*
X158838677Y-95853465D01*
G37*
G36*
X123088677Y-95853465D02*
X123126364Y-95864898D01*
X123161103Y-95883466D01*
X123191548Y-95908452D01*
X123216534Y-95938897D01*
X123235102Y-95973636D01*
X123246535Y-96011323D01*
X123251000Y-96056661D01*
X123251000Y-96893339D01*
X123246535Y-96938677D01*
X123235102Y-96976364D01*
X123216534Y-97011103D01*
X123191548Y-97041548D01*
X123161103Y-97066534D01*
X123126364Y-97085102D01*
X123088677Y-97096535D01*
X123043339Y-97101000D01*
X121956661Y-97101000D01*
X121911323Y-97096535D01*
X121873636Y-97085102D01*
X121838897Y-97066534D01*
X121808452Y-97041548D01*
X121783466Y-97011103D01*
X121764898Y-96976364D01*
X121753465Y-96938677D01*
X121749000Y-96893339D01*
X121749000Y-96056661D01*
X121753465Y-96011323D01*
X121764898Y-95973636D01*
X121783466Y-95938897D01*
X121808452Y-95908452D01*
X121838897Y-95883466D01*
X121873636Y-95864898D01*
X121911323Y-95853465D01*
X121956661Y-95849000D01*
X123043339Y-95849000D01*
X123088677Y-95853465D01*
X123088677Y-95853465D01*
G37*
G36*
X155838677Y-95853465D02*
X155876364Y-95864898D01*
X155911103Y-95883466D01*
X155941548Y-95908452D01*
X155966534Y-95938897D01*
X155985102Y-95973636D01*
X155996535Y-96011323D01*
X156001000Y-96056661D01*
X156001000Y-96893339D01*
X155996535Y-96938677D01*
X155985102Y-96976364D01*
X155966534Y-97011103D01*
X155941548Y-97041548D01*
X155911103Y-97066534D01*
X155876364Y-97085102D01*
X155838677Y-97096535D01*
X155793339Y-97101000D01*
X154706661Y-97101000D01*
X154661323Y-97096535D01*
X154623636Y-97085102D01*
X154588897Y-97066534D01*
X154558452Y-97041548D01*
X154533466Y-97011103D01*
X154514898Y-96976364D01*
X154503465Y-96938677D01*
X154499000Y-96893339D01*
X154499000Y-96056661D01*
X154503465Y-96011323D01*
X154514898Y-95973636D01*
X154533466Y-95938897D01*
X154558452Y-95908452D01*
X154588897Y-95883466D01*
X154623636Y-95864898D01*
X154661323Y-95853465D01*
X154706661Y-95849000D01*
X155793339Y-95849000D01*
X155838677Y-95853465D01*
X155838677Y-95853465D01*
G37*
G36*
X174431000Y-97076000D02*
X173269000Y-97076000D01*
X173269000Y-94424000D01*
X174431000Y-94424000D01*
X174431000Y-97076000D01*
X174431000Y-97076000D01*
G37*
G36*
X172231000Y-97076000D02*
X171069000Y-97076000D01*
X171069000Y-94424000D01*
X172231000Y-94424000D01*
X172231000Y-97076000D01*
X172231000Y-97076000D01*
G37*
G36*
X118051000Y-96651000D02*
X114449000Y-96651000D01*
X114449000Y-95349000D01*
X118051000Y-95349000D01*
X118051000Y-96651000D01*
X118051000Y-96651000D01*
G37*
G36*
X112551000Y-96651000D02*
X108949000Y-96651000D01*
X108949000Y-95349000D01*
X112551000Y-95349000D01*
X112551000Y-96651000D01*
X112551000Y-96651000D01*
G37*
G36*
X120588677Y-95353465D02*
X120626364Y-95364898D01*
X120661103Y-95383466D01*
X120691548Y-95408452D01*
X120716534Y-95438897D01*
X120735102Y-95473636D01*
X120746535Y-95511323D01*
X120751000Y-95556661D01*
X120751000Y-96393339D01*
X120746535Y-96438677D01*
X120735102Y-96476364D01*
X120716534Y-96511103D01*
X120691548Y-96541548D01*
X120661103Y-96566534D01*
X120626364Y-96585102D01*
X120588677Y-96596535D01*
X120543339Y-96601000D01*
X119456661Y-96601000D01*
X119411323Y-96596535D01*
X119373636Y-96585102D01*
X119338897Y-96566534D01*
X119308452Y-96541548D01*
X119283466Y-96511103D01*
X119264898Y-96476364D01*
X119253465Y-96438677D01*
X119249000Y-96393339D01*
X119249000Y-95556661D01*
X119253465Y-95511323D01*
X119264898Y-95473636D01*
X119283466Y-95438897D01*
X119308452Y-95408452D01*
X119338897Y-95383466D01*
X119373636Y-95364898D01*
X119411323Y-95353465D01*
X119456661Y-95349000D01*
X120543339Y-95349000D01*
X120588677Y-95353465D01*
X120588677Y-95353465D01*
G37*
G36*
X106838677Y-95353465D02*
X106876364Y-95364898D01*
X106911103Y-95383466D01*
X106941548Y-95408452D01*
X106966534Y-95438897D01*
X106985102Y-95473636D01*
X106996535Y-95511323D01*
X107001000Y-95556661D01*
X107001000Y-96393339D01*
X106996535Y-96438677D01*
X106985102Y-96476364D01*
X106966534Y-96511103D01*
X106941548Y-96541548D01*
X106911103Y-96566534D01*
X106876364Y-96585102D01*
X106838677Y-96596535D01*
X106793339Y-96601000D01*
X105706661Y-96601000D01*
X105661323Y-96596535D01*
X105623636Y-96585102D01*
X105588897Y-96566534D01*
X105558452Y-96541548D01*
X105533466Y-96511103D01*
X105514898Y-96476364D01*
X105503465Y-96438677D01*
X105499000Y-96393339D01*
X105499000Y-95556661D01*
X105503465Y-95511323D01*
X105514898Y-95473636D01*
X105533466Y-95438897D01*
X105558452Y-95408452D01*
X105588897Y-95383466D01*
X105623636Y-95364898D01*
X105661323Y-95353465D01*
X105706661Y-95349000D01*
X106793339Y-95349000D01*
X106838677Y-95353465D01*
X106838677Y-95353465D01*
G37*
G36*
X99488677Y-95003465D02*
X99526364Y-95014898D01*
X99561103Y-95033466D01*
X99591548Y-95058452D01*
X99616534Y-95088897D01*
X99635102Y-95123636D01*
X99646535Y-95161323D01*
X99651000Y-95206661D01*
X99651000Y-96293339D01*
X99646535Y-96338677D01*
X99635102Y-96376364D01*
X99616534Y-96411103D01*
X99591548Y-96441548D01*
X99561103Y-96466534D01*
X99526364Y-96485102D01*
X99488677Y-96496535D01*
X99443339Y-96501000D01*
X98606661Y-96501000D01*
X98561323Y-96496535D01*
X98523636Y-96485102D01*
X98488897Y-96466534D01*
X98458452Y-96441548D01*
X98433466Y-96411103D01*
X98414898Y-96376364D01*
X98403465Y-96338677D01*
X98399000Y-96293339D01*
X98399000Y-95206661D01*
X98403465Y-95161323D01*
X98414898Y-95123636D01*
X98433466Y-95088897D01*
X98458452Y-95058452D01*
X98488897Y-95033466D01*
X98523636Y-95014898D01*
X98561323Y-95003465D01*
X98606661Y-94999000D01*
X99443339Y-94999000D01*
X99488677Y-95003465D01*
X99488677Y-95003465D01*
G37*
G36*
X97438677Y-95003465D02*
X97476364Y-95014898D01*
X97511103Y-95033466D01*
X97541548Y-95058452D01*
X97566534Y-95088897D01*
X97585102Y-95123636D01*
X97596535Y-95161323D01*
X97601000Y-95206661D01*
X97601000Y-96293339D01*
X97596535Y-96338677D01*
X97585102Y-96376364D01*
X97566534Y-96411103D01*
X97541548Y-96441548D01*
X97511103Y-96466534D01*
X97476364Y-96485102D01*
X97438677Y-96496535D01*
X97393339Y-96501000D01*
X96556661Y-96501000D01*
X96511323Y-96496535D01*
X96473636Y-96485102D01*
X96438897Y-96466534D01*
X96408452Y-96441548D01*
X96383466Y-96411103D01*
X96364898Y-96376364D01*
X96353465Y-96338677D01*
X96349000Y-96293339D01*
X96349000Y-95206661D01*
X96353465Y-95161323D01*
X96364898Y-95123636D01*
X96383466Y-95088897D01*
X96408452Y-95058452D01*
X96438897Y-95033466D01*
X96473636Y-95014898D01*
X96511323Y-95003465D01*
X96556661Y-94999000D01*
X97393339Y-94999000D01*
X97438677Y-95003465D01*
X97438677Y-95003465D01*
G37*
G36*
X185551000Y-96076000D02*
X184149000Y-96076000D01*
X184149000Y-92924000D01*
X185551000Y-92924000D01*
X185551000Y-96076000D01*
X185551000Y-96076000D01*
G37*
G36*
X94488160Y-96039004D02*
X93486160Y-96039004D01*
X93486160Y-95137004D01*
X94488160Y-95137004D01*
X94488160Y-96039004D01*
X94488160Y-96039004D01*
G37*
G36*
X85201000Y-96001000D02*
X84299000Y-96001000D01*
X84299000Y-94999000D01*
X85201000Y-94999000D01*
X85201000Y-96001000D01*
X85201000Y-96001000D01*
G37*
G36*
X169181000Y-95776000D02*
X168019000Y-95776000D01*
X168019000Y-93124000D01*
X169181000Y-93124000D01*
X169181000Y-95776000D01*
X169181000Y-95776000D01*
G37*
G36*
X166981000Y-95776000D02*
X165819000Y-95776000D01*
X165819000Y-93124000D01*
X166981000Y-93124000D01*
X166981000Y-95776000D01*
X166981000Y-95776000D01*
G37*
G36*
X90051000Y-95301000D02*
X88949000Y-95301000D01*
X88949000Y-94199000D01*
X90051000Y-94199000D01*
X90051000Y-95301000D01*
X90051000Y-95301000D01*
G37*
G36*
X163738677Y-93753465D02*
X163776364Y-93764898D01*
X163811103Y-93783466D01*
X163841548Y-93808452D01*
X163866534Y-93838897D01*
X163885102Y-93873636D01*
X163896535Y-93911323D01*
X163901000Y-93956661D01*
X163901000Y-95043339D01*
X163896535Y-95088677D01*
X163885102Y-95126364D01*
X163866534Y-95161103D01*
X163841548Y-95191548D01*
X163811103Y-95216534D01*
X163776364Y-95235102D01*
X163738677Y-95246535D01*
X163693339Y-95251000D01*
X162856661Y-95251000D01*
X162811323Y-95246535D01*
X162773636Y-95235102D01*
X162738897Y-95216534D01*
X162708452Y-95191548D01*
X162683466Y-95161103D01*
X162664898Y-95126364D01*
X162653465Y-95088677D01*
X162649000Y-95043339D01*
X162649000Y-93956661D01*
X162653465Y-93911323D01*
X162664898Y-93873636D01*
X162683466Y-93838897D01*
X162708452Y-93808452D01*
X162738897Y-93783466D01*
X162773636Y-93764898D01*
X162811323Y-93753465D01*
X162856661Y-93749000D01*
X163693339Y-93749000D01*
X163738677Y-93753465D01*
X163738677Y-93753465D01*
G37*
G36*
X161688677Y-93753465D02*
X161726364Y-93764898D01*
X161761103Y-93783466D01*
X161791548Y-93808452D01*
X161816534Y-93838897D01*
X161835102Y-93873636D01*
X161846535Y-93911323D01*
X161851000Y-93956661D01*
X161851000Y-95043339D01*
X161846535Y-95088677D01*
X161835102Y-95126364D01*
X161816534Y-95161103D01*
X161791548Y-95191548D01*
X161761103Y-95216534D01*
X161726364Y-95235102D01*
X161688677Y-95246535D01*
X161643339Y-95251000D01*
X160806661Y-95251000D01*
X160761323Y-95246535D01*
X160723636Y-95235102D01*
X160688897Y-95216534D01*
X160658452Y-95191548D01*
X160633466Y-95161103D01*
X160614898Y-95126364D01*
X160603465Y-95088677D01*
X160599000Y-95043339D01*
X160599000Y-93956661D01*
X160603465Y-93911323D01*
X160614898Y-93873636D01*
X160633466Y-93838897D01*
X160658452Y-93808452D01*
X160688897Y-93783466D01*
X160723636Y-93764898D01*
X160761323Y-93753465D01*
X160806661Y-93749000D01*
X161643339Y-93749000D01*
X161688677Y-93753465D01*
X161688677Y-93753465D01*
G37*
G36*
X92488160Y-95089004D02*
X91486160Y-95089004D01*
X91486160Y-94187004D01*
X92488160Y-94187004D01*
X92488160Y-95089004D01*
X92488160Y-95089004D01*
G37*
G36*
X122688677Y-93253465D02*
X122726364Y-93264898D01*
X122761103Y-93283466D01*
X122791548Y-93308452D01*
X122816534Y-93338897D01*
X122835102Y-93373636D01*
X122846535Y-93411323D01*
X122851000Y-93456661D01*
X122851000Y-94543339D01*
X122846535Y-94588677D01*
X122835102Y-94626364D01*
X122816534Y-94661103D01*
X122791548Y-94691548D01*
X122761103Y-94716534D01*
X122726364Y-94735102D01*
X122688677Y-94746535D01*
X122643339Y-94751000D01*
X121806661Y-94751000D01*
X121761323Y-94746535D01*
X121723636Y-94735102D01*
X121688897Y-94716534D01*
X121658452Y-94691548D01*
X121633466Y-94661103D01*
X121614898Y-94626364D01*
X121603465Y-94588677D01*
X121599000Y-94543339D01*
X121599000Y-93456661D01*
X121603465Y-93411323D01*
X121614898Y-93373636D01*
X121633466Y-93338897D01*
X121658452Y-93308452D01*
X121688897Y-93283466D01*
X121723636Y-93264898D01*
X121761323Y-93253465D01*
X121806661Y-93249000D01*
X122643339Y-93249000D01*
X122688677Y-93253465D01*
X122688677Y-93253465D01*
G37*
G36*
X124738677Y-93253465D02*
X124776364Y-93264898D01*
X124811103Y-93283466D01*
X124841548Y-93308452D01*
X124866534Y-93338897D01*
X124885102Y-93373636D01*
X124896535Y-93411323D01*
X124901000Y-93456661D01*
X124901000Y-94543339D01*
X124896535Y-94588677D01*
X124885102Y-94626364D01*
X124866534Y-94661103D01*
X124841548Y-94691548D01*
X124811103Y-94716534D01*
X124776364Y-94735102D01*
X124738677Y-94746535D01*
X124693339Y-94751000D01*
X123856661Y-94751000D01*
X123811323Y-94746535D01*
X123773636Y-94735102D01*
X123738897Y-94716534D01*
X123708452Y-94691548D01*
X123683466Y-94661103D01*
X123664898Y-94626364D01*
X123653465Y-94588677D01*
X123649000Y-94543339D01*
X123649000Y-93456661D01*
X123653465Y-93411323D01*
X123664898Y-93373636D01*
X123683466Y-93338897D01*
X123708452Y-93308452D01*
X123738897Y-93283466D01*
X123773636Y-93264898D01*
X123811323Y-93253465D01*
X123856661Y-93249000D01*
X124693339Y-93249000D01*
X124738677Y-93253465D01*
X124738677Y-93253465D01*
G37*
G36*
X129634124Y-93217083D02*
X129671811Y-93228516D01*
X129706550Y-93247084D01*
X129736995Y-93272070D01*
X129761981Y-93302515D01*
X129780549Y-93337254D01*
X129791982Y-93374941D01*
X129796447Y-93420279D01*
X129796447Y-94256957D01*
X129791982Y-94302295D01*
X129780549Y-94339982D01*
X129761981Y-94374721D01*
X129736995Y-94405166D01*
X129706550Y-94430152D01*
X129671811Y-94448720D01*
X129634124Y-94460153D01*
X129588786Y-94464618D01*
X128502108Y-94464618D01*
X128456770Y-94460153D01*
X128419083Y-94448720D01*
X128384344Y-94430152D01*
X128353899Y-94405166D01*
X128328913Y-94374721D01*
X128310345Y-94339982D01*
X128298912Y-94302295D01*
X128294447Y-94256957D01*
X128294447Y-93420279D01*
X128298912Y-93374941D01*
X128310345Y-93337254D01*
X128328913Y-93302515D01*
X128353899Y-93272070D01*
X128384344Y-93247084D01*
X128419083Y-93228516D01*
X128456770Y-93217083D01*
X128502108Y-93212618D01*
X129588786Y-93212618D01*
X129634124Y-93217083D01*
X129634124Y-93217083D01*
G37*
G36*
X157488677Y-92753465D02*
X157526364Y-92764898D01*
X157561103Y-92783466D01*
X157591548Y-92808452D01*
X157616534Y-92838897D01*
X157635102Y-92873636D01*
X157646535Y-92911323D01*
X157651000Y-92956661D01*
X157651000Y-94043339D01*
X157646535Y-94088677D01*
X157635102Y-94126364D01*
X157616534Y-94161103D01*
X157591548Y-94191548D01*
X157561103Y-94216534D01*
X157526364Y-94235102D01*
X157488677Y-94246535D01*
X157443339Y-94251000D01*
X156606661Y-94251000D01*
X156561323Y-94246535D01*
X156523636Y-94235102D01*
X156488897Y-94216534D01*
X156458452Y-94191548D01*
X156433466Y-94161103D01*
X156414898Y-94126364D01*
X156403465Y-94088677D01*
X156399000Y-94043339D01*
X156399000Y-92956661D01*
X156403465Y-92911323D01*
X156414898Y-92873636D01*
X156433466Y-92838897D01*
X156458452Y-92808452D01*
X156488897Y-92783466D01*
X156523636Y-92764898D01*
X156561323Y-92753465D01*
X156606661Y-92749000D01*
X157443339Y-92749000D01*
X157488677Y-92753465D01*
X157488677Y-92753465D01*
G37*
G36*
X155438677Y-92753465D02*
X155476364Y-92764898D01*
X155511103Y-92783466D01*
X155541548Y-92808452D01*
X155566534Y-92838897D01*
X155585102Y-92873636D01*
X155596535Y-92911323D01*
X155601000Y-92956661D01*
X155601000Y-94043339D01*
X155596535Y-94088677D01*
X155585102Y-94126364D01*
X155566534Y-94161103D01*
X155541548Y-94191548D01*
X155511103Y-94216534D01*
X155476364Y-94235102D01*
X155438677Y-94246535D01*
X155393339Y-94251000D01*
X154556661Y-94251000D01*
X154511323Y-94246535D01*
X154473636Y-94235102D01*
X154438897Y-94216534D01*
X154408452Y-94191548D01*
X154383466Y-94161103D01*
X154364898Y-94126364D01*
X154353465Y-94088677D01*
X154349000Y-94043339D01*
X154349000Y-92956661D01*
X154353465Y-92911323D01*
X154364898Y-92873636D01*
X154383466Y-92838897D01*
X154408452Y-92808452D01*
X154438897Y-92783466D01*
X154473636Y-92764898D01*
X154511323Y-92753465D01*
X154556661Y-92749000D01*
X155393339Y-92749000D01*
X155438677Y-92753465D01*
X155438677Y-92753465D01*
G37*
G36*
X94488160Y-94139004D02*
X93486160Y-94139004D01*
X93486160Y-93237004D01*
X94488160Y-93237004D01*
X94488160Y-94139004D01*
X94488160Y-94139004D01*
G37*
G36*
X99488677Y-92503465D02*
X99526364Y-92514898D01*
X99561103Y-92533466D01*
X99591548Y-92558452D01*
X99616534Y-92588897D01*
X99635102Y-92623636D01*
X99646535Y-92661323D01*
X99651000Y-92706661D01*
X99651000Y-93793339D01*
X99646535Y-93838677D01*
X99635102Y-93876364D01*
X99616534Y-93911103D01*
X99591548Y-93941548D01*
X99561103Y-93966534D01*
X99526364Y-93985102D01*
X99488677Y-93996535D01*
X99443339Y-94001000D01*
X98606661Y-94001000D01*
X98561323Y-93996535D01*
X98523636Y-93985102D01*
X98488897Y-93966534D01*
X98458452Y-93941548D01*
X98433466Y-93911103D01*
X98414898Y-93876364D01*
X98403465Y-93838677D01*
X98399000Y-93793339D01*
X98399000Y-92706661D01*
X98403465Y-92661323D01*
X98414898Y-92623636D01*
X98433466Y-92588897D01*
X98458452Y-92558452D01*
X98488897Y-92533466D01*
X98523636Y-92514898D01*
X98561323Y-92503465D01*
X98606661Y-92499000D01*
X99443339Y-92499000D01*
X99488677Y-92503465D01*
X99488677Y-92503465D01*
G37*
G36*
X84251000Y-94001000D02*
X83349000Y-94001000D01*
X83349000Y-92999000D01*
X84251000Y-92999000D01*
X84251000Y-94001000D01*
X84251000Y-94001000D01*
G37*
G36*
X145238677Y-92503465D02*
X145276364Y-92514898D01*
X145311103Y-92533466D01*
X145341548Y-92558452D01*
X145366534Y-92588897D01*
X145385102Y-92623636D01*
X145396535Y-92661323D01*
X145401000Y-92706661D01*
X145401000Y-93793339D01*
X145396535Y-93838677D01*
X145385102Y-93876364D01*
X145366534Y-93911103D01*
X145341548Y-93941548D01*
X145311103Y-93966534D01*
X145276364Y-93985102D01*
X145238677Y-93996535D01*
X145193339Y-94001000D01*
X144356661Y-94001000D01*
X144311323Y-93996535D01*
X144273636Y-93985102D01*
X144238897Y-93966534D01*
X144208452Y-93941548D01*
X144183466Y-93911103D01*
X144164898Y-93876364D01*
X144153465Y-93838677D01*
X144149000Y-93793339D01*
X144149000Y-92706661D01*
X144153465Y-92661323D01*
X144164898Y-92623636D01*
X144183466Y-92588897D01*
X144208452Y-92558452D01*
X144238897Y-92533466D01*
X144273636Y-92514898D01*
X144311323Y-92503465D01*
X144356661Y-92499000D01*
X145193339Y-92499000D01*
X145238677Y-92503465D01*
X145238677Y-92503465D01*
G37*
G36*
X86151000Y-94001000D02*
X85249000Y-94001000D01*
X85249000Y-92999000D01*
X86151000Y-92999000D01*
X86151000Y-94001000D01*
X86151000Y-94001000D01*
G37*
G36*
X97438677Y-92503465D02*
X97476364Y-92514898D01*
X97511103Y-92533466D01*
X97541548Y-92558452D01*
X97566534Y-92588897D01*
X97585102Y-92623636D01*
X97596535Y-92661323D01*
X97601000Y-92706661D01*
X97601000Y-93793339D01*
X97596535Y-93838677D01*
X97585102Y-93876364D01*
X97566534Y-93911103D01*
X97541548Y-93941548D01*
X97511103Y-93966534D01*
X97476364Y-93985102D01*
X97438677Y-93996535D01*
X97393339Y-94001000D01*
X96556661Y-94001000D01*
X96511323Y-93996535D01*
X96473636Y-93985102D01*
X96438897Y-93966534D01*
X96408452Y-93941548D01*
X96383466Y-93911103D01*
X96364898Y-93876364D01*
X96353465Y-93838677D01*
X96349000Y-93793339D01*
X96349000Y-92706661D01*
X96353465Y-92661323D01*
X96364898Y-92623636D01*
X96383466Y-92588897D01*
X96408452Y-92558452D01*
X96438897Y-92533466D01*
X96473636Y-92514898D01*
X96511323Y-92503465D01*
X96556661Y-92499000D01*
X97393339Y-92499000D01*
X97438677Y-92503465D01*
X97438677Y-92503465D01*
G37*
G36*
X143188677Y-92503465D02*
X143226364Y-92514898D01*
X143261103Y-92533466D01*
X143291548Y-92558452D01*
X143316534Y-92588897D01*
X143335102Y-92623636D01*
X143346535Y-92661323D01*
X143351000Y-92706661D01*
X143351000Y-93793339D01*
X143346535Y-93838677D01*
X143335102Y-93876364D01*
X143316534Y-93911103D01*
X143291548Y-93941548D01*
X143261103Y-93966534D01*
X143226364Y-93985102D01*
X143188677Y-93996535D01*
X143143339Y-94001000D01*
X142306661Y-94001000D01*
X142261323Y-93996535D01*
X142223636Y-93985102D01*
X142188897Y-93966534D01*
X142158452Y-93941548D01*
X142133466Y-93911103D01*
X142114898Y-93876364D01*
X142103465Y-93838677D01*
X142099000Y-93793339D01*
X142099000Y-92706661D01*
X142103465Y-92661323D01*
X142114898Y-92623636D01*
X142133466Y-92588897D01*
X142158452Y-92558452D01*
X142188897Y-92533466D01*
X142223636Y-92514898D01*
X142261323Y-92503465D01*
X142306661Y-92499000D01*
X143143339Y-92499000D01*
X143188677Y-92503465D01*
X143188677Y-92503465D01*
G37*
G36*
X172051000Y-92801000D02*
X170949000Y-92801000D01*
X170949000Y-91699000D01*
X172051000Y-91699000D01*
X172051000Y-92801000D01*
X172051000Y-92801000D01*
G37*
G36*
X174551000Y-92801000D02*
X173449000Y-92801000D01*
X173449000Y-91699000D01*
X174551000Y-91699000D01*
X174551000Y-92801000D01*
X174551000Y-92801000D01*
G37*
G36*
X136201000Y-92751000D02*
X135099000Y-92751000D01*
X135099000Y-90949000D01*
X136201000Y-90949000D01*
X136201000Y-92751000D01*
X136201000Y-92751000D01*
G37*
G36*
X132401000Y-92751000D02*
X131299000Y-92751000D01*
X131299000Y-90949000D01*
X132401000Y-90949000D01*
X132401000Y-92751000D01*
X132401000Y-92751000D01*
G37*
G36*
X180838677Y-91378466D02*
X180876364Y-91389899D01*
X180911103Y-91408467D01*
X180941548Y-91433453D01*
X180966534Y-91463898D01*
X180985102Y-91498637D01*
X180996535Y-91536324D01*
X181001000Y-91581662D01*
X181001000Y-92418340D01*
X180996535Y-92463678D01*
X180985102Y-92501365D01*
X180966534Y-92536104D01*
X180941548Y-92566549D01*
X180911103Y-92591535D01*
X180876364Y-92610103D01*
X180838677Y-92621536D01*
X180793339Y-92626001D01*
X179706661Y-92626001D01*
X179661323Y-92621536D01*
X179623636Y-92610103D01*
X179588897Y-92591535D01*
X179558452Y-92566549D01*
X179533466Y-92536104D01*
X179514898Y-92501365D01*
X179503465Y-92463678D01*
X179499000Y-92418340D01*
X179499000Y-91581662D01*
X179503465Y-91536324D01*
X179514898Y-91498637D01*
X179533466Y-91463898D01*
X179558452Y-91433453D01*
X179588897Y-91408467D01*
X179623636Y-91389899D01*
X179661323Y-91378466D01*
X179706661Y-91374001D01*
X180793339Y-91374001D01*
X180838677Y-91378466D01*
X180838677Y-91378466D01*
G37*
G36*
X162301000Y-92551000D02*
X161199000Y-92551000D01*
X161199000Y-91449000D01*
X162301000Y-91449000D01*
X162301000Y-92551000D01*
X162301000Y-92551000D01*
G37*
G36*
X164801000Y-92551000D02*
X163699000Y-92551000D01*
X163699000Y-91449000D01*
X164801000Y-91449000D01*
X164801000Y-92551000D01*
X164801000Y-92551000D01*
G37*
G36*
X185327119Y-90010228D02*
X185327122Y-90010229D01*
X185473399Y-90054601D01*
X185473401Y-90054602D01*
X185608210Y-90126659D01*
X185726369Y-90223631D01*
X185823341Y-90341790D01*
X185823342Y-90341792D01*
X185895399Y-90476601D01*
X185920729Y-90560103D01*
X185939772Y-90622881D01*
X185954754Y-90775000D01*
X185939772Y-90927119D01*
X185939771Y-90927122D01*
X185896494Y-91069790D01*
X185895398Y-91073401D01*
X185823341Y-91208210D01*
X185726368Y-91326370D01*
X185689895Y-91356304D01*
X185672568Y-91373631D01*
X185658954Y-91394006D01*
X185649577Y-91416645D01*
X185644797Y-91440678D01*
X185644797Y-91465183D01*
X185649578Y-91489216D01*
X185658956Y-91511855D01*
X185672570Y-91532229D01*
X185689897Y-91549556D01*
X185710272Y-91563170D01*
X185732911Y-91572547D01*
X185756944Y-91577327D01*
X185781449Y-91577327D01*
X185805476Y-91572547D01*
X185826511Y-91566167D01*
X185861589Y-91555525D01*
X185927842Y-91549000D01*
X185972158Y-91549000D01*
X186038413Y-91555525D01*
X186110281Y-91577327D01*
X186123425Y-91581314D01*
X186201774Y-91623193D01*
X186270448Y-91679552D01*
X186326807Y-91748226D01*
X186368686Y-91826575D01*
X186368687Y-91826579D01*
X186394475Y-91911587D01*
X186403182Y-92000000D01*
X186394475Y-92088413D01*
X186371710Y-92163456D01*
X186368686Y-92173425D01*
X186326807Y-92251774D01*
X186270448Y-92320448D01*
X186201774Y-92376807D01*
X186123425Y-92418686D01*
X186113456Y-92421710D01*
X186038413Y-92444475D01*
X185972158Y-92451000D01*
X185927842Y-92451000D01*
X185861587Y-92444475D01*
X185786544Y-92421710D01*
X185776575Y-92418686D01*
X185698226Y-92376807D01*
X185629552Y-92320448D01*
X185573193Y-92251774D01*
X185531314Y-92173425D01*
X185528290Y-92163456D01*
X185505525Y-92088413D01*
X185496818Y-92000000D01*
X185505525Y-91911587D01*
X185531313Y-91826579D01*
X185531314Y-91826575D01*
X185559809Y-91773265D01*
X185573193Y-91748225D01*
X185613592Y-91699000D01*
X185622150Y-91688571D01*
X185635761Y-91668202D01*
X185645138Y-91645563D01*
X185649919Y-91621529D01*
X185649919Y-91597025D01*
X185645139Y-91572992D01*
X185635762Y-91550352D01*
X185622148Y-91529978D01*
X185604821Y-91512650D01*
X185584447Y-91499036D01*
X185561808Y-91489659D01*
X185537774Y-91484878D01*
X185513270Y-91484878D01*
X185489237Y-91489658D01*
X185480788Y-91493157D01*
X185473401Y-91495398D01*
X185473399Y-91495399D01*
X185351985Y-91532229D01*
X185327119Y-91539772D01*
X185213118Y-91551000D01*
X184586882Y-91551000D01*
X184472881Y-91539772D01*
X184383471Y-91512650D01*
X184326601Y-91495399D01*
X184325785Y-91494963D01*
X184191790Y-91423341D01*
X184073631Y-91326369D01*
X183976659Y-91208210D01*
X183904602Y-91073401D01*
X183903507Y-91069790D01*
X183860229Y-90927122D01*
X183860228Y-90927119D01*
X183845246Y-90775000D01*
X183860228Y-90622881D01*
X183879271Y-90560103D01*
X183904601Y-90476601D01*
X183976658Y-90341792D01*
X183976659Y-90341790D01*
X184073631Y-90223631D01*
X184191790Y-90126659D01*
X184326599Y-90054602D01*
X184326601Y-90054601D01*
X184472878Y-90010229D01*
X184472881Y-90010228D01*
X184586882Y-89999000D01*
X185213118Y-89999000D01*
X185327119Y-90010228D01*
X185327119Y-90010228D01*
G37*
G36*
X129634124Y-91167083D02*
X129671811Y-91178516D01*
X129706550Y-91197084D01*
X129736995Y-91222070D01*
X129761981Y-91252515D01*
X129780549Y-91287254D01*
X129791982Y-91324941D01*
X129796447Y-91370279D01*
X129796447Y-92206957D01*
X129791982Y-92252295D01*
X129780549Y-92289982D01*
X129761981Y-92324721D01*
X129736995Y-92355166D01*
X129706550Y-92380152D01*
X129671811Y-92398720D01*
X129634124Y-92410153D01*
X129588786Y-92414618D01*
X128502108Y-92414618D01*
X128456770Y-92410153D01*
X128419083Y-92398720D01*
X128384344Y-92380152D01*
X128353899Y-92355166D01*
X128328913Y-92324721D01*
X128310345Y-92289982D01*
X128298912Y-92252295D01*
X128294447Y-92206957D01*
X128294447Y-91370279D01*
X128298912Y-91324941D01*
X128310345Y-91287254D01*
X128328913Y-91252515D01*
X128353899Y-91222070D01*
X128384344Y-91197084D01*
X128419083Y-91178516D01*
X128456770Y-91167083D01*
X128502108Y-91162618D01*
X129588786Y-91162618D01*
X129634124Y-91167083D01*
X129634124Y-91167083D01*
G37*
G36*
X95051000Y-91551000D02*
X93949000Y-91551000D01*
X93949000Y-90449000D01*
X95051000Y-90449000D01*
X95051000Y-91551000D01*
X95051000Y-91551000D01*
G37*
G36*
X90051000Y-91551000D02*
X88949000Y-91551000D01*
X88949000Y-90449000D01*
X90051000Y-90449000D01*
X90051000Y-91551000D01*
X90051000Y-91551000D01*
G37*
G36*
X92551000Y-91551000D02*
X91449000Y-91551000D01*
X91449000Y-90449000D01*
X92551000Y-90449000D01*
X92551000Y-91551000D01*
X92551000Y-91551000D01*
G37*
G36*
X87551000Y-91551000D02*
X86449000Y-91551000D01*
X86449000Y-90449000D01*
X87551000Y-90449000D01*
X87551000Y-91551000D01*
X87551000Y-91551000D01*
G37*
G36*
X166938677Y-90003465D02*
X166976364Y-90014898D01*
X167011103Y-90033466D01*
X167041548Y-90058452D01*
X167066534Y-90088897D01*
X167085102Y-90123636D01*
X167096535Y-90161323D01*
X167101000Y-90206661D01*
X167101000Y-91293339D01*
X167096535Y-91338677D01*
X167085102Y-91376364D01*
X167066534Y-91411103D01*
X167041548Y-91441548D01*
X167011103Y-91466534D01*
X166976364Y-91485102D01*
X166938677Y-91496535D01*
X166893339Y-91501000D01*
X166056661Y-91501000D01*
X166011323Y-91496535D01*
X165973636Y-91485102D01*
X165938897Y-91466534D01*
X165908452Y-91441548D01*
X165883466Y-91411103D01*
X165864898Y-91376364D01*
X165853465Y-91338677D01*
X165849000Y-91293339D01*
X165849000Y-90206661D01*
X165853465Y-90161323D01*
X165864898Y-90123636D01*
X165883466Y-90088897D01*
X165908452Y-90058452D01*
X165938897Y-90033466D01*
X165973636Y-90014898D01*
X166011323Y-90003465D01*
X166056661Y-89999000D01*
X166893339Y-89999000D01*
X166938677Y-90003465D01*
X166938677Y-90003465D01*
G37*
G36*
X168988677Y-90003465D02*
X169026364Y-90014898D01*
X169061103Y-90033466D01*
X169091548Y-90058452D01*
X169116534Y-90088897D01*
X169135102Y-90123636D01*
X169146535Y-90161323D01*
X169151000Y-90206661D01*
X169151000Y-91293339D01*
X169146535Y-91338677D01*
X169135102Y-91376364D01*
X169116534Y-91411103D01*
X169091548Y-91441548D01*
X169061103Y-91466534D01*
X169026364Y-91485102D01*
X168988677Y-91496535D01*
X168943339Y-91501000D01*
X168106661Y-91501000D01*
X168061323Y-91496535D01*
X168023636Y-91485102D01*
X167988897Y-91466534D01*
X167958452Y-91441548D01*
X167933466Y-91411103D01*
X167914898Y-91376364D01*
X167903465Y-91338677D01*
X167899000Y-91293339D01*
X167899000Y-90206661D01*
X167903465Y-90161323D01*
X167914898Y-90123636D01*
X167933466Y-90088897D01*
X167958452Y-90058452D01*
X167988897Y-90033466D01*
X168023636Y-90014898D01*
X168061323Y-90003465D01*
X168106661Y-89999000D01*
X168943339Y-89999000D01*
X168988677Y-90003465D01*
X168988677Y-90003465D01*
G37*
G36*
X98088677Y-90153465D02*
X98126364Y-90164898D01*
X98161103Y-90183466D01*
X98191548Y-90208452D01*
X98216534Y-90238897D01*
X98235102Y-90273636D01*
X98246535Y-90311323D01*
X98251000Y-90356661D01*
X98251000Y-91193339D01*
X98246535Y-91238677D01*
X98235102Y-91276364D01*
X98216534Y-91311103D01*
X98191548Y-91341548D01*
X98161103Y-91366534D01*
X98126364Y-91385102D01*
X98088677Y-91396535D01*
X98043339Y-91401000D01*
X96956661Y-91401000D01*
X96911323Y-91396535D01*
X96873636Y-91385102D01*
X96838897Y-91366534D01*
X96808452Y-91341548D01*
X96783466Y-91311103D01*
X96764898Y-91276364D01*
X96753465Y-91238677D01*
X96749000Y-91193339D01*
X96749000Y-90356661D01*
X96753465Y-90311323D01*
X96764898Y-90273636D01*
X96783466Y-90238897D01*
X96808452Y-90208452D01*
X96838897Y-90183466D01*
X96873636Y-90164898D01*
X96911323Y-90153465D01*
X96956661Y-90149000D01*
X98043339Y-90149000D01*
X98088677Y-90153465D01*
X98088677Y-90153465D01*
G37*
G36*
X189147714Y-90008058D02*
X189154871Y-90010229D01*
X189265719Y-90043854D01*
X189265721Y-90043855D01*
X189374471Y-90101983D01*
X189469790Y-90180210D01*
X189548017Y-90275529D01*
X189606145Y-90384279D01*
X189641942Y-90502286D01*
X189654028Y-90625000D01*
X189641942Y-90747714D01*
X189606145Y-90865721D01*
X189548017Y-90974471D01*
X189469790Y-91069790D01*
X189374471Y-91148017D01*
X189308394Y-91183336D01*
X189265719Y-91206146D01*
X189186152Y-91230282D01*
X189147714Y-91241942D01*
X189055747Y-91251000D01*
X188344253Y-91251000D01*
X188252286Y-91241942D01*
X188213848Y-91230282D01*
X188134281Y-91206146D01*
X188091606Y-91183336D01*
X188025529Y-91148017D01*
X187930210Y-91069790D01*
X187851983Y-90974471D01*
X187793855Y-90865721D01*
X187758058Y-90747714D01*
X187745972Y-90625000D01*
X187758058Y-90502286D01*
X187793855Y-90384279D01*
X187851983Y-90275529D01*
X187930210Y-90180210D01*
X188025529Y-90101983D01*
X188134279Y-90043855D01*
X188134281Y-90043854D01*
X188245129Y-90010229D01*
X188252286Y-90008058D01*
X188344253Y-89999000D01*
X189055747Y-89999000D01*
X189147714Y-90008058D01*
X189147714Y-90008058D01*
G37*
G36*
X155438677Y-89753465D02*
X155476364Y-89764898D01*
X155511103Y-89783466D01*
X155541548Y-89808452D01*
X155566534Y-89838897D01*
X155585102Y-89873636D01*
X155596535Y-89911323D01*
X155601000Y-89956661D01*
X155601000Y-91043339D01*
X155596535Y-91088677D01*
X155585102Y-91126364D01*
X155566534Y-91161103D01*
X155541548Y-91191548D01*
X155511103Y-91216534D01*
X155476364Y-91235102D01*
X155438677Y-91246535D01*
X155393339Y-91251000D01*
X154556661Y-91251000D01*
X154511323Y-91246535D01*
X154473636Y-91235102D01*
X154438897Y-91216534D01*
X154408452Y-91191548D01*
X154383466Y-91161103D01*
X154364898Y-91126364D01*
X154353465Y-91088677D01*
X154349000Y-91043339D01*
X154349000Y-89956661D01*
X154353465Y-89911323D01*
X154364898Y-89873636D01*
X154383466Y-89838897D01*
X154408452Y-89808452D01*
X154438897Y-89783466D01*
X154473636Y-89764898D01*
X154511323Y-89753465D01*
X154556661Y-89749000D01*
X155393339Y-89749000D01*
X155438677Y-89753465D01*
X155438677Y-89753465D01*
G37*
G36*
X157488677Y-89753465D02*
X157526364Y-89764898D01*
X157561103Y-89783466D01*
X157591548Y-89808452D01*
X157616534Y-89838897D01*
X157635102Y-89873636D01*
X157646535Y-89911323D01*
X157651000Y-89956661D01*
X157651000Y-91043339D01*
X157646535Y-91088677D01*
X157635102Y-91126364D01*
X157616534Y-91161103D01*
X157591548Y-91191548D01*
X157561103Y-91216534D01*
X157526364Y-91235102D01*
X157488677Y-91246535D01*
X157443339Y-91251000D01*
X156606661Y-91251000D01*
X156561323Y-91246535D01*
X156523636Y-91235102D01*
X156488897Y-91216534D01*
X156458452Y-91191548D01*
X156433466Y-91161103D01*
X156414898Y-91126364D01*
X156403465Y-91088677D01*
X156399000Y-91043339D01*
X156399000Y-89956661D01*
X156403465Y-89911323D01*
X156414898Y-89873636D01*
X156433466Y-89838897D01*
X156458452Y-89808452D01*
X156488897Y-89783466D01*
X156523636Y-89764898D01*
X156561323Y-89753465D01*
X156606661Y-89749000D01*
X157443339Y-89749000D01*
X157488677Y-89753465D01*
X157488677Y-89753465D01*
G37*
G36*
X120426000Y-90751000D02*
X112574000Y-90751000D01*
X112574000Y-89649000D01*
X120426000Y-89649000D01*
X120426000Y-90751000D01*
X120426000Y-90751000D01*
G37*
G36*
X125588677Y-89403465D02*
X125626364Y-89414898D01*
X125661103Y-89433466D01*
X125691548Y-89458452D01*
X125716534Y-89488897D01*
X125735102Y-89523636D01*
X125746535Y-89561323D01*
X125751000Y-89606661D01*
X125751000Y-90443339D01*
X125746535Y-90488677D01*
X125735102Y-90526364D01*
X125716534Y-90561103D01*
X125691548Y-90591548D01*
X125661103Y-90616534D01*
X125626364Y-90635102D01*
X125588677Y-90646535D01*
X125543339Y-90651000D01*
X124456661Y-90651000D01*
X124411323Y-90646535D01*
X124373636Y-90635102D01*
X124338897Y-90616534D01*
X124308452Y-90591548D01*
X124283466Y-90561103D01*
X124264898Y-90526364D01*
X124253465Y-90488677D01*
X124249000Y-90443339D01*
X124249000Y-89606661D01*
X124253465Y-89561323D01*
X124264898Y-89523636D01*
X124283466Y-89488897D01*
X124308452Y-89458452D01*
X124338897Y-89433466D01*
X124373636Y-89414898D01*
X124411323Y-89403465D01*
X124456661Y-89399000D01*
X125543339Y-89399000D01*
X125588677Y-89403465D01*
X125588677Y-89403465D01*
G37*
G36*
X180838677Y-89328466D02*
X180876364Y-89339899D01*
X180911103Y-89358467D01*
X180941548Y-89383453D01*
X180966534Y-89413898D01*
X180985102Y-89448637D01*
X180996535Y-89486324D01*
X181001000Y-89531662D01*
X181001000Y-90368340D01*
X180996535Y-90413678D01*
X180985102Y-90451365D01*
X180966534Y-90486104D01*
X180941548Y-90516549D01*
X180911103Y-90541535D01*
X180876364Y-90560103D01*
X180838677Y-90571536D01*
X180793339Y-90576001D01*
X179706661Y-90576001D01*
X179661323Y-90571536D01*
X179623636Y-90560103D01*
X179588897Y-90541535D01*
X179558452Y-90516549D01*
X179533466Y-90486104D01*
X179514898Y-90451365D01*
X179503465Y-90413678D01*
X179499000Y-90368340D01*
X179499000Y-89531662D01*
X179503465Y-89486324D01*
X179514898Y-89448637D01*
X179533466Y-89413898D01*
X179558452Y-89383453D01*
X179588897Y-89358467D01*
X179623636Y-89339899D01*
X179661323Y-89328466D01*
X179706661Y-89324001D01*
X180793339Y-89324001D01*
X180838677Y-89328466D01*
X180838677Y-89328466D01*
G37*
G36*
X162539499Y-89228445D02*
X162576993Y-89239819D01*
X162611557Y-89258294D01*
X162641847Y-89283153D01*
X162666706Y-89313443D01*
X162685181Y-89348007D01*
X162696555Y-89385501D01*
X162701000Y-89430638D01*
X162701000Y-90069362D01*
X162696555Y-90114499D01*
X162685181Y-90151993D01*
X162666706Y-90186557D01*
X162641847Y-90216847D01*
X162611557Y-90241706D01*
X162576993Y-90260181D01*
X162539499Y-90271555D01*
X162494362Y-90276000D01*
X161755638Y-90276000D01*
X161710501Y-90271555D01*
X161673007Y-90260181D01*
X161638443Y-90241706D01*
X161608153Y-90216847D01*
X161583294Y-90186557D01*
X161564819Y-90151993D01*
X161553445Y-90114499D01*
X161549000Y-90069362D01*
X161549000Y-89430638D01*
X161553445Y-89385501D01*
X161564819Y-89348007D01*
X161583294Y-89313443D01*
X161608153Y-89283153D01*
X161638443Y-89258294D01*
X161673007Y-89239819D01*
X161710501Y-89228445D01*
X161755638Y-89224000D01*
X162494362Y-89224000D01*
X162539499Y-89228445D01*
X162539499Y-89228445D01*
G37*
G36*
X164289499Y-89228445D02*
X164326993Y-89239819D01*
X164361557Y-89258294D01*
X164391847Y-89283153D01*
X164416706Y-89313443D01*
X164435181Y-89348007D01*
X164446555Y-89385501D01*
X164451000Y-89430638D01*
X164451000Y-90069362D01*
X164446555Y-90114499D01*
X164435181Y-90151993D01*
X164416706Y-90186557D01*
X164391847Y-90216847D01*
X164361557Y-90241706D01*
X164326993Y-90260181D01*
X164289499Y-90271555D01*
X164244362Y-90276000D01*
X163505638Y-90276000D01*
X163460501Y-90271555D01*
X163423007Y-90260181D01*
X163388443Y-90241706D01*
X163358153Y-90216847D01*
X163333294Y-90186557D01*
X163314819Y-90151993D01*
X163303445Y-90114499D01*
X163299000Y-90069362D01*
X163299000Y-89430638D01*
X163303445Y-89385501D01*
X163314819Y-89348007D01*
X163333294Y-89313443D01*
X163358153Y-89283153D01*
X163388443Y-89258294D01*
X163423007Y-89239819D01*
X163460501Y-89228445D01*
X163505638Y-89224000D01*
X164244362Y-89224000D01*
X164289499Y-89228445D01*
X164289499Y-89228445D01*
G37*
G36*
X107988677Y-88503465D02*
X108026364Y-88514898D01*
X108061103Y-88533466D01*
X108091548Y-88558452D01*
X108116534Y-88588897D01*
X108135102Y-88623636D01*
X108146535Y-88661323D01*
X108151000Y-88706661D01*
X108151000Y-89793339D01*
X108146535Y-89838677D01*
X108135102Y-89876364D01*
X108116534Y-89911103D01*
X108091548Y-89941548D01*
X108061103Y-89966534D01*
X108026364Y-89985102D01*
X107988677Y-89996535D01*
X107943339Y-90001000D01*
X107106661Y-90001000D01*
X107061323Y-89996535D01*
X107023636Y-89985102D01*
X106988897Y-89966534D01*
X106958452Y-89941548D01*
X106933466Y-89911103D01*
X106914898Y-89876364D01*
X106903465Y-89838677D01*
X106899000Y-89793339D01*
X106899000Y-88706661D01*
X106903465Y-88661323D01*
X106914898Y-88623636D01*
X106933466Y-88588897D01*
X106958452Y-88558452D01*
X106988897Y-88533466D01*
X107023636Y-88514898D01*
X107061323Y-88503465D01*
X107106661Y-88499000D01*
X107943339Y-88499000D01*
X107988677Y-88503465D01*
X107988677Y-88503465D01*
G37*
G36*
X105938677Y-88503465D02*
X105976364Y-88514898D01*
X106011103Y-88533466D01*
X106041548Y-88558452D01*
X106066534Y-88588897D01*
X106085102Y-88623636D01*
X106096535Y-88661323D01*
X106101000Y-88706661D01*
X106101000Y-89793339D01*
X106096535Y-89838677D01*
X106085102Y-89876364D01*
X106066534Y-89911103D01*
X106041548Y-89941548D01*
X106011103Y-89966534D01*
X105976364Y-89985102D01*
X105938677Y-89996535D01*
X105893339Y-90001000D01*
X105056661Y-90001000D01*
X105011323Y-89996535D01*
X104973636Y-89985102D01*
X104938897Y-89966534D01*
X104908452Y-89941548D01*
X104883466Y-89911103D01*
X104864898Y-89876364D01*
X104853465Y-89838677D01*
X104849000Y-89793339D01*
X104849000Y-88706661D01*
X104853465Y-88661323D01*
X104864898Y-88623636D01*
X104883466Y-88588897D01*
X104908452Y-88558452D01*
X104938897Y-88533466D01*
X104973636Y-88514898D01*
X105011323Y-88503465D01*
X105056661Y-88499000D01*
X105893339Y-88499000D01*
X105938677Y-88503465D01*
X105938677Y-88503465D01*
G37*
G36*
X98088677Y-88103465D02*
X98126364Y-88114898D01*
X98161103Y-88133466D01*
X98191548Y-88158452D01*
X98216534Y-88188897D01*
X98235102Y-88223636D01*
X98246535Y-88261323D01*
X98251000Y-88306661D01*
X98251000Y-89143339D01*
X98246535Y-89188677D01*
X98235102Y-89226364D01*
X98216534Y-89261103D01*
X98191548Y-89291548D01*
X98161103Y-89316534D01*
X98126364Y-89335102D01*
X98088677Y-89346535D01*
X98043339Y-89351000D01*
X96956661Y-89351000D01*
X96911323Y-89346535D01*
X96873636Y-89335102D01*
X96838897Y-89316534D01*
X96808452Y-89291548D01*
X96783466Y-89261103D01*
X96764898Y-89226364D01*
X96753465Y-89188677D01*
X96749000Y-89143339D01*
X96749000Y-88306661D01*
X96753465Y-88261323D01*
X96764898Y-88223636D01*
X96783466Y-88188897D01*
X96808452Y-88158452D01*
X96838897Y-88133466D01*
X96873636Y-88114898D01*
X96911323Y-88103465D01*
X96956661Y-88099000D01*
X98043339Y-88099000D01*
X98088677Y-88103465D01*
X98088677Y-88103465D01*
G37*
G36*
X88451000Y-89001000D02*
X87549000Y-89001000D01*
X87549000Y-87999000D01*
X88451000Y-87999000D01*
X88451000Y-89001000D01*
X88451000Y-89001000D01*
G37*
G36*
X94501000Y-88651000D02*
X93499000Y-88651000D01*
X93499000Y-87749000D01*
X94501000Y-87749000D01*
X94501000Y-88651000D01*
X94501000Y-88651000D01*
G37*
G36*
X125588677Y-87353465D02*
X125626364Y-87364898D01*
X125661103Y-87383466D01*
X125691548Y-87408452D01*
X125716534Y-87438897D01*
X125735102Y-87473636D01*
X125746535Y-87511323D01*
X125751000Y-87556661D01*
X125751000Y-88393339D01*
X125746535Y-88438677D01*
X125735102Y-88476364D01*
X125716534Y-88511103D01*
X125691548Y-88541548D01*
X125661103Y-88566534D01*
X125626364Y-88585102D01*
X125588677Y-88596535D01*
X125543339Y-88601000D01*
X124456661Y-88601000D01*
X124411323Y-88596535D01*
X124373636Y-88585102D01*
X124338897Y-88566534D01*
X124308452Y-88541548D01*
X124283466Y-88511103D01*
X124264898Y-88476364D01*
X124253465Y-88438677D01*
X124249000Y-88393339D01*
X124249000Y-87556661D01*
X124253465Y-87511323D01*
X124264898Y-87473636D01*
X124283466Y-87438897D01*
X124308452Y-87408452D01*
X124338897Y-87383466D01*
X124373636Y-87364898D01*
X124411323Y-87353465D01*
X124456661Y-87349000D01*
X125543339Y-87349000D01*
X125588677Y-87353465D01*
X125588677Y-87353465D01*
G37*
G36*
X111351000Y-88426000D02*
X110249000Y-88426000D01*
X110249000Y-80574000D01*
X111351000Y-80574000D01*
X111351000Y-88426000D01*
X111351000Y-88426000D01*
G37*
G36*
X122751000Y-88426000D02*
X121649000Y-88426000D01*
X121649000Y-80574000D01*
X122751000Y-80574000D01*
X122751000Y-88426000D01*
X122751000Y-88426000D01*
G37*
G36*
X83610443Y-86055519D02*
X83676627Y-86062037D01*
X83789853Y-86096384D01*
X83846467Y-86113557D01*
X83946482Y-86167017D01*
X84002991Y-86197222D01*
X84014492Y-86206661D01*
X84140186Y-86309814D01*
X84223448Y-86411271D01*
X84252778Y-86447009D01*
X84252779Y-86447011D01*
X84336443Y-86603533D01*
X84336443Y-86603534D01*
X84387963Y-86773373D01*
X84405359Y-86950000D01*
X84387963Y-87126627D01*
X84356961Y-87228827D01*
X84336443Y-87296467D01*
X84289940Y-87383466D01*
X84252778Y-87452991D01*
X84241663Y-87466534D01*
X84140186Y-87590186D01*
X84038729Y-87673448D01*
X84002991Y-87702778D01*
X84002989Y-87702779D01*
X83846467Y-87786443D01*
X83789853Y-87803616D01*
X83676627Y-87837963D01*
X83610442Y-87844482D01*
X83544260Y-87851000D01*
X83455740Y-87851000D01*
X83389558Y-87844482D01*
X83323373Y-87837963D01*
X83210147Y-87803616D01*
X83153533Y-87786443D01*
X82997011Y-87702779D01*
X82997009Y-87702778D01*
X82961271Y-87673448D01*
X82859814Y-87590186D01*
X82758337Y-87466534D01*
X82747222Y-87452991D01*
X82710060Y-87383466D01*
X82663557Y-87296467D01*
X82643039Y-87228827D01*
X82612037Y-87126627D01*
X82594641Y-86950000D01*
X82612037Y-86773373D01*
X82663557Y-86603534D01*
X82663557Y-86603533D01*
X82747221Y-86447011D01*
X82747222Y-86447009D01*
X82776552Y-86411271D01*
X82859814Y-86309814D01*
X82985508Y-86206661D01*
X82997009Y-86197222D01*
X83053518Y-86167017D01*
X83153533Y-86113557D01*
X83210147Y-86096384D01*
X83323373Y-86062037D01*
X83389557Y-86055519D01*
X83455740Y-86049000D01*
X83544260Y-86049000D01*
X83610443Y-86055519D01*
X83610443Y-86055519D01*
G37*
G36*
X92501000Y-87701000D02*
X91499000Y-87701000D01*
X91499000Y-86799000D01*
X92501000Y-86799000D01*
X92501000Y-87701000D01*
X92501000Y-87701000D01*
G37*
G36*
X101988677Y-86003465D02*
X102026364Y-86014898D01*
X102061103Y-86033466D01*
X102091548Y-86058452D01*
X102116534Y-86088897D01*
X102135102Y-86123636D01*
X102146535Y-86161323D01*
X102151000Y-86206661D01*
X102151000Y-87293339D01*
X102146535Y-87338677D01*
X102135102Y-87376364D01*
X102116534Y-87411103D01*
X102091548Y-87441548D01*
X102061103Y-87466534D01*
X102026364Y-87485102D01*
X101988677Y-87496535D01*
X101943339Y-87501000D01*
X101106661Y-87501000D01*
X101061323Y-87496535D01*
X101023636Y-87485102D01*
X100988897Y-87466534D01*
X100958452Y-87441548D01*
X100933466Y-87411103D01*
X100914898Y-87376364D01*
X100903465Y-87338677D01*
X100899000Y-87293339D01*
X100899000Y-86206661D01*
X100903465Y-86161323D01*
X100914898Y-86123636D01*
X100933466Y-86088897D01*
X100958452Y-86058452D01*
X100988897Y-86033466D01*
X101023636Y-86014898D01*
X101061323Y-86003465D01*
X101106661Y-85999000D01*
X101943339Y-85999000D01*
X101988677Y-86003465D01*
X101988677Y-86003465D01*
G37*
G36*
X99938677Y-86003465D02*
X99976364Y-86014898D01*
X100011103Y-86033466D01*
X100041548Y-86058452D01*
X100066534Y-86088897D01*
X100085102Y-86123636D01*
X100096535Y-86161323D01*
X100101000Y-86206661D01*
X100101000Y-87293339D01*
X100096535Y-87338677D01*
X100085102Y-87376364D01*
X100066534Y-87411103D01*
X100041548Y-87441548D01*
X100011103Y-87466534D01*
X99976364Y-87485102D01*
X99938677Y-87496535D01*
X99893339Y-87501000D01*
X99056661Y-87501000D01*
X99011323Y-87496535D01*
X98973636Y-87485102D01*
X98938897Y-87466534D01*
X98908452Y-87441548D01*
X98883466Y-87411103D01*
X98864898Y-87376364D01*
X98853465Y-87338677D01*
X98849000Y-87293339D01*
X98849000Y-86206661D01*
X98853465Y-86161323D01*
X98864898Y-86123636D01*
X98883466Y-86088897D01*
X98908452Y-86058452D01*
X98938897Y-86033466D01*
X98973636Y-86014898D01*
X99011323Y-86003465D01*
X99056661Y-85999000D01*
X99893339Y-85999000D01*
X99938677Y-86003465D01*
X99938677Y-86003465D01*
G37*
G36*
X97588677Y-85903465D02*
X97626364Y-85914898D01*
X97661103Y-85933466D01*
X97691548Y-85958452D01*
X97716534Y-85988897D01*
X97735102Y-86023636D01*
X97746535Y-86061323D01*
X97751000Y-86106661D01*
X97751000Y-86943339D01*
X97746535Y-86988677D01*
X97735102Y-87026364D01*
X97716534Y-87061103D01*
X97691548Y-87091548D01*
X97661103Y-87116534D01*
X97626364Y-87135102D01*
X97588677Y-87146535D01*
X97543339Y-87151000D01*
X96456661Y-87151000D01*
X96411323Y-87146535D01*
X96373636Y-87135102D01*
X96338897Y-87116534D01*
X96308452Y-87091548D01*
X96283466Y-87061103D01*
X96264898Y-87026364D01*
X96253465Y-86988677D01*
X96249000Y-86943339D01*
X96249000Y-86106661D01*
X96253465Y-86061323D01*
X96264898Y-86023636D01*
X96283466Y-85988897D01*
X96308452Y-85958452D01*
X96338897Y-85933466D01*
X96373636Y-85914898D01*
X96411323Y-85903465D01*
X96456661Y-85899000D01*
X97543339Y-85899000D01*
X97588677Y-85903465D01*
X97588677Y-85903465D01*
G37*
G36*
X89401000Y-87001000D02*
X88499000Y-87001000D01*
X88499000Y-85999000D01*
X89401000Y-85999000D01*
X89401000Y-87001000D01*
X89401000Y-87001000D01*
G37*
G36*
X87501000Y-87001000D02*
X86599000Y-87001000D01*
X86599000Y-85999000D01*
X87501000Y-85999000D01*
X87501000Y-87001000D01*
X87501000Y-87001000D01*
G37*
G36*
X94501000Y-86751000D02*
X93499000Y-86751000D01*
X93499000Y-85849000D01*
X94501000Y-85849000D01*
X94501000Y-86751000D01*
X94501000Y-86751000D01*
G37*
G36*
X184551000Y-85577870D02*
X183449000Y-85577870D01*
X183449000Y-84475870D01*
X184551000Y-84475870D01*
X184551000Y-85577870D01*
X184551000Y-85577870D01*
G37*
G36*
X187051000Y-85577870D02*
X185949000Y-85577870D01*
X185949000Y-84475870D01*
X187051000Y-84475870D01*
X187051000Y-85577870D01*
X187051000Y-85577870D01*
G37*
G36*
X178051000Y-85577870D02*
X176949000Y-85577870D01*
X176949000Y-84475870D01*
X178051000Y-84475870D01*
X178051000Y-85577870D01*
X178051000Y-85577870D01*
G37*
G36*
X180551000Y-85577870D02*
X179449000Y-85577870D01*
X179449000Y-84475870D01*
X180551000Y-84475870D01*
X180551000Y-85577870D01*
X180551000Y-85577870D01*
G37*
G36*
X83610442Y-83515518D02*
X83676627Y-83522037D01*
X83789853Y-83556384D01*
X83846467Y-83573557D01*
X83985087Y-83647652D01*
X84002991Y-83657222D01*
X84038729Y-83686552D01*
X84140186Y-83769814D01*
X84209463Y-83854230D01*
X84252778Y-83907009D01*
X84252779Y-83907011D01*
X84336443Y-84063533D01*
X84339618Y-84074000D01*
X84387963Y-84233373D01*
X84405359Y-84410000D01*
X84387963Y-84586627D01*
X84353616Y-84699853D01*
X84336443Y-84756467D01*
X84297765Y-84828827D01*
X84252778Y-84912991D01*
X84236371Y-84932983D01*
X84140186Y-85050186D01*
X84038729Y-85133448D01*
X84002991Y-85162778D01*
X84002989Y-85162779D01*
X83846467Y-85246443D01*
X83789853Y-85263616D01*
X83676627Y-85297963D01*
X83610443Y-85304481D01*
X83544260Y-85311000D01*
X83455740Y-85311000D01*
X83389557Y-85304481D01*
X83323373Y-85297963D01*
X83210147Y-85263616D01*
X83153533Y-85246443D01*
X82997011Y-85162779D01*
X82997009Y-85162778D01*
X82961271Y-85133448D01*
X82859814Y-85050186D01*
X82763629Y-84932983D01*
X82747222Y-84912991D01*
X82702235Y-84828827D01*
X82663557Y-84756467D01*
X82646384Y-84699853D01*
X82612037Y-84586627D01*
X82594641Y-84410000D01*
X82612037Y-84233373D01*
X82660382Y-84074000D01*
X82663557Y-84063533D01*
X82747221Y-83907011D01*
X82747222Y-83907009D01*
X82790537Y-83854230D01*
X82859814Y-83769814D01*
X82961271Y-83686552D01*
X82997009Y-83657222D01*
X83014913Y-83647652D01*
X83153533Y-83573557D01*
X83210147Y-83556384D01*
X83323373Y-83522037D01*
X83389558Y-83515518D01*
X83455740Y-83509000D01*
X83544260Y-83509000D01*
X83610442Y-83515518D01*
X83610442Y-83515518D01*
G37*
G36*
X97588677Y-83853465D02*
X97626364Y-83864898D01*
X97661103Y-83883466D01*
X97691548Y-83908452D01*
X97716534Y-83938897D01*
X97735102Y-83973636D01*
X97746535Y-84011323D01*
X97751000Y-84056661D01*
X97751000Y-84893339D01*
X97746535Y-84938677D01*
X97735102Y-84976364D01*
X97716534Y-85011103D01*
X97691548Y-85041548D01*
X97661103Y-85066534D01*
X97626364Y-85085102D01*
X97588677Y-85096535D01*
X97543339Y-85101000D01*
X96456661Y-85101000D01*
X96411323Y-85096535D01*
X96373636Y-85085102D01*
X96338897Y-85066534D01*
X96308452Y-85041548D01*
X96283466Y-85011103D01*
X96264898Y-84976364D01*
X96253465Y-84938677D01*
X96249000Y-84893339D01*
X96249000Y-84056661D01*
X96253465Y-84011323D01*
X96264898Y-83973636D01*
X96283466Y-83938897D01*
X96308452Y-83908452D01*
X96338897Y-83883466D01*
X96373636Y-83864898D01*
X96411323Y-83853465D01*
X96456661Y-83849000D01*
X97543339Y-83849000D01*
X97588677Y-83853465D01*
X97588677Y-83853465D01*
G37*
G36*
X90051000Y-84301000D02*
X88949000Y-84301000D01*
X88949000Y-83199000D01*
X90051000Y-83199000D01*
X90051000Y-84301000D01*
X90051000Y-84301000D01*
G37*
G36*
X87551000Y-84301000D02*
X86449000Y-84301000D01*
X86449000Y-83199000D01*
X87551000Y-83199000D01*
X87551000Y-84301000D01*
X87551000Y-84301000D01*
G37*
G36*
X95051000Y-84051000D02*
X93949000Y-84051000D01*
X93949000Y-82949000D01*
X95051000Y-82949000D01*
X95051000Y-84051000D01*
X95051000Y-84051000D01*
G37*
G36*
X92551000Y-84051000D02*
X91449000Y-84051000D01*
X91449000Y-82949000D01*
X92551000Y-82949000D01*
X92551000Y-84051000D01*
X92551000Y-84051000D01*
G37*
G36*
X175639416Y-81930336D02*
X175677103Y-81941769D01*
X175711842Y-81960337D01*
X175742287Y-81985323D01*
X175767273Y-82015768D01*
X175785841Y-82050507D01*
X175797274Y-82088194D01*
X175801739Y-82133532D01*
X175801739Y-82970210D01*
X175797274Y-83015548D01*
X175785841Y-83053235D01*
X175767273Y-83087974D01*
X175742287Y-83118419D01*
X175711842Y-83143405D01*
X175677103Y-83161973D01*
X175639416Y-83173406D01*
X175594078Y-83177871D01*
X174507400Y-83177871D01*
X174462062Y-83173406D01*
X174424375Y-83161973D01*
X174389636Y-83143405D01*
X174359191Y-83118419D01*
X174334205Y-83087974D01*
X174315637Y-83053235D01*
X174304204Y-83015548D01*
X174299739Y-82970210D01*
X174299739Y-82133532D01*
X174304204Y-82088194D01*
X174315637Y-82050507D01*
X174334205Y-82015768D01*
X174359191Y-81985323D01*
X174389636Y-81960337D01*
X174424375Y-81941769D01*
X174462062Y-81930336D01*
X174507400Y-81925871D01*
X175594078Y-81925871D01*
X175639416Y-81930336D01*
X175639416Y-81930336D01*
G37*
G36*
X182639416Y-81930335D02*
X182677103Y-81941768D01*
X182711842Y-81960336D01*
X182742287Y-81985322D01*
X182767273Y-82015767D01*
X182785841Y-82050506D01*
X182797274Y-82088193D01*
X182801739Y-82133531D01*
X182801739Y-82970209D01*
X182797274Y-83015547D01*
X182785841Y-83053234D01*
X182767273Y-83087973D01*
X182742287Y-83118418D01*
X182711842Y-83143404D01*
X182677103Y-83161972D01*
X182639416Y-83173405D01*
X182594078Y-83177870D01*
X181507400Y-83177870D01*
X181462062Y-83173405D01*
X181424375Y-83161972D01*
X181389636Y-83143404D01*
X181359191Y-83118418D01*
X181334205Y-83087973D01*
X181315637Y-83053234D01*
X181304204Y-83015547D01*
X181299739Y-82970209D01*
X181299739Y-82133531D01*
X181304204Y-82088193D01*
X181315637Y-82050506D01*
X181334205Y-82015767D01*
X181359191Y-81985322D01*
X181389636Y-81960336D01*
X181424375Y-81941768D01*
X181462062Y-81930335D01*
X181507400Y-81925870D01*
X182594078Y-81925870D01*
X182639416Y-81930335D01*
X182639416Y-81930335D01*
G37*
G36*
X178051739Y-82927870D02*
X177049739Y-82927870D01*
X177049739Y-82025870D01*
X178051739Y-82025870D01*
X178051739Y-82927870D01*
X178051739Y-82927870D01*
G37*
G36*
X185051739Y-82927870D02*
X184049739Y-82927870D01*
X184049739Y-82025870D01*
X185051739Y-82025870D01*
X185051739Y-82927870D01*
X185051739Y-82927870D01*
G37*
G36*
X83610442Y-80975518D02*
X83676627Y-80982037D01*
X83758619Y-81006909D01*
X83846467Y-81033557D01*
X83937098Y-81082001D01*
X84002991Y-81117222D01*
X84038729Y-81146552D01*
X84140186Y-81229814D01*
X84223448Y-81331271D01*
X84252778Y-81367009D01*
X84252779Y-81367011D01*
X84336443Y-81523533D01*
X84336443Y-81523534D01*
X84387963Y-81693373D01*
X84405359Y-81870000D01*
X84387963Y-82046627D01*
X84361601Y-82133531D01*
X84336443Y-82216467D01*
X84262348Y-82355087D01*
X84252778Y-82372991D01*
X84223448Y-82408729D01*
X84140186Y-82510186D01*
X84062427Y-82574000D01*
X84002991Y-82622778D01*
X84002989Y-82622779D01*
X83846467Y-82706443D01*
X83789853Y-82723616D01*
X83676627Y-82757963D01*
X83610443Y-82764481D01*
X83544260Y-82771000D01*
X83455740Y-82771000D01*
X83389557Y-82764481D01*
X83323373Y-82757963D01*
X83210147Y-82723616D01*
X83153533Y-82706443D01*
X82997011Y-82622779D01*
X82997009Y-82622778D01*
X82937573Y-82574000D01*
X82859814Y-82510186D01*
X82776552Y-82408729D01*
X82747222Y-82372991D01*
X82737652Y-82355087D01*
X82663557Y-82216467D01*
X82638399Y-82133531D01*
X82612037Y-82046627D01*
X82594641Y-81870000D01*
X82612037Y-81693373D01*
X82663557Y-81523534D01*
X82663557Y-81523533D01*
X82747221Y-81367011D01*
X82747222Y-81367009D01*
X82776552Y-81331271D01*
X82859814Y-81229814D01*
X82961271Y-81146552D01*
X82997009Y-81117222D01*
X83062902Y-81082001D01*
X83153533Y-81033557D01*
X83241381Y-81006909D01*
X83323373Y-80982037D01*
X83389558Y-80975518D01*
X83455740Y-80969000D01*
X83544260Y-80969000D01*
X83610442Y-80975518D01*
X83610442Y-80975518D01*
G37*
G36*
X163401000Y-82701000D02*
X162299000Y-82701000D01*
X162299000Y-81599000D01*
X163401000Y-81599000D01*
X163401000Y-82701000D01*
X163401000Y-82701000D01*
G37*
G36*
X169801000Y-82701000D02*
X168699000Y-82701000D01*
X168699000Y-81599000D01*
X169801000Y-81599000D01*
X169801000Y-82701000D01*
X169801000Y-82701000D01*
G37*
G36*
X167301000Y-82701000D02*
X166199000Y-82701000D01*
X166199000Y-81599000D01*
X167301000Y-81599000D01*
X167301000Y-82701000D01*
X167301000Y-82701000D01*
G37*
G36*
X160901000Y-82701000D02*
X159799000Y-82701000D01*
X159799000Y-81599000D01*
X160901000Y-81599000D01*
X160901000Y-82701000D01*
X160901000Y-82701000D01*
G37*
G36*
X98738677Y-80503465D02*
X98776364Y-80514898D01*
X98811103Y-80533466D01*
X98841548Y-80558452D01*
X98866534Y-80588897D01*
X98885102Y-80623636D01*
X98896535Y-80661323D01*
X98901000Y-80706661D01*
X98901000Y-81793339D01*
X98896535Y-81838677D01*
X98885102Y-81876364D01*
X98866534Y-81911103D01*
X98841548Y-81941548D01*
X98811103Y-81966534D01*
X98776364Y-81985102D01*
X98738677Y-81996535D01*
X98693339Y-82001000D01*
X97856661Y-82001000D01*
X97811323Y-81996535D01*
X97773636Y-81985102D01*
X97738897Y-81966534D01*
X97708452Y-81941548D01*
X97683466Y-81911103D01*
X97664898Y-81876364D01*
X97653465Y-81838677D01*
X97649000Y-81793339D01*
X97649000Y-80706661D01*
X97653465Y-80661323D01*
X97664898Y-80623636D01*
X97683466Y-80588897D01*
X97708452Y-80558452D01*
X97738897Y-80533466D01*
X97773636Y-80514898D01*
X97811323Y-80503465D01*
X97856661Y-80499000D01*
X98693339Y-80499000D01*
X98738677Y-80503465D01*
X98738677Y-80503465D01*
G37*
G36*
X96688677Y-80503465D02*
X96726364Y-80514898D01*
X96761103Y-80533466D01*
X96791548Y-80558452D01*
X96816534Y-80588897D01*
X96835102Y-80623636D01*
X96846535Y-80661323D01*
X96851000Y-80706661D01*
X96851000Y-81793339D01*
X96846535Y-81838677D01*
X96835102Y-81876364D01*
X96816534Y-81911103D01*
X96791548Y-81941548D01*
X96761103Y-81966534D01*
X96726364Y-81985102D01*
X96688677Y-81996535D01*
X96643339Y-82001000D01*
X95806661Y-82001000D01*
X95761323Y-81996535D01*
X95723636Y-81985102D01*
X95688897Y-81966534D01*
X95658452Y-81941548D01*
X95633466Y-81911103D01*
X95614898Y-81876364D01*
X95603465Y-81838677D01*
X95599000Y-81793339D01*
X95599000Y-80706661D01*
X95603465Y-80661323D01*
X95614898Y-80623636D01*
X95633466Y-80588897D01*
X95658452Y-80558452D01*
X95688897Y-80533466D01*
X95723636Y-80514898D01*
X95761323Y-80503465D01*
X95806661Y-80499000D01*
X96643339Y-80499000D01*
X96688677Y-80503465D01*
X96688677Y-80503465D01*
G37*
G36*
X180051739Y-81977870D02*
X179049739Y-81977870D01*
X179049739Y-81075870D01*
X180051739Y-81075870D01*
X180051739Y-81977870D01*
X180051739Y-81977870D01*
G37*
G36*
X187051739Y-81977870D02*
X186049739Y-81977870D01*
X186049739Y-81075870D01*
X187051739Y-81075870D01*
X187051739Y-81977870D01*
X187051739Y-81977870D01*
G37*
G36*
X88451000Y-81251000D02*
X87549000Y-81251000D01*
X87549000Y-80249000D01*
X88451000Y-80249000D01*
X88451000Y-81251000D01*
X88451000Y-81251000D01*
G37*
G36*
X94501000Y-81151000D02*
X93499000Y-81151000D01*
X93499000Y-80249000D01*
X94501000Y-80249000D01*
X94501000Y-81151000D01*
X94501000Y-81151000D01*
G37*
G36*
X175639416Y-79880336D02*
X175677103Y-79891769D01*
X175711842Y-79910337D01*
X175742287Y-79935323D01*
X175767273Y-79965768D01*
X175785841Y-80000507D01*
X175797274Y-80038194D01*
X175801739Y-80083532D01*
X175801739Y-80920210D01*
X175797274Y-80965548D01*
X175785841Y-81003235D01*
X175767273Y-81037974D01*
X175742287Y-81068419D01*
X175711842Y-81093405D01*
X175677103Y-81111973D01*
X175639416Y-81123406D01*
X175594078Y-81127871D01*
X174507400Y-81127871D01*
X174462062Y-81123406D01*
X174424375Y-81111973D01*
X174389636Y-81093405D01*
X174359191Y-81068419D01*
X174334205Y-81037974D01*
X174315637Y-81003235D01*
X174304204Y-80965548D01*
X174299739Y-80920210D01*
X174299739Y-80083532D01*
X174304204Y-80038194D01*
X174315637Y-80000507D01*
X174334205Y-79965768D01*
X174359191Y-79935323D01*
X174389636Y-79910337D01*
X174424375Y-79891769D01*
X174462062Y-79880336D01*
X174507400Y-79875871D01*
X175594078Y-79875871D01*
X175639416Y-79880336D01*
X175639416Y-79880336D01*
G37*
G36*
X182639416Y-79880335D02*
X182677103Y-79891768D01*
X182711842Y-79910336D01*
X182742287Y-79935322D01*
X182767273Y-79965767D01*
X182785841Y-80000506D01*
X182797274Y-80038193D01*
X182801739Y-80083531D01*
X182801739Y-80920209D01*
X182797274Y-80965547D01*
X182785841Y-81003234D01*
X182767273Y-81037973D01*
X182742287Y-81068418D01*
X182711842Y-81093404D01*
X182677103Y-81111972D01*
X182639416Y-81123405D01*
X182594078Y-81127870D01*
X181507400Y-81127870D01*
X181462062Y-81123405D01*
X181424375Y-81111972D01*
X181389636Y-81093404D01*
X181359191Y-81068418D01*
X181334205Y-81037973D01*
X181315637Y-81003234D01*
X181304204Y-80965547D01*
X181299739Y-80920209D01*
X181299739Y-80083531D01*
X181304204Y-80038193D01*
X181315637Y-80000506D01*
X181334205Y-79965767D01*
X181359191Y-79935322D01*
X181389636Y-79910336D01*
X181424375Y-79891768D01*
X181462062Y-79880335D01*
X181507400Y-79875870D01*
X182594078Y-79875870D01*
X182639416Y-79880335D01*
X182639416Y-79880335D01*
G37*
G36*
X178051739Y-81027870D02*
X177049739Y-81027870D01*
X177049739Y-80125870D01*
X178051739Y-80125870D01*
X178051739Y-81027870D01*
X178051739Y-81027870D01*
G37*
G36*
X185051739Y-81027870D02*
X184049739Y-81027870D01*
X184049739Y-80125870D01*
X185051739Y-80125870D01*
X185051739Y-81027870D01*
X185051739Y-81027870D01*
G37*
G36*
X127738677Y-79253465D02*
X127776364Y-79264898D01*
X127811103Y-79283466D01*
X127841548Y-79308452D01*
X127866534Y-79338897D01*
X127885102Y-79373636D01*
X127896535Y-79411323D01*
X127901000Y-79456661D01*
X127901000Y-80543339D01*
X127896535Y-80588677D01*
X127885102Y-80626364D01*
X127866534Y-80661103D01*
X127841548Y-80691548D01*
X127811103Y-80716534D01*
X127776364Y-80735102D01*
X127738677Y-80746535D01*
X127693339Y-80751000D01*
X126856661Y-80751000D01*
X126811323Y-80746535D01*
X126773636Y-80735102D01*
X126738897Y-80716534D01*
X126708452Y-80691548D01*
X126683466Y-80661103D01*
X126664898Y-80626364D01*
X126653465Y-80588677D01*
X126649000Y-80543339D01*
X126649000Y-79456661D01*
X126653465Y-79411323D01*
X126664898Y-79373636D01*
X126683466Y-79338897D01*
X126708452Y-79308452D01*
X126738897Y-79283466D01*
X126773636Y-79264898D01*
X126811323Y-79253465D01*
X126856661Y-79249000D01*
X127693339Y-79249000D01*
X127738677Y-79253465D01*
X127738677Y-79253465D01*
G37*
G36*
X125688677Y-79253465D02*
X125726364Y-79264898D01*
X125761103Y-79283466D01*
X125791548Y-79308452D01*
X125816534Y-79338897D01*
X125835102Y-79373636D01*
X125846535Y-79411323D01*
X125851000Y-79456661D01*
X125851000Y-80543339D01*
X125846535Y-80588677D01*
X125835102Y-80626364D01*
X125816534Y-80661103D01*
X125791548Y-80691548D01*
X125761103Y-80716534D01*
X125726364Y-80735102D01*
X125688677Y-80746535D01*
X125643339Y-80751000D01*
X124806661Y-80751000D01*
X124761323Y-80746535D01*
X124723636Y-80735102D01*
X124688897Y-80716534D01*
X124658452Y-80691548D01*
X124633466Y-80661103D01*
X124614898Y-80626364D01*
X124603465Y-80588677D01*
X124599000Y-80543339D01*
X124599000Y-79456661D01*
X124603465Y-79411323D01*
X124614898Y-79373636D01*
X124633466Y-79338897D01*
X124658452Y-79308452D01*
X124688897Y-79283466D01*
X124723636Y-79264898D01*
X124761323Y-79253465D01*
X124806661Y-79249000D01*
X125643339Y-79249000D01*
X125688677Y-79253465D01*
X125688677Y-79253465D01*
G37*
G36*
X133551000Y-80301000D02*
X132449000Y-80301000D01*
X132449000Y-79199000D01*
X133551000Y-79199000D01*
X133551000Y-80301000D01*
X133551000Y-80301000D01*
G37*
G36*
X83589603Y-78433466D02*
X83676627Y-78442037D01*
X83789853Y-78476384D01*
X83846467Y-78493557D01*
X83973246Y-78561323D01*
X84002991Y-78577222D01*
X84038729Y-78606552D01*
X84140186Y-78689814D01*
X84223448Y-78791271D01*
X84252778Y-78827009D01*
X84252779Y-78827011D01*
X84336443Y-78983533D01*
X84341135Y-78999000D01*
X84387963Y-79153373D01*
X84405359Y-79330000D01*
X84387963Y-79506627D01*
X84358082Y-79605131D01*
X84336443Y-79676467D01*
X84262348Y-79815087D01*
X84252778Y-79832991D01*
X84237998Y-79851000D01*
X84140186Y-79970186D01*
X84047460Y-80046283D01*
X84002991Y-80082778D01*
X84002989Y-80082779D01*
X83846467Y-80166443D01*
X83789853Y-80183616D01*
X83676627Y-80217963D01*
X83610442Y-80224482D01*
X83544260Y-80231000D01*
X83455740Y-80231000D01*
X83389558Y-80224482D01*
X83323373Y-80217963D01*
X83210147Y-80183616D01*
X83153533Y-80166443D01*
X82997011Y-80082779D01*
X82997009Y-80082778D01*
X82952540Y-80046283D01*
X82859814Y-79970186D01*
X82762002Y-79851000D01*
X82747222Y-79832991D01*
X82737652Y-79815087D01*
X82663557Y-79676467D01*
X82641918Y-79605131D01*
X82612037Y-79506627D01*
X82594641Y-79330000D01*
X82612037Y-79153373D01*
X82658865Y-78999000D01*
X82663557Y-78983533D01*
X82747221Y-78827011D01*
X82747222Y-78827009D01*
X82776552Y-78791271D01*
X82859814Y-78689814D01*
X82961271Y-78606552D01*
X82997009Y-78577222D01*
X83026754Y-78561323D01*
X83153533Y-78493557D01*
X83210147Y-78476384D01*
X83323373Y-78442037D01*
X83410397Y-78433466D01*
X83455740Y-78429000D01*
X83544260Y-78429000D01*
X83589603Y-78433466D01*
X83589603Y-78433466D01*
G37*
G36*
X92501000Y-80201000D02*
X91499000Y-80201000D01*
X91499000Y-79299000D01*
X92501000Y-79299000D01*
X92501000Y-80201000D01*
X92501000Y-80201000D01*
G37*
G36*
X144588677Y-78903465D02*
X144626364Y-78914898D01*
X144661103Y-78933466D01*
X144691548Y-78958452D01*
X144716534Y-78988897D01*
X144735102Y-79023636D01*
X144746535Y-79061323D01*
X144751000Y-79106661D01*
X144751000Y-79943339D01*
X144746535Y-79988677D01*
X144735102Y-80026364D01*
X144716534Y-80061103D01*
X144691548Y-80091548D01*
X144661103Y-80116534D01*
X144626364Y-80135102D01*
X144588677Y-80146535D01*
X144543339Y-80151000D01*
X143456661Y-80151000D01*
X143411323Y-80146535D01*
X143373636Y-80135102D01*
X143338897Y-80116534D01*
X143308452Y-80091548D01*
X143283466Y-80061103D01*
X143264898Y-80026364D01*
X143253465Y-79988677D01*
X143249000Y-79943339D01*
X143249000Y-79106661D01*
X143253465Y-79061323D01*
X143264898Y-79023636D01*
X143283466Y-78988897D01*
X143308452Y-78958452D01*
X143338897Y-78933466D01*
X143373636Y-78914898D01*
X143411323Y-78903465D01*
X143456661Y-78899000D01*
X144543339Y-78899000D01*
X144588677Y-78903465D01*
X144588677Y-78903465D01*
G37*
G36*
X136338677Y-78903465D02*
X136376364Y-78914898D01*
X136411103Y-78933466D01*
X136441548Y-78958452D01*
X136466534Y-78988897D01*
X136485102Y-79023636D01*
X136496535Y-79061323D01*
X136501000Y-79106661D01*
X136501000Y-79943339D01*
X136496535Y-79988677D01*
X136485102Y-80026364D01*
X136466534Y-80061103D01*
X136441548Y-80091548D01*
X136411103Y-80116534D01*
X136376364Y-80135102D01*
X136338677Y-80146535D01*
X136293339Y-80151000D01*
X135206661Y-80151000D01*
X135161323Y-80146535D01*
X135123636Y-80135102D01*
X135088897Y-80116534D01*
X135058452Y-80091548D01*
X135033466Y-80061103D01*
X135014898Y-80026364D01*
X135003465Y-79988677D01*
X134999000Y-79943339D01*
X134999000Y-79106661D01*
X135003465Y-79061323D01*
X135014898Y-79023636D01*
X135033466Y-78988897D01*
X135058452Y-78958452D01*
X135088897Y-78933466D01*
X135123636Y-78914898D01*
X135161323Y-78903465D01*
X135206661Y-78899000D01*
X136293339Y-78899000D01*
X136338677Y-78903465D01*
X136338677Y-78903465D01*
G37*
G36*
X130838677Y-78878466D02*
X130876364Y-78889899D01*
X130911103Y-78908467D01*
X130941548Y-78933453D01*
X130966534Y-78963898D01*
X130985102Y-78998637D01*
X130996535Y-79036324D01*
X131001000Y-79081662D01*
X131001000Y-79918340D01*
X130996535Y-79963678D01*
X130985102Y-80001365D01*
X130966534Y-80036104D01*
X130941548Y-80066549D01*
X130911103Y-80091535D01*
X130876364Y-80110103D01*
X130838677Y-80121536D01*
X130793339Y-80126001D01*
X129706661Y-80126001D01*
X129661323Y-80121536D01*
X129623636Y-80110103D01*
X129588897Y-80091535D01*
X129558452Y-80066549D01*
X129533466Y-80036104D01*
X129514898Y-80001365D01*
X129503465Y-79963678D01*
X129499000Y-79918340D01*
X129499000Y-79081662D01*
X129503465Y-79036324D01*
X129514898Y-78998637D01*
X129533466Y-78963898D01*
X129558452Y-78933453D01*
X129588897Y-78908467D01*
X129623636Y-78889899D01*
X129661323Y-78878466D01*
X129706661Y-78874001D01*
X130793339Y-78874001D01*
X130838677Y-78878466D01*
X130838677Y-78878466D01*
G37*
G36*
X157788677Y-78853465D02*
X157826364Y-78864898D01*
X157861103Y-78883466D01*
X157891548Y-78908452D01*
X157916534Y-78938897D01*
X157935102Y-78973636D01*
X157946535Y-79011323D01*
X157951000Y-79056661D01*
X157951000Y-79893339D01*
X157946535Y-79938677D01*
X157935102Y-79976364D01*
X157916534Y-80011103D01*
X157891548Y-80041548D01*
X157861103Y-80066534D01*
X157826364Y-80085102D01*
X157788677Y-80096535D01*
X157743339Y-80101000D01*
X156656661Y-80101000D01*
X156611323Y-80096535D01*
X156573636Y-80085102D01*
X156538897Y-80066534D01*
X156508452Y-80041548D01*
X156483466Y-80011103D01*
X156464898Y-79976364D01*
X156453465Y-79938677D01*
X156449000Y-79893339D01*
X156449000Y-79056661D01*
X156453465Y-79011323D01*
X156464898Y-78973636D01*
X156483466Y-78938897D01*
X156508452Y-78908452D01*
X156538897Y-78883466D01*
X156573636Y-78864898D01*
X156611323Y-78853465D01*
X156656661Y-78849000D01*
X157743339Y-78849000D01*
X157788677Y-78853465D01*
X157788677Y-78853465D01*
G37*
G36*
X164988677Y-78853465D02*
X165026364Y-78864898D01*
X165061103Y-78883466D01*
X165091548Y-78908452D01*
X165116534Y-78938897D01*
X165135102Y-78973636D01*
X165146535Y-79011323D01*
X165151000Y-79056661D01*
X165151000Y-79893339D01*
X165146535Y-79938677D01*
X165135102Y-79976364D01*
X165116534Y-80011103D01*
X165091548Y-80041548D01*
X165061103Y-80066534D01*
X165026364Y-80085102D01*
X164988677Y-80096535D01*
X164943339Y-80101000D01*
X163856661Y-80101000D01*
X163811323Y-80096535D01*
X163773636Y-80085102D01*
X163738897Y-80066534D01*
X163708452Y-80041548D01*
X163683466Y-80011103D01*
X163664898Y-79976364D01*
X163653465Y-79938677D01*
X163649000Y-79893339D01*
X163649000Y-79056661D01*
X163653465Y-79011323D01*
X163664898Y-78973636D01*
X163683466Y-78938897D01*
X163708452Y-78908452D01*
X163738897Y-78883466D01*
X163773636Y-78864898D01*
X163811323Y-78853465D01*
X163856661Y-78849000D01*
X164943339Y-78849000D01*
X164988677Y-78853465D01*
X164988677Y-78853465D01*
G37*
G36*
X152751000Y-80001000D02*
X151649000Y-80001000D01*
X151649000Y-78899000D01*
X152751000Y-78899000D01*
X152751000Y-80001000D01*
X152751000Y-80001000D01*
G37*
G36*
X147251000Y-79901000D02*
X146249000Y-79901000D01*
X146249000Y-78999000D01*
X147251000Y-78999000D01*
X147251000Y-79901000D01*
X147251000Y-79901000D01*
G37*
G36*
X141001000Y-79901000D02*
X139999000Y-79901000D01*
X139999000Y-78999000D01*
X141001000Y-78999000D01*
X141001000Y-79901000D01*
X141001000Y-79901000D01*
G37*
G36*
X160100999Y-79851000D02*
X159098999Y-79851000D01*
X159098999Y-78949000D01*
X160100999Y-78949000D01*
X160100999Y-79851000D01*
X160100999Y-79851000D01*
G37*
G36*
X167701000Y-79651001D02*
X166699000Y-79651001D01*
X166699000Y-78749001D01*
X167701000Y-78749001D01*
X167701000Y-79651001D01*
X167701000Y-79651001D01*
G37*
G36*
X107838677Y-78403465D02*
X107876364Y-78414898D01*
X107911103Y-78433466D01*
X107941548Y-78458452D01*
X107966534Y-78488897D01*
X107985102Y-78523636D01*
X107996535Y-78561323D01*
X108001000Y-78606661D01*
X108001000Y-79443339D01*
X107996535Y-79488677D01*
X107985102Y-79526364D01*
X107966534Y-79561103D01*
X107941548Y-79591548D01*
X107911103Y-79616534D01*
X107876364Y-79635102D01*
X107838677Y-79646535D01*
X107793339Y-79651000D01*
X106706661Y-79651000D01*
X106661323Y-79646535D01*
X106623636Y-79635102D01*
X106588897Y-79616534D01*
X106558452Y-79591548D01*
X106533466Y-79561103D01*
X106514898Y-79526364D01*
X106503465Y-79488677D01*
X106499000Y-79443339D01*
X106499000Y-78606661D01*
X106503465Y-78561323D01*
X106514898Y-78523636D01*
X106533466Y-78488897D01*
X106558452Y-78458452D01*
X106588897Y-78433466D01*
X106623636Y-78414898D01*
X106661323Y-78403465D01*
X106706661Y-78399000D01*
X107793339Y-78399000D01*
X107838677Y-78403465D01*
X107838677Y-78403465D01*
G37*
G36*
X96713676Y-78003465D02*
X96751363Y-78014898D01*
X96786102Y-78033466D01*
X96816547Y-78058452D01*
X96841533Y-78088897D01*
X96860101Y-78123636D01*
X96871534Y-78161323D01*
X96875999Y-78206661D01*
X96875999Y-79293339D01*
X96871534Y-79338677D01*
X96860101Y-79376364D01*
X96841533Y-79411103D01*
X96816547Y-79441548D01*
X96786102Y-79466534D01*
X96751363Y-79485102D01*
X96713676Y-79496535D01*
X96668338Y-79501000D01*
X95831660Y-79501000D01*
X95786322Y-79496535D01*
X95748635Y-79485102D01*
X95713896Y-79466534D01*
X95683451Y-79441548D01*
X95658465Y-79411103D01*
X95639897Y-79376364D01*
X95628464Y-79338677D01*
X95623999Y-79293339D01*
X95623999Y-78206661D01*
X95628464Y-78161323D01*
X95639897Y-78123636D01*
X95658465Y-78088897D01*
X95683451Y-78058452D01*
X95713896Y-78033466D01*
X95748635Y-78014898D01*
X95786322Y-78003465D01*
X95831660Y-77999000D01*
X96668338Y-77999000D01*
X96713676Y-78003465D01*
X96713676Y-78003465D01*
G37*
G36*
X98763676Y-78003465D02*
X98801363Y-78014898D01*
X98836102Y-78033466D01*
X98866547Y-78058452D01*
X98891533Y-78088897D01*
X98910101Y-78123636D01*
X98921534Y-78161323D01*
X98925999Y-78206661D01*
X98925999Y-79293339D01*
X98921534Y-79338677D01*
X98910101Y-79376364D01*
X98891533Y-79411103D01*
X98866547Y-79441548D01*
X98836102Y-79466534D01*
X98801363Y-79485102D01*
X98763676Y-79496535D01*
X98718338Y-79501000D01*
X97881660Y-79501000D01*
X97836322Y-79496535D01*
X97798635Y-79485102D01*
X97763896Y-79466534D01*
X97733451Y-79441548D01*
X97708465Y-79411103D01*
X97689897Y-79376364D01*
X97678464Y-79338677D01*
X97673999Y-79293339D01*
X97673999Y-78206661D01*
X97678464Y-78161323D01*
X97689897Y-78123636D01*
X97708465Y-78088897D01*
X97733451Y-78058452D01*
X97763896Y-78033466D01*
X97798635Y-78014898D01*
X97836322Y-78003465D01*
X97881660Y-77999000D01*
X98718338Y-77999000D01*
X98763676Y-78003465D01*
X98763676Y-78003465D01*
G37*
G36*
X120426000Y-79351000D02*
X112574000Y-79351000D01*
X112574000Y-78249000D01*
X120426000Y-78249000D01*
X120426000Y-79351000D01*
X120426000Y-79351000D01*
G37*
G36*
X89401000Y-79251000D02*
X88499000Y-79251000D01*
X88499000Y-78249000D01*
X89401000Y-78249000D01*
X89401000Y-79251000D01*
X89401000Y-79251000D01*
G37*
G36*
X87501000Y-79251000D02*
X86599000Y-79251000D01*
X86599000Y-78249000D01*
X87501000Y-78249000D01*
X87501000Y-79251000D01*
X87501000Y-79251000D01*
G37*
G36*
X94501000Y-79251000D02*
X93499000Y-79251000D01*
X93499000Y-78349000D01*
X94501000Y-78349000D01*
X94501000Y-79251000D01*
X94501000Y-79251000D01*
G37*
G36*
X139001000Y-78951000D02*
X137999000Y-78951000D01*
X137999000Y-78049000D01*
X139001000Y-78049000D01*
X139001000Y-78951000D01*
X139001000Y-78951000D01*
G37*
G36*
X149251000Y-78951000D02*
X148249000Y-78951000D01*
X148249000Y-78049000D01*
X149251000Y-78049000D01*
X149251000Y-78951000D01*
X149251000Y-78951000D01*
G37*
G36*
X162100999Y-78901000D02*
X161098999Y-78901000D01*
X161098999Y-77999000D01*
X162100999Y-77999000D01*
X162100999Y-78901000D01*
X162100999Y-78901000D01*
G37*
G36*
X169701000Y-78701001D02*
X168699000Y-78701001D01*
X168699000Y-77799001D01*
X169701000Y-77799001D01*
X169701000Y-78701001D01*
X169701000Y-78701001D01*
G37*
G36*
X136338677Y-76853465D02*
X136376364Y-76864898D01*
X136411103Y-76883466D01*
X136441548Y-76908452D01*
X136466534Y-76938897D01*
X136485102Y-76973636D01*
X136496535Y-77011323D01*
X136501000Y-77056661D01*
X136501000Y-77893339D01*
X136496535Y-77938677D01*
X136485102Y-77976364D01*
X136466534Y-78011103D01*
X136441548Y-78041548D01*
X136411103Y-78066534D01*
X136376364Y-78085102D01*
X136338677Y-78096535D01*
X136293339Y-78101000D01*
X135206661Y-78101000D01*
X135161323Y-78096535D01*
X135123636Y-78085102D01*
X135088897Y-78066534D01*
X135058452Y-78041548D01*
X135033466Y-78011103D01*
X135014898Y-77976364D01*
X135003465Y-77938677D01*
X134999000Y-77893339D01*
X134999000Y-77056661D01*
X135003465Y-77011323D01*
X135014898Y-76973636D01*
X135033466Y-76938897D01*
X135058452Y-76908452D01*
X135088897Y-76883466D01*
X135123636Y-76864898D01*
X135161323Y-76853465D01*
X135206661Y-76849000D01*
X136293339Y-76849000D01*
X136338677Y-76853465D01*
X136338677Y-76853465D01*
G37*
G36*
X144588677Y-76853465D02*
X144626364Y-76864898D01*
X144661103Y-76883466D01*
X144691548Y-76908452D01*
X144716534Y-76938897D01*
X144735102Y-76973636D01*
X144746535Y-77011323D01*
X144751000Y-77056661D01*
X144751000Y-77893339D01*
X144746535Y-77938677D01*
X144735102Y-77976364D01*
X144716534Y-78011103D01*
X144691548Y-78041548D01*
X144661103Y-78066534D01*
X144626364Y-78085102D01*
X144588677Y-78096535D01*
X144543339Y-78101000D01*
X143456661Y-78101000D01*
X143411323Y-78096535D01*
X143373636Y-78085102D01*
X143338897Y-78066534D01*
X143308452Y-78041548D01*
X143283466Y-78011103D01*
X143264898Y-77976364D01*
X143253465Y-77938677D01*
X143249000Y-77893339D01*
X143249000Y-77056661D01*
X143253465Y-77011323D01*
X143264898Y-76973636D01*
X143283466Y-76938897D01*
X143308452Y-76908452D01*
X143338897Y-76883466D01*
X143373636Y-76864898D01*
X143411323Y-76853465D01*
X143456661Y-76849000D01*
X144543339Y-76849000D01*
X144588677Y-76853465D01*
X144588677Y-76853465D01*
G37*
G36*
X130838677Y-76828466D02*
X130876364Y-76839899D01*
X130911103Y-76858467D01*
X130941548Y-76883453D01*
X130966534Y-76913898D01*
X130985102Y-76948637D01*
X130996535Y-76986324D01*
X131001000Y-77031662D01*
X131001000Y-77868340D01*
X130996535Y-77913678D01*
X130985102Y-77951365D01*
X130966534Y-77986104D01*
X130941548Y-78016549D01*
X130911103Y-78041535D01*
X130876364Y-78060103D01*
X130838677Y-78071536D01*
X130793339Y-78076001D01*
X129706661Y-78076001D01*
X129661323Y-78071536D01*
X129623636Y-78060103D01*
X129588897Y-78041535D01*
X129558452Y-78016549D01*
X129533466Y-77986104D01*
X129514898Y-77951365D01*
X129503465Y-77913678D01*
X129499000Y-77868340D01*
X129499000Y-77031662D01*
X129503465Y-76986324D01*
X129514898Y-76948637D01*
X129533466Y-76913898D01*
X129558452Y-76883453D01*
X129588897Y-76858467D01*
X129623636Y-76839899D01*
X129661323Y-76828466D01*
X129706661Y-76824001D01*
X130793339Y-76824001D01*
X130838677Y-76828466D01*
X130838677Y-76828466D01*
G37*
G36*
X164988677Y-76803465D02*
X165026364Y-76814898D01*
X165061103Y-76833466D01*
X165091548Y-76858452D01*
X165116534Y-76888897D01*
X165135102Y-76923636D01*
X165146535Y-76961323D01*
X165151000Y-77006661D01*
X165151000Y-77843339D01*
X165146535Y-77888677D01*
X165135102Y-77926364D01*
X165116534Y-77961103D01*
X165091548Y-77991548D01*
X165061103Y-78016534D01*
X165026364Y-78035102D01*
X164988677Y-78046535D01*
X164943339Y-78051000D01*
X163856661Y-78051000D01*
X163811323Y-78046535D01*
X163773636Y-78035102D01*
X163738897Y-78016534D01*
X163708452Y-77991548D01*
X163683466Y-77961103D01*
X163664898Y-77926364D01*
X163653465Y-77888677D01*
X163649000Y-77843339D01*
X163649000Y-77006661D01*
X163653465Y-76961323D01*
X163664898Y-76923636D01*
X163683466Y-76888897D01*
X163708452Y-76858452D01*
X163738897Y-76833466D01*
X163773636Y-76814898D01*
X163811323Y-76803465D01*
X163856661Y-76799000D01*
X164943339Y-76799000D01*
X164988677Y-76803465D01*
X164988677Y-76803465D01*
G37*
G36*
X157788677Y-76803465D02*
X157826364Y-76814898D01*
X157861103Y-76833466D01*
X157891548Y-76858452D01*
X157916534Y-76888897D01*
X157935102Y-76923636D01*
X157946535Y-76961323D01*
X157951000Y-77006661D01*
X157951000Y-77843339D01*
X157946535Y-77888677D01*
X157935102Y-77926364D01*
X157916534Y-77961103D01*
X157891548Y-77991548D01*
X157861103Y-78016534D01*
X157826364Y-78035102D01*
X157788677Y-78046535D01*
X157743339Y-78051000D01*
X156656661Y-78051000D01*
X156611323Y-78046535D01*
X156573636Y-78035102D01*
X156538897Y-78016534D01*
X156508452Y-77991548D01*
X156483466Y-77961103D01*
X156464898Y-77926364D01*
X156453465Y-77888677D01*
X156449000Y-77843339D01*
X156449000Y-77006661D01*
X156453465Y-76961323D01*
X156464898Y-76923636D01*
X156483466Y-76888897D01*
X156508452Y-76858452D01*
X156538897Y-76833466D01*
X156573636Y-76814898D01*
X156611323Y-76803465D01*
X156656661Y-76799000D01*
X157743339Y-76799000D01*
X157788677Y-76803465D01*
X157788677Y-76803465D01*
G37*
G36*
X141001000Y-78001000D02*
X139999000Y-78001000D01*
X139999000Y-77099000D01*
X141001000Y-77099000D01*
X141001000Y-78001000D01*
X141001000Y-78001000D01*
G37*
G36*
X147251000Y-78001000D02*
X146249000Y-78001000D01*
X146249000Y-77099000D01*
X147251000Y-77099000D01*
X147251000Y-78001000D01*
X147251000Y-78001000D01*
G37*
G36*
X160100999Y-77951000D02*
X159098999Y-77951000D01*
X159098999Y-77049000D01*
X160100999Y-77049000D01*
X160100999Y-77951000D01*
X160100999Y-77951000D01*
G37*
G36*
X133551000Y-77801000D02*
X132449000Y-77801000D01*
X132449000Y-76699000D01*
X133551000Y-76699000D01*
X133551000Y-77801000D01*
X133551000Y-77801000D01*
G37*
G36*
X167701000Y-77751001D02*
X166699000Y-77751001D01*
X166699000Y-76849001D01*
X167701000Y-76849001D01*
X167701000Y-77751001D01*
X167701000Y-77751001D01*
G37*
G36*
X127738677Y-76253465D02*
X127776364Y-76264898D01*
X127811103Y-76283466D01*
X127841548Y-76308452D01*
X127866534Y-76338897D01*
X127885102Y-76373636D01*
X127896535Y-76411323D01*
X127901000Y-76456661D01*
X127901000Y-77543339D01*
X127896535Y-77588677D01*
X127885102Y-77626364D01*
X127866534Y-77661103D01*
X127841548Y-77691548D01*
X127811103Y-77716534D01*
X127776364Y-77735102D01*
X127738677Y-77746535D01*
X127693339Y-77751000D01*
X126856661Y-77751000D01*
X126811323Y-77746535D01*
X126773636Y-77735102D01*
X126738897Y-77716534D01*
X126708452Y-77691548D01*
X126683466Y-77661103D01*
X126664898Y-77626364D01*
X126653465Y-77588677D01*
X126649000Y-77543339D01*
X126649000Y-76456661D01*
X126653465Y-76411323D01*
X126664898Y-76373636D01*
X126683466Y-76338897D01*
X126708452Y-76308452D01*
X126738897Y-76283466D01*
X126773636Y-76264898D01*
X126811323Y-76253465D01*
X126856661Y-76249000D01*
X127693339Y-76249000D01*
X127738677Y-76253465D01*
X127738677Y-76253465D01*
G37*
G36*
X125688677Y-76253465D02*
X125726364Y-76264898D01*
X125761103Y-76283466D01*
X125791548Y-76308452D01*
X125816534Y-76338897D01*
X125835102Y-76373636D01*
X125846535Y-76411323D01*
X125851000Y-76456661D01*
X125851000Y-77543339D01*
X125846535Y-77588677D01*
X125835102Y-77626364D01*
X125816534Y-77661103D01*
X125791548Y-77691548D01*
X125761103Y-77716534D01*
X125726364Y-77735102D01*
X125688677Y-77746535D01*
X125643339Y-77751000D01*
X124806661Y-77751000D01*
X124761323Y-77746535D01*
X124723636Y-77735102D01*
X124688897Y-77716534D01*
X124658452Y-77691548D01*
X124633466Y-77661103D01*
X124614898Y-77626364D01*
X124603465Y-77588677D01*
X124599000Y-77543339D01*
X124599000Y-76456661D01*
X124603465Y-76411323D01*
X124614898Y-76373636D01*
X124633466Y-76338897D01*
X124658452Y-76308452D01*
X124688897Y-76283466D01*
X124723636Y-76264898D01*
X124761323Y-76253465D01*
X124806661Y-76249000D01*
X125643339Y-76249000D01*
X125688677Y-76253465D01*
X125688677Y-76253465D01*
G37*
G36*
X83610443Y-75895519D02*
X83676627Y-75902037D01*
X83789853Y-75936384D01*
X83846467Y-75953557D01*
X83985087Y-76027652D01*
X84002991Y-76037222D01*
X84038729Y-76066552D01*
X84140186Y-76149814D01*
X84221585Y-76249000D01*
X84252778Y-76287009D01*
X84252779Y-76287011D01*
X84336443Y-76443533D01*
X84344460Y-76469962D01*
X84387963Y-76613373D01*
X84405359Y-76790000D01*
X84387963Y-76966627D01*
X84357189Y-77068075D01*
X84336443Y-77136467D01*
X84262348Y-77275087D01*
X84252778Y-77292991D01*
X84223448Y-77328729D01*
X84140186Y-77430186D01*
X84041587Y-77511103D01*
X84002991Y-77542778D01*
X84002989Y-77542779D01*
X83846467Y-77626443D01*
X83789853Y-77643616D01*
X83676627Y-77677963D01*
X83610442Y-77684482D01*
X83544260Y-77691000D01*
X83455740Y-77691000D01*
X83389558Y-77684482D01*
X83323373Y-77677963D01*
X83210147Y-77643616D01*
X83153533Y-77626443D01*
X82997011Y-77542779D01*
X82997009Y-77542778D01*
X82958413Y-77511103D01*
X82859814Y-77430186D01*
X82776552Y-77328729D01*
X82747222Y-77292991D01*
X82737652Y-77275087D01*
X82663557Y-77136467D01*
X82642811Y-77068075D01*
X82612037Y-76966627D01*
X82594641Y-76790000D01*
X82612037Y-76613373D01*
X82655540Y-76469962D01*
X82663557Y-76443533D01*
X82747221Y-76287011D01*
X82747222Y-76287009D01*
X82778415Y-76249000D01*
X82859814Y-76149814D01*
X82961271Y-76066552D01*
X82997009Y-76037222D01*
X83014913Y-76027652D01*
X83153533Y-75953557D01*
X83210147Y-75936384D01*
X83323373Y-75902037D01*
X83389557Y-75895519D01*
X83455740Y-75889000D01*
X83544260Y-75889000D01*
X83610443Y-75895519D01*
X83610443Y-75895519D01*
G37*
G36*
X107838677Y-76353465D02*
X107876364Y-76364898D01*
X107911103Y-76383466D01*
X107941548Y-76408452D01*
X107966534Y-76438897D01*
X107985102Y-76473636D01*
X107996535Y-76511323D01*
X108001000Y-76556661D01*
X108001000Y-77393339D01*
X107996535Y-77438677D01*
X107985102Y-77476364D01*
X107966534Y-77511103D01*
X107941548Y-77541548D01*
X107911103Y-77566534D01*
X107876364Y-77585102D01*
X107838677Y-77596535D01*
X107793339Y-77601000D01*
X106706661Y-77601000D01*
X106661323Y-77596535D01*
X106623636Y-77585102D01*
X106588897Y-77566534D01*
X106558452Y-77541548D01*
X106533466Y-77511103D01*
X106514898Y-77476364D01*
X106503465Y-77438677D01*
X106499000Y-77393339D01*
X106499000Y-76556661D01*
X106503465Y-76511323D01*
X106514898Y-76473636D01*
X106533466Y-76438897D01*
X106558452Y-76408452D01*
X106588897Y-76383466D01*
X106623636Y-76364898D01*
X106661323Y-76353465D01*
X106706661Y-76349000D01*
X107793339Y-76349000D01*
X107838677Y-76353465D01*
X107838677Y-76353465D01*
G37*
G36*
X152751000Y-77501000D02*
X151649000Y-77501000D01*
X151649000Y-76399000D01*
X152751000Y-76399000D01*
X152751000Y-77501000D01*
X152751000Y-77501000D01*
G37*
G36*
X98088677Y-75653465D02*
X98126364Y-75664898D01*
X98161103Y-75683466D01*
X98191548Y-75708452D01*
X98216534Y-75738897D01*
X98235102Y-75773636D01*
X98246535Y-75811323D01*
X98251000Y-75856661D01*
X98251000Y-76693339D01*
X98246535Y-76738677D01*
X98235102Y-76776364D01*
X98216534Y-76811103D01*
X98191548Y-76841548D01*
X98161103Y-76866534D01*
X98126364Y-76885102D01*
X98088677Y-76896535D01*
X98043339Y-76901000D01*
X96956661Y-76901000D01*
X96911323Y-76896535D01*
X96873636Y-76885102D01*
X96838897Y-76866534D01*
X96808452Y-76841548D01*
X96783466Y-76811103D01*
X96764898Y-76776364D01*
X96753465Y-76738677D01*
X96749000Y-76693339D01*
X96749000Y-75856661D01*
X96753465Y-75811323D01*
X96764898Y-75773636D01*
X96783466Y-75738897D01*
X96808452Y-75708452D01*
X96838897Y-75683466D01*
X96873636Y-75664898D01*
X96911323Y-75653465D01*
X96956661Y-75649000D01*
X98043339Y-75649000D01*
X98088677Y-75653465D01*
X98088677Y-75653465D01*
G37*
G36*
X87551000Y-76801000D02*
X86449000Y-76801000D01*
X86449000Y-75699000D01*
X87551000Y-75699000D01*
X87551000Y-76801000D01*
X87551000Y-76801000D01*
G37*
G36*
X90051000Y-76801000D02*
X88949000Y-76801000D01*
X88949000Y-75699000D01*
X90051000Y-75699000D01*
X90051000Y-76801000D01*
X90051000Y-76801000D01*
G37*
G36*
X95051000Y-76551000D02*
X93949000Y-76551000D01*
X93949000Y-75449000D01*
X95051000Y-75449000D01*
X95051000Y-76551000D01*
X95051000Y-76551000D01*
G37*
G36*
X92551000Y-76551000D02*
X91449000Y-76551000D01*
X91449000Y-75449000D01*
X92551000Y-75449000D01*
X92551000Y-76551000D01*
X92551000Y-76551000D01*
G37*
G36*
X113738677Y-74003465D02*
X113776364Y-74014898D01*
X113811103Y-74033466D01*
X113841548Y-74058452D01*
X113866534Y-74088897D01*
X113885102Y-74123636D01*
X113896535Y-74161323D01*
X113901000Y-74206661D01*
X113901000Y-75293339D01*
X113896535Y-75338677D01*
X113885102Y-75376364D01*
X113866534Y-75411103D01*
X113841548Y-75441548D01*
X113811103Y-75466534D01*
X113776364Y-75485102D01*
X113738677Y-75496535D01*
X113693339Y-75501000D01*
X112856661Y-75501000D01*
X112811323Y-75496535D01*
X112773636Y-75485102D01*
X112738897Y-75466534D01*
X112708452Y-75441548D01*
X112683466Y-75411103D01*
X112664898Y-75376364D01*
X112653465Y-75338677D01*
X112649000Y-75293339D01*
X112649000Y-74206661D01*
X112653465Y-74161323D01*
X112664898Y-74123636D01*
X112683466Y-74088897D01*
X112708452Y-74058452D01*
X112738897Y-74033466D01*
X112773636Y-74014898D01*
X112811323Y-74003465D01*
X112856661Y-73999000D01*
X113693339Y-73999000D01*
X113738677Y-74003465D01*
X113738677Y-74003465D01*
G37*
G36*
X111688677Y-74003465D02*
X111726364Y-74014898D01*
X111761103Y-74033466D01*
X111791548Y-74058452D01*
X111816534Y-74088897D01*
X111835102Y-74123636D01*
X111846535Y-74161323D01*
X111851000Y-74206661D01*
X111851000Y-75293339D01*
X111846535Y-75338677D01*
X111835102Y-75376364D01*
X111816534Y-75411103D01*
X111791548Y-75441548D01*
X111761103Y-75466534D01*
X111726364Y-75485102D01*
X111688677Y-75496535D01*
X111643339Y-75501000D01*
X110806661Y-75501000D01*
X110761323Y-75496535D01*
X110723636Y-75485102D01*
X110688897Y-75466534D01*
X110658452Y-75441548D01*
X110633466Y-75411103D01*
X110614898Y-75376364D01*
X110603465Y-75338677D01*
X110599000Y-75293339D01*
X110599000Y-74206661D01*
X110603465Y-74161323D01*
X110614898Y-74123636D01*
X110633466Y-74088897D01*
X110658452Y-74058452D01*
X110688897Y-74033466D01*
X110723636Y-74014898D01*
X110761323Y-74003465D01*
X110806661Y-73999000D01*
X111643339Y-73999000D01*
X111688677Y-74003465D01*
X111688677Y-74003465D01*
G37*
G36*
X136838677Y-74153465D02*
X136876364Y-74164898D01*
X136911103Y-74183466D01*
X136941548Y-74208452D01*
X136966534Y-74238897D01*
X136985102Y-74273636D01*
X136996535Y-74311323D01*
X137001000Y-74356661D01*
X137001000Y-75193339D01*
X136996535Y-75238677D01*
X136985102Y-75276364D01*
X136966534Y-75311103D01*
X136941548Y-75341548D01*
X136911103Y-75366534D01*
X136876364Y-75385102D01*
X136838677Y-75396535D01*
X136793339Y-75401000D01*
X135706661Y-75401000D01*
X135661323Y-75396535D01*
X135623636Y-75385102D01*
X135588897Y-75366534D01*
X135558452Y-75341548D01*
X135533466Y-75311103D01*
X135514898Y-75276364D01*
X135503465Y-75238677D01*
X135499000Y-75193339D01*
X135499000Y-74356661D01*
X135503465Y-74311323D01*
X135514898Y-74273636D01*
X135533466Y-74238897D01*
X135558452Y-74208452D01*
X135588897Y-74183466D01*
X135623636Y-74164898D01*
X135661323Y-74153465D01*
X135706661Y-74149000D01*
X136793339Y-74149000D01*
X136838677Y-74153465D01*
X136838677Y-74153465D01*
G37*
G36*
X176765547Y-73702726D02*
X176803234Y-73714159D01*
X176837973Y-73732727D01*
X176868418Y-73757713D01*
X176893404Y-73788158D01*
X176911972Y-73822897D01*
X176923405Y-73860584D01*
X176927870Y-73905922D01*
X176927870Y-74992600D01*
X176923405Y-75037938D01*
X176911972Y-75075625D01*
X176893404Y-75110364D01*
X176868418Y-75140809D01*
X176837973Y-75165795D01*
X176803234Y-75184363D01*
X176765547Y-75195796D01*
X176720209Y-75200261D01*
X175883531Y-75200261D01*
X175838193Y-75195796D01*
X175800506Y-75184363D01*
X175765767Y-75165795D01*
X175735322Y-75140809D01*
X175710336Y-75110364D01*
X175691768Y-75075625D01*
X175680335Y-75037938D01*
X175675870Y-74992600D01*
X175675870Y-73905922D01*
X175680335Y-73860584D01*
X175691768Y-73822897D01*
X175710336Y-73788158D01*
X175735322Y-73757713D01*
X175765767Y-73732727D01*
X175800506Y-73714159D01*
X175838193Y-73702726D01*
X175883531Y-73698261D01*
X176720209Y-73698261D01*
X176765547Y-73702726D01*
X176765547Y-73702726D01*
G37*
G36*
X174715547Y-73702726D02*
X174753234Y-73714159D01*
X174787973Y-73732727D01*
X174818418Y-73757713D01*
X174843404Y-73788158D01*
X174861972Y-73822897D01*
X174873405Y-73860584D01*
X174877870Y-73905922D01*
X174877870Y-74992600D01*
X174873405Y-75037938D01*
X174861972Y-75075625D01*
X174843404Y-75110364D01*
X174818418Y-75140809D01*
X174787973Y-75165795D01*
X174753234Y-75184363D01*
X174715547Y-75195796D01*
X174670209Y-75200261D01*
X173833531Y-75200261D01*
X173788193Y-75195796D01*
X173750506Y-75184363D01*
X173715767Y-75165795D01*
X173685322Y-75140809D01*
X173660336Y-75110364D01*
X173641768Y-75075625D01*
X173630335Y-75037938D01*
X173625870Y-74992600D01*
X173625870Y-73905922D01*
X173630335Y-73860584D01*
X173641768Y-73822897D01*
X173660336Y-73788158D01*
X173685322Y-73757713D01*
X173715767Y-73732727D01*
X173750506Y-73714159D01*
X173788193Y-73702726D01*
X173833531Y-73698261D01*
X174670209Y-73698261D01*
X174715547Y-73702726D01*
X174715547Y-73702726D01*
G37*
G36*
X84401000Y-75151000D02*
X82599000Y-75151000D01*
X82599000Y-73349000D01*
X84401000Y-73349000D01*
X84401000Y-75151000D01*
X84401000Y-75151000D01*
G37*
G36*
X168888677Y-73653465D02*
X168926364Y-73664898D01*
X168961103Y-73683466D01*
X168991548Y-73708452D01*
X169016534Y-73738897D01*
X169035102Y-73773636D01*
X169046535Y-73811323D01*
X169051000Y-73856661D01*
X169051000Y-74943339D01*
X169046535Y-74988677D01*
X169035102Y-75026364D01*
X169016534Y-75061103D01*
X168991548Y-75091548D01*
X168961103Y-75116534D01*
X168926364Y-75135102D01*
X168888677Y-75146535D01*
X168843339Y-75151000D01*
X168006661Y-75151000D01*
X167961323Y-75146535D01*
X167923636Y-75135102D01*
X167888897Y-75116534D01*
X167858452Y-75091548D01*
X167833466Y-75061103D01*
X167814898Y-75026364D01*
X167803465Y-74988677D01*
X167799000Y-74943339D01*
X167799000Y-73856661D01*
X167803465Y-73811323D01*
X167814898Y-73773636D01*
X167833466Y-73738897D01*
X167858452Y-73708452D01*
X167888897Y-73683466D01*
X167923636Y-73664898D01*
X167961323Y-73653465D01*
X168006661Y-73649000D01*
X168843339Y-73649000D01*
X168888677Y-73653465D01*
X168888677Y-73653465D01*
G37*
G36*
X166838677Y-73653465D02*
X166876364Y-73664898D01*
X166911103Y-73683466D01*
X166941548Y-73708452D01*
X166966534Y-73738897D01*
X166985102Y-73773636D01*
X166996535Y-73811323D01*
X167001000Y-73856661D01*
X167001000Y-74943339D01*
X166996535Y-74988677D01*
X166985102Y-75026364D01*
X166966534Y-75061103D01*
X166941548Y-75091548D01*
X166911103Y-75116534D01*
X166876364Y-75135102D01*
X166838677Y-75146535D01*
X166793339Y-75151000D01*
X165956661Y-75151000D01*
X165911323Y-75146535D01*
X165873636Y-75135102D01*
X165838897Y-75116534D01*
X165808452Y-75091548D01*
X165783466Y-75061103D01*
X165764898Y-75026364D01*
X165753465Y-74988677D01*
X165749000Y-74943339D01*
X165749000Y-73856661D01*
X165753465Y-73811323D01*
X165764898Y-73773636D01*
X165783466Y-73738897D01*
X165808452Y-73708452D01*
X165838897Y-73683466D01*
X165873636Y-73664898D01*
X165911323Y-73653465D01*
X165956661Y-73649000D01*
X166793339Y-73649000D01*
X166838677Y-73653465D01*
X166838677Y-73653465D01*
G37*
G36*
X184488677Y-73503465D02*
X184526364Y-73514898D01*
X184561103Y-73533466D01*
X184591548Y-73558452D01*
X184616534Y-73588897D01*
X184635102Y-73623636D01*
X184646535Y-73661323D01*
X184651000Y-73706661D01*
X184651000Y-74793339D01*
X184646535Y-74838677D01*
X184635102Y-74876364D01*
X184616534Y-74911103D01*
X184591548Y-74941548D01*
X184561103Y-74966534D01*
X184526364Y-74985102D01*
X184488677Y-74996535D01*
X184443339Y-75001000D01*
X183606661Y-75001000D01*
X183561323Y-74996535D01*
X183523636Y-74985102D01*
X183488897Y-74966534D01*
X183458452Y-74941548D01*
X183433466Y-74911103D01*
X183414898Y-74876364D01*
X183403465Y-74838677D01*
X183399000Y-74793339D01*
X183399000Y-73706661D01*
X183403465Y-73661323D01*
X183414898Y-73623636D01*
X183433466Y-73588897D01*
X183458452Y-73558452D01*
X183488897Y-73533466D01*
X183523636Y-73514898D01*
X183561323Y-73503465D01*
X183606661Y-73499000D01*
X184443339Y-73499000D01*
X184488677Y-73503465D01*
X184488677Y-73503465D01*
G37*
G36*
X182438677Y-73503465D02*
X182476364Y-73514898D01*
X182511103Y-73533466D01*
X182541548Y-73558452D01*
X182566534Y-73588897D01*
X182585102Y-73623636D01*
X182596535Y-73661323D01*
X182601000Y-73706661D01*
X182601000Y-74793339D01*
X182596535Y-74838677D01*
X182585102Y-74876364D01*
X182566534Y-74911103D01*
X182541548Y-74941548D01*
X182511103Y-74966534D01*
X182476364Y-74985102D01*
X182438677Y-74996535D01*
X182393339Y-75001000D01*
X181556661Y-75001000D01*
X181511323Y-74996535D01*
X181473636Y-74985102D01*
X181438897Y-74966534D01*
X181408452Y-74941548D01*
X181383466Y-74911103D01*
X181364898Y-74876364D01*
X181353465Y-74838677D01*
X181349000Y-74793339D01*
X181349000Y-73706661D01*
X181353465Y-73661323D01*
X181364898Y-73623636D01*
X181383466Y-73588897D01*
X181408452Y-73558452D01*
X181438897Y-73533466D01*
X181473636Y-73514898D01*
X181511323Y-73503465D01*
X181556661Y-73499000D01*
X182393339Y-73499000D01*
X182438677Y-73503465D01*
X182438677Y-73503465D01*
G37*
G36*
X98088677Y-73603465D02*
X98126364Y-73614898D01*
X98161103Y-73633466D01*
X98191548Y-73658452D01*
X98216534Y-73688897D01*
X98235102Y-73723636D01*
X98246535Y-73761323D01*
X98251000Y-73806661D01*
X98251000Y-74643339D01*
X98246535Y-74688677D01*
X98235102Y-74726364D01*
X98216534Y-74761103D01*
X98191548Y-74791548D01*
X98161103Y-74816534D01*
X98126364Y-74835102D01*
X98088677Y-74846535D01*
X98043339Y-74851000D01*
X96956661Y-74851000D01*
X96911323Y-74846535D01*
X96873636Y-74835102D01*
X96838897Y-74816534D01*
X96808452Y-74791548D01*
X96783466Y-74761103D01*
X96764898Y-74726364D01*
X96753465Y-74688677D01*
X96749000Y-74643339D01*
X96749000Y-73806661D01*
X96753465Y-73761323D01*
X96764898Y-73723636D01*
X96783466Y-73688897D01*
X96808452Y-73658452D01*
X96838897Y-73633466D01*
X96873636Y-73614898D01*
X96911323Y-73603465D01*
X96956661Y-73599000D01*
X98043339Y-73599000D01*
X98088677Y-73603465D01*
X98088677Y-73603465D01*
G37*
G36*
X161038677Y-72453465D02*
X161076364Y-72464898D01*
X161111103Y-72483466D01*
X161141548Y-72508452D01*
X161166534Y-72538897D01*
X161185102Y-72573636D01*
X161196535Y-72611323D01*
X161201000Y-72656661D01*
X161201000Y-73743339D01*
X161196535Y-73788677D01*
X161185102Y-73826364D01*
X161166534Y-73861103D01*
X161141548Y-73891548D01*
X161111103Y-73916534D01*
X161076364Y-73935102D01*
X161038677Y-73946535D01*
X160993339Y-73951000D01*
X160156661Y-73951000D01*
X160111323Y-73946535D01*
X160073636Y-73935102D01*
X160038897Y-73916534D01*
X160008452Y-73891548D01*
X159983466Y-73861103D01*
X159964898Y-73826364D01*
X159953465Y-73788677D01*
X159949000Y-73743339D01*
X159949000Y-72656661D01*
X159953465Y-72611323D01*
X159964898Y-72573636D01*
X159983466Y-72538897D01*
X160008452Y-72508452D01*
X160038897Y-72483466D01*
X160073636Y-72464898D01*
X160111323Y-72453465D01*
X160156661Y-72449000D01*
X160993339Y-72449000D01*
X161038677Y-72453465D01*
X161038677Y-72453465D01*
G37*
G36*
X158988677Y-72453465D02*
X159026364Y-72464898D01*
X159061103Y-72483466D01*
X159091548Y-72508452D01*
X159116534Y-72538897D01*
X159135102Y-72573636D01*
X159146535Y-72611323D01*
X159151000Y-72656661D01*
X159151000Y-73743339D01*
X159146535Y-73788677D01*
X159135102Y-73826364D01*
X159116534Y-73861103D01*
X159091548Y-73891548D01*
X159061103Y-73916534D01*
X159026364Y-73935102D01*
X158988677Y-73946535D01*
X158943339Y-73951000D01*
X158106661Y-73951000D01*
X158061323Y-73946535D01*
X158023636Y-73935102D01*
X157988897Y-73916534D01*
X157958452Y-73891548D01*
X157933466Y-73861103D01*
X157914898Y-73826364D01*
X157903465Y-73788677D01*
X157899000Y-73743339D01*
X157899000Y-72656661D01*
X157903465Y-72611323D01*
X157914898Y-72573636D01*
X157933466Y-72538897D01*
X157958452Y-72508452D01*
X157988897Y-72483466D01*
X158023636Y-72464898D01*
X158061323Y-72453465D01*
X158106661Y-72449000D01*
X158943339Y-72449000D01*
X158988677Y-72453465D01*
X158988677Y-72453465D01*
G37*
G36*
X141501000Y-73901000D02*
X140499000Y-73901000D01*
X140499000Y-72999000D01*
X141501000Y-72999000D01*
X141501000Y-73901000D01*
X141501000Y-73901000D01*
G37*
G36*
X103610443Y-72055519D02*
X103676627Y-72062037D01*
X103789853Y-72096384D01*
X103846467Y-72113557D01*
X103946482Y-72167017D01*
X104002991Y-72197222D01*
X104035176Y-72223636D01*
X104140186Y-72309814D01*
X104201972Y-72385102D01*
X104252778Y-72447009D01*
X104252779Y-72447011D01*
X104336443Y-72603533D01*
X104336443Y-72603534D01*
X104387963Y-72773373D01*
X104405359Y-72950000D01*
X104387963Y-73126627D01*
X104369140Y-73188677D01*
X104336443Y-73296467D01*
X104275168Y-73411103D01*
X104252778Y-73452991D01*
X104241663Y-73466534D01*
X104140186Y-73590186D01*
X104038729Y-73673448D01*
X104002991Y-73702778D01*
X104002989Y-73702779D01*
X103846467Y-73786443D01*
X103789853Y-73803616D01*
X103676627Y-73837963D01*
X103610442Y-73844482D01*
X103544260Y-73851000D01*
X103455740Y-73851000D01*
X103389558Y-73844482D01*
X103323373Y-73837963D01*
X103210147Y-73803616D01*
X103153533Y-73786443D01*
X102997011Y-73702779D01*
X102997009Y-73702778D01*
X102961271Y-73673448D01*
X102859814Y-73590186D01*
X102758337Y-73466534D01*
X102747222Y-73452991D01*
X102724832Y-73411103D01*
X102663557Y-73296467D01*
X102630860Y-73188677D01*
X102612037Y-73126627D01*
X102594641Y-72950000D01*
X102612037Y-72773373D01*
X102663557Y-72603534D01*
X102663557Y-72603533D01*
X102747221Y-72447011D01*
X102747222Y-72447009D01*
X102798028Y-72385102D01*
X102859814Y-72309814D01*
X102964824Y-72223636D01*
X102997009Y-72197222D01*
X103053518Y-72167017D01*
X103153533Y-72113557D01*
X103210147Y-72096384D01*
X103323373Y-72062037D01*
X103389557Y-72055519D01*
X103455740Y-72049000D01*
X103544260Y-72049000D01*
X103610443Y-72055519D01*
X103610443Y-72055519D01*
G37*
G36*
X88451000Y-73751000D02*
X87549000Y-73751000D01*
X87549000Y-72749000D01*
X88451000Y-72749000D01*
X88451000Y-73751000D01*
X88451000Y-73751000D01*
G37*
G36*
X94501000Y-73651000D02*
X93499000Y-73651000D01*
X93499000Y-72749000D01*
X94501000Y-72749000D01*
X94501000Y-73651000D01*
X94501000Y-73651000D01*
G37*
G36*
X150763676Y-72003465D02*
X150801363Y-72014898D01*
X150836102Y-72033466D01*
X150866547Y-72058452D01*
X150891533Y-72088897D01*
X150910101Y-72123636D01*
X150921534Y-72161323D01*
X150925999Y-72206661D01*
X150925999Y-73293339D01*
X150921534Y-73338677D01*
X150910101Y-73376364D01*
X150891533Y-73411103D01*
X150866547Y-73441548D01*
X150836102Y-73466534D01*
X150801363Y-73485102D01*
X150763676Y-73496535D01*
X150718338Y-73501000D01*
X149881660Y-73501000D01*
X149836322Y-73496535D01*
X149798635Y-73485102D01*
X149763896Y-73466534D01*
X149733451Y-73441548D01*
X149708465Y-73411103D01*
X149689897Y-73376364D01*
X149678464Y-73338677D01*
X149673999Y-73293339D01*
X149673999Y-72206661D01*
X149678464Y-72161323D01*
X149689897Y-72123636D01*
X149708465Y-72088897D01*
X149733451Y-72058452D01*
X149763896Y-72033466D01*
X149798635Y-72014898D01*
X149836322Y-72003465D01*
X149881660Y-71999000D01*
X150718338Y-71999000D01*
X150763676Y-72003465D01*
X150763676Y-72003465D01*
G37*
G36*
X152813676Y-72003465D02*
X152851363Y-72014898D01*
X152886102Y-72033466D01*
X152916547Y-72058452D01*
X152941533Y-72088897D01*
X152960101Y-72123636D01*
X152971534Y-72161323D01*
X152975999Y-72206661D01*
X152975999Y-73293339D01*
X152971534Y-73338677D01*
X152960101Y-73376364D01*
X152941533Y-73411103D01*
X152916547Y-73441548D01*
X152886102Y-73466534D01*
X152851363Y-73485102D01*
X152813676Y-73496535D01*
X152768338Y-73501000D01*
X151931660Y-73501000D01*
X151886322Y-73496535D01*
X151848635Y-73485102D01*
X151813896Y-73466534D01*
X151783451Y-73441548D01*
X151758465Y-73411103D01*
X151739897Y-73376364D01*
X151728464Y-73338677D01*
X151723999Y-73293339D01*
X151723999Y-72206661D01*
X151728464Y-72161323D01*
X151739897Y-72123636D01*
X151758465Y-72088897D01*
X151783451Y-72058452D01*
X151813896Y-72033466D01*
X151848635Y-72014898D01*
X151886322Y-72003465D01*
X151931660Y-71999000D01*
X152768338Y-71999000D01*
X152813676Y-72003465D01*
X152813676Y-72003465D01*
G37*
G36*
X136838677Y-72103465D02*
X136876364Y-72114898D01*
X136911103Y-72133466D01*
X136941548Y-72158452D01*
X136966534Y-72188897D01*
X136985102Y-72223636D01*
X136996535Y-72261323D01*
X137001000Y-72306661D01*
X137001000Y-73143339D01*
X136996535Y-73188677D01*
X136985102Y-73226364D01*
X136966534Y-73261103D01*
X136941548Y-73291548D01*
X136911103Y-73316534D01*
X136876364Y-73335102D01*
X136838677Y-73346535D01*
X136793339Y-73351000D01*
X135706661Y-73351000D01*
X135661323Y-73346535D01*
X135623636Y-73335102D01*
X135588897Y-73316534D01*
X135558452Y-73291548D01*
X135533466Y-73261103D01*
X135514898Y-73226364D01*
X135503465Y-73188677D01*
X135499000Y-73143339D01*
X135499000Y-72306661D01*
X135503465Y-72261323D01*
X135514898Y-72223636D01*
X135533466Y-72188897D01*
X135558452Y-72158452D01*
X135588897Y-72133466D01*
X135623636Y-72114898D01*
X135661323Y-72103465D01*
X135706661Y-72099000D01*
X136793339Y-72099000D01*
X136838677Y-72103465D01*
X136838677Y-72103465D01*
G37*
G36*
X144801000Y-73051000D02*
X143699000Y-73051000D01*
X143699000Y-71949000D01*
X144801000Y-71949000D01*
X144801000Y-73051000D01*
X144801000Y-73051000D01*
G37*
G36*
X109938677Y-71503465D02*
X109976364Y-71514898D01*
X110011103Y-71533466D01*
X110041548Y-71558452D01*
X110066534Y-71588897D01*
X110085102Y-71623636D01*
X110096535Y-71661323D01*
X110101000Y-71706661D01*
X110101000Y-72793339D01*
X110096535Y-72838677D01*
X110085102Y-72876364D01*
X110066534Y-72911103D01*
X110041548Y-72941548D01*
X110011103Y-72966534D01*
X109976364Y-72985102D01*
X109938677Y-72996535D01*
X109893339Y-73001000D01*
X109056661Y-73001000D01*
X109011323Y-72996535D01*
X108973636Y-72985102D01*
X108938897Y-72966534D01*
X108908452Y-72941548D01*
X108883466Y-72911103D01*
X108864898Y-72876364D01*
X108853465Y-72838677D01*
X108849000Y-72793339D01*
X108849000Y-71706661D01*
X108853465Y-71661323D01*
X108864898Y-71623636D01*
X108883466Y-71588897D01*
X108908452Y-71558452D01*
X108938897Y-71533466D01*
X108973636Y-71514898D01*
X109011323Y-71503465D01*
X109056661Y-71499000D01*
X109893339Y-71499000D01*
X109938677Y-71503465D01*
X109938677Y-71503465D01*
G37*
G36*
X111988677Y-71503465D02*
X112026364Y-71514898D01*
X112061103Y-71533466D01*
X112091548Y-71558452D01*
X112116534Y-71588897D01*
X112135102Y-71623636D01*
X112146535Y-71661323D01*
X112151000Y-71706661D01*
X112151000Y-72793339D01*
X112146535Y-72838677D01*
X112135102Y-72876364D01*
X112116534Y-72911103D01*
X112091548Y-72941548D01*
X112061103Y-72966534D01*
X112026364Y-72985102D01*
X111988677Y-72996535D01*
X111943339Y-73001000D01*
X111106661Y-73001000D01*
X111061323Y-72996535D01*
X111023636Y-72985102D01*
X110988897Y-72966534D01*
X110958452Y-72941548D01*
X110933466Y-72911103D01*
X110914898Y-72876364D01*
X110903465Y-72838677D01*
X110899000Y-72793339D01*
X110899000Y-71706661D01*
X110903465Y-71661323D01*
X110914898Y-71623636D01*
X110933466Y-71588897D01*
X110958452Y-71558452D01*
X110988897Y-71533466D01*
X111023636Y-71514898D01*
X111061323Y-71503465D01*
X111106661Y-71499000D01*
X111943339Y-71499000D01*
X111988677Y-71503465D01*
X111988677Y-71503465D01*
G37*
G36*
X117938677Y-71503465D02*
X117976364Y-71514898D01*
X118011103Y-71533466D01*
X118041548Y-71558452D01*
X118066534Y-71588897D01*
X118085102Y-71623636D01*
X118096535Y-71661323D01*
X118101000Y-71706661D01*
X118101000Y-72793339D01*
X118096535Y-72838677D01*
X118085102Y-72876364D01*
X118066534Y-72911103D01*
X118041548Y-72941548D01*
X118011103Y-72966534D01*
X117976364Y-72985102D01*
X117938677Y-72996535D01*
X117893339Y-73001000D01*
X117056661Y-73001000D01*
X117011323Y-72996535D01*
X116973636Y-72985102D01*
X116938897Y-72966534D01*
X116908452Y-72941548D01*
X116883466Y-72911103D01*
X116864898Y-72876364D01*
X116853465Y-72838677D01*
X116849000Y-72793339D01*
X116849000Y-71706661D01*
X116853465Y-71661323D01*
X116864898Y-71623636D01*
X116883466Y-71588897D01*
X116908452Y-71558452D01*
X116938897Y-71533466D01*
X116973636Y-71514898D01*
X117011323Y-71503465D01*
X117056661Y-71499000D01*
X117893339Y-71499000D01*
X117938677Y-71503465D01*
X117938677Y-71503465D01*
G37*
G36*
X119988677Y-71503465D02*
X120026364Y-71514898D01*
X120061103Y-71533466D01*
X120091548Y-71558452D01*
X120116534Y-71588897D01*
X120135102Y-71623636D01*
X120146535Y-71661323D01*
X120151000Y-71706661D01*
X120151000Y-72793339D01*
X120146535Y-72838677D01*
X120135102Y-72876364D01*
X120116534Y-72911103D01*
X120091548Y-72941548D01*
X120061103Y-72966534D01*
X120026364Y-72985102D01*
X119988677Y-72996535D01*
X119943339Y-73001000D01*
X119106661Y-73001000D01*
X119061323Y-72996535D01*
X119023636Y-72985102D01*
X118988897Y-72966534D01*
X118958452Y-72941548D01*
X118933466Y-72911103D01*
X118914898Y-72876364D01*
X118903465Y-72838677D01*
X118899000Y-72793339D01*
X118899000Y-71706661D01*
X118903465Y-71661323D01*
X118914898Y-71623636D01*
X118933466Y-71588897D01*
X118958452Y-71558452D01*
X118988897Y-71533466D01*
X119023636Y-71514898D01*
X119061323Y-71503465D01*
X119106661Y-71499000D01*
X119943339Y-71499000D01*
X119988677Y-71503465D01*
X119988677Y-71503465D01*
G37*
G36*
X139501000Y-72951000D02*
X138499000Y-72951000D01*
X138499000Y-72049000D01*
X139501000Y-72049000D01*
X139501000Y-72951000D01*
X139501000Y-72951000D01*
G37*
G36*
X92501000Y-72701000D02*
X91499000Y-72701000D01*
X91499000Y-71799000D01*
X92501000Y-71799000D01*
X92501000Y-72701000D01*
X92501000Y-72701000D01*
G37*
G36*
X98088677Y-71153465D02*
X98126364Y-71164898D01*
X98161103Y-71183466D01*
X98191548Y-71208452D01*
X98216534Y-71238897D01*
X98235102Y-71273636D01*
X98246535Y-71311323D01*
X98251000Y-71356661D01*
X98251000Y-72193339D01*
X98246535Y-72238677D01*
X98235102Y-72276364D01*
X98216534Y-72311103D01*
X98191548Y-72341548D01*
X98161103Y-72366534D01*
X98126364Y-72385102D01*
X98088677Y-72396535D01*
X98043339Y-72401000D01*
X96956661Y-72401000D01*
X96911323Y-72396535D01*
X96873636Y-72385102D01*
X96838897Y-72366534D01*
X96808452Y-72341548D01*
X96783466Y-72311103D01*
X96764898Y-72276364D01*
X96753465Y-72238677D01*
X96749000Y-72193339D01*
X96749000Y-71356661D01*
X96753465Y-71311323D01*
X96764898Y-71273636D01*
X96783466Y-71238897D01*
X96808452Y-71208452D01*
X96838897Y-71183466D01*
X96873636Y-71164898D01*
X96911323Y-71153465D01*
X96956661Y-71149000D01*
X98043339Y-71149000D01*
X98088677Y-71153465D01*
X98088677Y-71153465D01*
G37*
G36*
X184477870Y-72400261D02*
X183475870Y-72400261D01*
X183475870Y-71498261D01*
X184477870Y-71498261D01*
X184477870Y-72400261D01*
X184477870Y-72400261D01*
G37*
G36*
X176777870Y-72350261D02*
X175775870Y-72350261D01*
X175775870Y-71448261D01*
X176777870Y-71448261D01*
X176777870Y-72350261D01*
X176777870Y-72350261D01*
G37*
G36*
X179327870Y-72301000D02*
X178225870Y-72301000D01*
X178225870Y-71199000D01*
X179327870Y-71199000D01*
X179327870Y-72301000D01*
X179327870Y-72301000D01*
G37*
G36*
X166877870Y-72300261D02*
X165975870Y-72300261D01*
X165975870Y-71298261D01*
X166877870Y-71298261D01*
X166877870Y-72300261D01*
X166877870Y-72300261D01*
G37*
G36*
X168777870Y-72300261D02*
X167875870Y-72300261D01*
X167875870Y-71298261D01*
X168777870Y-71298261D01*
X168777870Y-72300261D01*
X168777870Y-72300261D01*
G37*
G36*
X141501000Y-72001000D02*
X140499000Y-72001000D01*
X140499000Y-71099000D01*
X141501000Y-71099000D01*
X141501000Y-72001000D01*
X141501000Y-72001000D01*
G37*
G36*
X89401000Y-71751000D02*
X88499000Y-71751000D01*
X88499000Y-70749000D01*
X89401000Y-70749000D01*
X89401000Y-71751000D01*
X89401000Y-71751000D01*
G37*
G36*
X87501000Y-71751000D02*
X86599000Y-71751000D01*
X86599000Y-70749000D01*
X87501000Y-70749000D01*
X87501000Y-71751000D01*
X87501000Y-71751000D01*
G37*
G36*
X94501000Y-71751000D02*
X93499000Y-71751000D01*
X93499000Y-70849000D01*
X94501000Y-70849000D01*
X94501000Y-71751000D01*
X94501000Y-71751000D01*
G37*
G36*
X171427870Y-71600261D02*
X170325870Y-71600261D01*
X170325870Y-70498261D01*
X171427870Y-70498261D01*
X171427870Y-71600261D01*
X171427870Y-71600261D01*
G37*
G36*
X182477870Y-71450261D02*
X181475870Y-71450261D01*
X181475870Y-70548261D01*
X182477870Y-70548261D01*
X182477870Y-71450261D01*
X182477870Y-71450261D01*
G37*
G36*
X174777870Y-71400261D02*
X173775870Y-71400261D01*
X173775870Y-70498261D01*
X174777870Y-70498261D01*
X174777870Y-71400261D01*
X174777870Y-71400261D01*
G37*
G36*
X103610442Y-69515518D02*
X103676627Y-69522037D01*
X103746850Y-69543339D01*
X103846467Y-69573557D01*
X103945260Y-69626364D01*
X104002991Y-69657222D01*
X104012344Y-69664898D01*
X104140186Y-69769814D01*
X104223448Y-69871271D01*
X104252778Y-69907009D01*
X104252779Y-69907011D01*
X104336443Y-70063533D01*
X104336443Y-70063534D01*
X104387963Y-70233373D01*
X104405359Y-70410000D01*
X104387963Y-70586627D01*
X104369348Y-70647991D01*
X104336443Y-70756467D01*
X104267685Y-70885102D01*
X104252778Y-70912991D01*
X104223448Y-70948729D01*
X104140186Y-71050186D01*
X104038729Y-71133448D01*
X104002991Y-71162778D01*
X104002989Y-71162779D01*
X103846467Y-71246443D01*
X103789853Y-71263616D01*
X103676627Y-71297963D01*
X103610443Y-71304481D01*
X103544260Y-71311000D01*
X103455740Y-71311000D01*
X103389557Y-71304481D01*
X103323373Y-71297963D01*
X103210147Y-71263616D01*
X103153533Y-71246443D01*
X102997011Y-71162779D01*
X102997009Y-71162778D01*
X102961271Y-71133448D01*
X102859814Y-71050186D01*
X102776552Y-70948729D01*
X102747222Y-70912991D01*
X102732315Y-70885102D01*
X102663557Y-70756467D01*
X102630652Y-70647991D01*
X102612037Y-70586627D01*
X102594641Y-70410000D01*
X102612037Y-70233373D01*
X102663557Y-70063534D01*
X102663557Y-70063533D01*
X102747221Y-69907011D01*
X102747222Y-69907009D01*
X102776552Y-69871271D01*
X102859814Y-69769814D01*
X102987656Y-69664898D01*
X102997009Y-69657222D01*
X103054740Y-69626364D01*
X103153533Y-69573557D01*
X103253150Y-69543339D01*
X103323373Y-69522037D01*
X103389558Y-69515518D01*
X103455740Y-69509000D01*
X103544260Y-69509000D01*
X103610442Y-69515518D01*
X103610442Y-69515518D01*
G37*
G36*
X156101000Y-71301000D02*
X154999000Y-71301000D01*
X154999000Y-70199000D01*
X156101000Y-70199000D01*
X156101000Y-71301000D01*
X156101000Y-71301000D01*
G37*
G36*
X187027870Y-71300261D02*
X185925870Y-71300261D01*
X185925870Y-70198261D01*
X187027870Y-70198261D01*
X187027870Y-71300261D01*
X187027870Y-71300261D01*
G37*
G36*
X163877870Y-71000261D02*
X162775870Y-71000261D01*
X162775870Y-69898261D01*
X163877870Y-69898261D01*
X163877870Y-71000261D01*
X163877870Y-71000261D01*
G37*
G36*
X136838677Y-69653465D02*
X136876364Y-69664898D01*
X136911103Y-69683466D01*
X136941548Y-69708452D01*
X136966534Y-69738897D01*
X136985102Y-69773636D01*
X136996535Y-69811323D01*
X137001000Y-69856661D01*
X137001000Y-70693339D01*
X136996535Y-70738677D01*
X136985102Y-70776364D01*
X136966534Y-70811103D01*
X136941548Y-70841548D01*
X136911103Y-70866534D01*
X136876364Y-70885102D01*
X136838677Y-70896535D01*
X136793339Y-70901000D01*
X135706661Y-70901000D01*
X135661323Y-70896535D01*
X135623636Y-70885102D01*
X135588897Y-70866534D01*
X135558452Y-70841548D01*
X135533466Y-70811103D01*
X135514898Y-70776364D01*
X135503465Y-70738677D01*
X135499000Y-70693339D01*
X135499000Y-69856661D01*
X135503465Y-69811323D01*
X135514898Y-69773636D01*
X135533466Y-69738897D01*
X135558452Y-69708452D01*
X135588897Y-69683466D01*
X135623636Y-69664898D01*
X135661323Y-69653465D01*
X135706661Y-69649000D01*
X136793339Y-69649000D01*
X136838677Y-69653465D01*
X136838677Y-69653465D01*
G37*
G36*
X152701000Y-70751000D02*
X151799000Y-70751000D01*
X151799000Y-69749000D01*
X152701000Y-69749000D01*
X152701000Y-70751000D01*
X152701000Y-70751000D01*
G37*
G36*
X150801000Y-70751000D02*
X149899000Y-70751000D01*
X149899000Y-69749000D01*
X150801000Y-69749000D01*
X150801000Y-70751000D01*
X150801000Y-70751000D01*
G37*
G36*
X129826177Y-69416354D02*
X129863864Y-69427787D01*
X129898603Y-69446355D01*
X129929048Y-69471341D01*
X129954034Y-69501786D01*
X129972602Y-69536525D01*
X129984035Y-69574212D01*
X129988500Y-69619550D01*
X129988500Y-70456228D01*
X129984035Y-70501566D01*
X129972602Y-70539253D01*
X129954034Y-70573992D01*
X129929048Y-70604437D01*
X129898603Y-70629423D01*
X129863864Y-70647991D01*
X129826177Y-70659424D01*
X129780839Y-70663889D01*
X128694161Y-70663889D01*
X128648823Y-70659424D01*
X128611136Y-70647991D01*
X128576397Y-70629423D01*
X128545952Y-70604437D01*
X128520966Y-70573992D01*
X128502398Y-70539253D01*
X128490965Y-70501566D01*
X128486500Y-70456228D01*
X128486500Y-69619550D01*
X128490965Y-69574212D01*
X128502398Y-69536525D01*
X128520966Y-69501786D01*
X128545952Y-69471341D01*
X128576397Y-69446355D01*
X128611136Y-69427787D01*
X128648823Y-69416354D01*
X128694161Y-69411889D01*
X129780839Y-69411889D01*
X129826177Y-69416354D01*
X129826177Y-69416354D01*
G37*
G36*
X144801000Y-70551000D02*
X143699000Y-70551000D01*
X143699000Y-69449000D01*
X144801000Y-69449000D01*
X144801000Y-70551000D01*
X144801000Y-70551000D01*
G37*
G36*
X133188500Y-70513889D02*
X132286500Y-70513889D01*
X132286500Y-69511889D01*
X133188500Y-69511889D01*
X133188500Y-70513889D01*
X133188500Y-70513889D01*
G37*
G36*
X184477870Y-70500261D02*
X183475870Y-70500261D01*
X183475870Y-69598261D01*
X184477870Y-69598261D01*
X184477870Y-70500261D01*
X184477870Y-70500261D01*
G37*
G36*
X160977870Y-70450261D02*
X160075870Y-70450261D01*
X160075870Y-69448261D01*
X160977870Y-69448261D01*
X160977870Y-70450261D01*
X160977870Y-70450261D01*
G37*
G36*
X176777870Y-70450261D02*
X175775870Y-70450261D01*
X175775870Y-69548261D01*
X176777870Y-69548261D01*
X176777870Y-70450261D01*
X176777870Y-70450261D01*
G37*
G36*
X159077870Y-70450261D02*
X158175870Y-70450261D01*
X158175870Y-69448261D01*
X159077870Y-69448261D01*
X159077870Y-70450261D01*
X159077870Y-70450261D01*
G37*
G36*
X127238500Y-70413889D02*
X126236500Y-70413889D01*
X126236500Y-69511889D01*
X127238500Y-69511889D01*
X127238500Y-70413889D01*
X127238500Y-70413889D01*
G37*
G36*
X98088677Y-69103465D02*
X98126364Y-69114898D01*
X98161103Y-69133466D01*
X98191548Y-69158452D01*
X98216534Y-69188897D01*
X98235102Y-69223636D01*
X98246535Y-69261323D01*
X98251000Y-69306661D01*
X98251000Y-70143339D01*
X98246535Y-70188677D01*
X98235102Y-70226364D01*
X98216534Y-70261103D01*
X98191548Y-70291548D01*
X98161103Y-70316534D01*
X98126364Y-70335102D01*
X98088677Y-70346535D01*
X98043339Y-70351000D01*
X96956661Y-70351000D01*
X96911323Y-70346535D01*
X96873636Y-70335102D01*
X96838897Y-70316534D01*
X96808452Y-70291548D01*
X96783466Y-70261103D01*
X96764898Y-70226364D01*
X96753465Y-70188677D01*
X96749000Y-70143339D01*
X96749000Y-69306661D01*
X96753465Y-69261323D01*
X96764898Y-69223636D01*
X96783466Y-69188897D01*
X96808452Y-69158452D01*
X96838897Y-69133466D01*
X96873636Y-69114898D01*
X96911323Y-69103465D01*
X96956661Y-69099000D01*
X98043339Y-69099000D01*
X98088677Y-69103465D01*
X98088677Y-69103465D01*
G37*
G36*
X167827870Y-70300261D02*
X166925870Y-70300261D01*
X166925870Y-69298261D01*
X167827870Y-69298261D01*
X167827870Y-70300261D01*
X167827870Y-70300261D01*
G37*
G36*
X112001000Y-70151000D02*
X110999000Y-70151000D01*
X110999000Y-69249000D01*
X112001000Y-69249000D01*
X112001000Y-70151000D01*
X112001000Y-70151000D01*
G37*
G36*
X120001000Y-70151000D02*
X118999000Y-70151000D01*
X118999000Y-69249000D01*
X120001000Y-69249000D01*
X120001000Y-70151000D01*
X120001000Y-70151000D01*
G37*
G36*
X179327870Y-69801000D02*
X178225870Y-69801000D01*
X178225870Y-68699000D01*
X179327870Y-68699000D01*
X179327870Y-69801000D01*
X179327870Y-69801000D01*
G37*
G36*
X141488677Y-68253465D02*
X141526364Y-68264898D01*
X141561103Y-68283466D01*
X141591548Y-68308452D01*
X141616534Y-68338897D01*
X141635102Y-68373636D01*
X141646535Y-68411323D01*
X141651000Y-68456661D01*
X141651000Y-69543339D01*
X141646535Y-69588677D01*
X141635102Y-69626364D01*
X141616534Y-69661103D01*
X141591548Y-69691548D01*
X141561103Y-69716534D01*
X141526364Y-69735102D01*
X141488677Y-69746535D01*
X141443339Y-69751000D01*
X140606661Y-69751000D01*
X140561323Y-69746535D01*
X140523636Y-69735102D01*
X140488897Y-69716534D01*
X140458452Y-69691548D01*
X140433466Y-69661103D01*
X140414898Y-69626364D01*
X140403465Y-69588677D01*
X140399000Y-69543339D01*
X140399000Y-68456661D01*
X140403465Y-68411323D01*
X140414898Y-68373636D01*
X140433466Y-68338897D01*
X140458452Y-68308452D01*
X140488897Y-68283466D01*
X140523636Y-68264898D01*
X140561323Y-68253465D01*
X140606661Y-68249000D01*
X141443339Y-68249000D01*
X141488677Y-68253465D01*
X141488677Y-68253465D01*
G37*
G36*
X139438677Y-68253465D02*
X139476364Y-68264898D01*
X139511103Y-68283466D01*
X139541548Y-68308452D01*
X139566534Y-68338897D01*
X139585102Y-68373636D01*
X139596535Y-68411323D01*
X139601000Y-68456661D01*
X139601000Y-69543339D01*
X139596535Y-69588677D01*
X139585102Y-69626364D01*
X139566534Y-69661103D01*
X139541548Y-69691548D01*
X139511103Y-69716534D01*
X139476364Y-69735102D01*
X139438677Y-69746535D01*
X139393339Y-69751000D01*
X138556661Y-69751000D01*
X138511323Y-69746535D01*
X138473636Y-69735102D01*
X138438897Y-69716534D01*
X138408452Y-69691548D01*
X138383466Y-69661103D01*
X138364898Y-69626364D01*
X138353465Y-69588677D01*
X138349000Y-69543339D01*
X138349000Y-68456661D01*
X138353465Y-68411323D01*
X138364898Y-68373636D01*
X138383466Y-68338897D01*
X138408452Y-68308452D01*
X138438897Y-68283466D01*
X138473636Y-68264898D01*
X138511323Y-68253465D01*
X138556661Y-68249000D01*
X139393339Y-68249000D01*
X139438677Y-68253465D01*
X139438677Y-68253465D01*
G37*
G36*
X125238500Y-69463889D02*
X124236500Y-69463889D01*
X124236500Y-68561889D01*
X125238500Y-68561889D01*
X125238500Y-69463889D01*
X125238500Y-69463889D01*
G37*
G36*
X122801000Y-69301000D02*
X121699000Y-69301000D01*
X121699000Y-68199000D01*
X122801000Y-68199000D01*
X122801000Y-69301000D01*
X122801000Y-69301000D01*
G37*
G36*
X90051000Y-69301000D02*
X88949000Y-69301000D01*
X88949000Y-68199000D01*
X90051000Y-68199000D01*
X90051000Y-69301000D01*
X90051000Y-69301000D01*
G37*
G36*
X115051000Y-69301000D02*
X113949000Y-69301000D01*
X113949000Y-68199000D01*
X115051000Y-68199000D01*
X115051000Y-69301000D01*
X115051000Y-69301000D01*
G37*
G36*
X87551000Y-69301000D02*
X86449000Y-69301000D01*
X86449000Y-68199000D01*
X87551000Y-68199000D01*
X87551000Y-69301000D01*
X87551000Y-69301000D01*
G37*
G36*
X110001000Y-69201000D02*
X108999000Y-69201000D01*
X108999000Y-68299000D01*
X110001000Y-68299000D01*
X110001000Y-69201000D01*
X110001000Y-69201000D01*
G37*
G36*
X118001000Y-69201000D02*
X116999000Y-69201000D01*
X116999000Y-68299000D01*
X118001000Y-68299000D01*
X118001000Y-69201000D01*
X118001000Y-69201000D01*
G37*
G36*
X171427870Y-69100261D02*
X170325870Y-69100261D01*
X170325870Y-67998261D01*
X171427870Y-67998261D01*
X171427870Y-69100261D01*
X171427870Y-69100261D01*
G37*
G36*
X92551000Y-69051000D02*
X91449000Y-69051000D01*
X91449000Y-67949000D01*
X92551000Y-67949000D01*
X92551000Y-69051000D01*
X92551000Y-69051000D01*
G37*
G36*
X95051000Y-69051000D02*
X93949000Y-69051000D01*
X93949000Y-67949000D01*
X95051000Y-67949000D01*
X95051000Y-69051000D01*
X95051000Y-69051000D01*
G37*
G36*
X136838677Y-67603465D02*
X136876364Y-67614898D01*
X136911103Y-67633466D01*
X136941548Y-67658452D01*
X136966534Y-67688897D01*
X136985102Y-67723636D01*
X136996535Y-67761323D01*
X137001000Y-67806661D01*
X137001000Y-68643339D01*
X136996535Y-68688677D01*
X136985102Y-68726364D01*
X136966534Y-68761103D01*
X136941548Y-68791548D01*
X136911103Y-68816534D01*
X136876364Y-68835102D01*
X136838677Y-68846535D01*
X136793339Y-68851000D01*
X135706661Y-68851000D01*
X135661323Y-68846535D01*
X135623636Y-68835102D01*
X135588897Y-68816534D01*
X135558452Y-68791548D01*
X135533466Y-68761103D01*
X135514898Y-68726364D01*
X135503465Y-68688677D01*
X135499000Y-68643339D01*
X135499000Y-67806661D01*
X135503465Y-67761323D01*
X135514898Y-67723636D01*
X135533466Y-67688897D01*
X135558452Y-67658452D01*
X135588897Y-67633466D01*
X135623636Y-67614898D01*
X135661323Y-67603465D01*
X135706661Y-67599000D01*
X136793339Y-67599000D01*
X136838677Y-67603465D01*
X136838677Y-67603465D01*
G37*
G36*
X156101000Y-68801000D02*
X154999000Y-68801000D01*
X154999000Y-67699000D01*
X156101000Y-67699000D01*
X156101000Y-68801000D01*
X156101000Y-68801000D01*
G37*
G36*
X187027870Y-68800261D02*
X185925870Y-68800261D01*
X185925870Y-67698261D01*
X187027870Y-67698261D01*
X187027870Y-68800261D01*
X187027870Y-68800261D01*
G37*
G36*
X103610443Y-66975519D02*
X103676627Y-66982037D01*
X103789853Y-67016384D01*
X103846467Y-67033557D01*
X103985087Y-67107652D01*
X104002991Y-67117222D01*
X104038729Y-67146552D01*
X104140186Y-67229814D01*
X104223448Y-67331271D01*
X104252778Y-67367009D01*
X104252779Y-67367011D01*
X104336443Y-67523533D01*
X104336443Y-67523534D01*
X104387963Y-67693373D01*
X104405359Y-67870000D01*
X104387963Y-68046627D01*
X104359393Y-68140809D01*
X104336443Y-68216467D01*
X104287275Y-68308452D01*
X104252778Y-68372991D01*
X104234868Y-68394814D01*
X104140186Y-68510186D01*
X104056545Y-68578827D01*
X104002991Y-68622778D01*
X104002989Y-68622779D01*
X103846467Y-68706443D01*
X103789853Y-68723616D01*
X103676627Y-68757963D01*
X103610442Y-68764482D01*
X103544260Y-68771000D01*
X103455740Y-68771000D01*
X103389558Y-68764482D01*
X103323373Y-68757963D01*
X103210147Y-68723616D01*
X103153533Y-68706443D01*
X102997011Y-68622779D01*
X102997009Y-68622778D01*
X102943455Y-68578827D01*
X102859814Y-68510186D01*
X102765132Y-68394814D01*
X102747222Y-68372991D01*
X102712725Y-68308452D01*
X102663557Y-68216467D01*
X102640607Y-68140809D01*
X102612037Y-68046627D01*
X102594641Y-67870000D01*
X102612037Y-67693373D01*
X102663557Y-67523534D01*
X102663557Y-67523533D01*
X102747221Y-67367011D01*
X102747222Y-67367009D01*
X102776552Y-67331271D01*
X102859814Y-67229814D01*
X102961271Y-67146552D01*
X102997009Y-67117222D01*
X103014913Y-67107652D01*
X103153533Y-67033557D01*
X103210147Y-67016384D01*
X103323373Y-66982037D01*
X103389557Y-66975519D01*
X103455740Y-66969000D01*
X103544260Y-66969000D01*
X103610443Y-66975519D01*
X103610443Y-66975519D01*
G37*
G36*
X151751000Y-68751000D02*
X150849000Y-68751000D01*
X150849000Y-67749000D01*
X151751000Y-67749000D01*
X151751000Y-68751000D01*
X151751000Y-68751000D01*
G37*
G36*
X129826177Y-67366354D02*
X129863864Y-67377787D01*
X129898603Y-67396355D01*
X129929048Y-67421341D01*
X129954034Y-67451786D01*
X129972602Y-67486525D01*
X129984035Y-67524212D01*
X129988500Y-67569550D01*
X129988500Y-68406228D01*
X129984035Y-68451566D01*
X129972602Y-68489253D01*
X129954034Y-68523992D01*
X129929048Y-68554437D01*
X129898603Y-68579423D01*
X129863864Y-68597991D01*
X129826177Y-68609424D01*
X129780839Y-68613889D01*
X128694161Y-68613889D01*
X128648823Y-68609424D01*
X128611136Y-68597991D01*
X128576397Y-68579423D01*
X128545952Y-68554437D01*
X128520966Y-68523992D01*
X128502398Y-68489253D01*
X128490965Y-68451566D01*
X128486500Y-68406228D01*
X128486500Y-67569550D01*
X128490965Y-67524212D01*
X128502398Y-67486525D01*
X128520966Y-67451786D01*
X128545952Y-67421341D01*
X128576397Y-67396355D01*
X128611136Y-67377787D01*
X128648823Y-67366354D01*
X128694161Y-67361889D01*
X129780839Y-67361889D01*
X129826177Y-67366354D01*
X129826177Y-67366354D01*
G37*
G36*
X132238500Y-68513889D02*
X131336500Y-68513889D01*
X131336500Y-67511889D01*
X132238500Y-67511889D01*
X132238500Y-68513889D01*
X132238500Y-68513889D01*
G37*
G36*
X134138500Y-68513889D02*
X133236500Y-68513889D01*
X133236500Y-67511889D01*
X134138500Y-67511889D01*
X134138500Y-68513889D01*
X134138500Y-68513889D01*
G37*
G36*
X127238500Y-68513889D02*
X126236500Y-68513889D01*
X126236500Y-67611889D01*
X127238500Y-67611889D01*
X127238500Y-68513889D01*
X127238500Y-68513889D01*
G37*
G36*
X163877870Y-68500261D02*
X162775870Y-68500261D01*
X162775870Y-67398261D01*
X163877870Y-67398261D01*
X163877870Y-68500261D01*
X163877870Y-68500261D01*
G37*
G36*
X160027870Y-68450261D02*
X159125870Y-68450261D01*
X159125870Y-67448261D01*
X160027870Y-67448261D01*
X160027870Y-68450261D01*
X160027870Y-68450261D01*
G37*
G36*
X184488677Y-66753465D02*
X184526364Y-66764898D01*
X184561103Y-66783466D01*
X184591548Y-66808452D01*
X184616534Y-66838897D01*
X184635102Y-66873636D01*
X184646535Y-66911323D01*
X184651000Y-66956661D01*
X184651000Y-68043339D01*
X184646535Y-68088677D01*
X184635102Y-68126364D01*
X184616534Y-68161103D01*
X184591548Y-68191548D01*
X184561103Y-68216534D01*
X184526364Y-68235102D01*
X184488677Y-68246535D01*
X184443339Y-68251000D01*
X183606661Y-68251000D01*
X183561323Y-68246535D01*
X183523636Y-68235102D01*
X183488897Y-68216534D01*
X183458452Y-68191548D01*
X183433466Y-68161103D01*
X183414898Y-68126364D01*
X183403465Y-68088677D01*
X183399000Y-68043339D01*
X183399000Y-66956661D01*
X183403465Y-66911323D01*
X183414898Y-66873636D01*
X183433466Y-66838897D01*
X183458452Y-66808452D01*
X183488897Y-66783466D01*
X183523636Y-66764898D01*
X183561323Y-66753465D01*
X183606661Y-66749000D01*
X184443339Y-66749000D01*
X184488677Y-66753465D01*
X184488677Y-66753465D01*
G37*
G36*
X182438677Y-66753465D02*
X182476364Y-66764898D01*
X182511103Y-66783466D01*
X182541548Y-66808452D01*
X182566534Y-66838897D01*
X182585102Y-66873636D01*
X182596535Y-66911323D01*
X182601000Y-66956661D01*
X182601000Y-68043339D01*
X182596535Y-68088677D01*
X182585102Y-68126364D01*
X182566534Y-68161103D01*
X182541548Y-68191548D01*
X182511103Y-68216534D01*
X182476364Y-68235102D01*
X182438677Y-68246535D01*
X182393339Y-68251000D01*
X181556661Y-68251000D01*
X181511323Y-68246535D01*
X181473636Y-68235102D01*
X181438897Y-68216534D01*
X181408452Y-68191548D01*
X181383466Y-68161103D01*
X181364898Y-68126364D01*
X181353465Y-68088677D01*
X181349000Y-68043339D01*
X181349000Y-66956661D01*
X181353465Y-66911323D01*
X181364898Y-66873636D01*
X181383466Y-66838897D01*
X181408452Y-66808452D01*
X181438897Y-66783466D01*
X181473636Y-66764898D01*
X181511323Y-66753465D01*
X181556661Y-66749000D01*
X182393339Y-66749000D01*
X182438677Y-66753465D01*
X182438677Y-66753465D01*
G37*
G36*
X112001000Y-68251000D02*
X110999000Y-68251000D01*
X110999000Y-67349000D01*
X112001000Y-67349000D01*
X112001000Y-68251000D01*
X112001000Y-68251000D01*
G37*
G36*
X120001000Y-68251000D02*
X118999000Y-68251000D01*
X118999000Y-67349000D01*
X120001000Y-67349000D01*
X120001000Y-68251000D01*
X120001000Y-68251000D01*
G37*
G36*
X174715547Y-66702726D02*
X174753234Y-66714159D01*
X174787973Y-66732727D01*
X174818418Y-66757713D01*
X174843404Y-66788158D01*
X174861972Y-66822897D01*
X174873405Y-66860584D01*
X174877870Y-66905922D01*
X174877870Y-67992600D01*
X174873405Y-68037938D01*
X174861972Y-68075625D01*
X174843404Y-68110364D01*
X174818418Y-68140809D01*
X174787973Y-68165795D01*
X174753234Y-68184363D01*
X174715547Y-68195796D01*
X174670209Y-68200261D01*
X173833531Y-68200261D01*
X173788193Y-68195796D01*
X173750506Y-68184363D01*
X173715767Y-68165795D01*
X173685322Y-68140809D01*
X173660336Y-68110364D01*
X173641768Y-68075625D01*
X173630335Y-68037938D01*
X173625870Y-67992600D01*
X173625870Y-66905922D01*
X173630335Y-66860584D01*
X173641768Y-66822897D01*
X173660336Y-66788158D01*
X173685322Y-66757713D01*
X173715767Y-66732727D01*
X173750506Y-66714159D01*
X173788193Y-66702726D01*
X173833531Y-66698261D01*
X174670209Y-66698261D01*
X174715547Y-66702726D01*
X174715547Y-66702726D01*
G37*
G36*
X176765547Y-66702726D02*
X176803234Y-66714159D01*
X176837973Y-66732727D01*
X176868418Y-66757713D01*
X176893404Y-66788158D01*
X176911972Y-66822897D01*
X176923405Y-66860584D01*
X176927870Y-66905922D01*
X176927870Y-67992600D01*
X176923405Y-68037938D01*
X176911972Y-68075625D01*
X176893404Y-68110364D01*
X176868418Y-68140809D01*
X176837973Y-68165795D01*
X176803234Y-68184363D01*
X176765547Y-68195796D01*
X176720209Y-68200261D01*
X175883531Y-68200261D01*
X175838193Y-68195796D01*
X175800506Y-68184363D01*
X175765767Y-68165795D01*
X175735322Y-68140809D01*
X175710336Y-68110364D01*
X175691768Y-68075625D01*
X175680335Y-68037938D01*
X175675870Y-67992600D01*
X175675870Y-66905922D01*
X175680335Y-66860584D01*
X175691768Y-66822897D01*
X175710336Y-66788158D01*
X175735322Y-66757713D01*
X175765767Y-66732727D01*
X175800506Y-66714159D01*
X175838193Y-66702726D01*
X175883531Y-66698261D01*
X176720209Y-66698261D01*
X176765547Y-66702726D01*
X176765547Y-66702726D01*
G37*
G36*
X168888677Y-66453465D02*
X168926364Y-66464898D01*
X168961103Y-66483466D01*
X168991548Y-66508452D01*
X169016534Y-66538897D01*
X169035102Y-66573636D01*
X169046535Y-66611323D01*
X169051000Y-66656661D01*
X169051000Y-67743339D01*
X169046535Y-67788677D01*
X169035102Y-67826364D01*
X169016534Y-67861103D01*
X168991548Y-67891548D01*
X168961103Y-67916534D01*
X168926364Y-67935102D01*
X168888677Y-67946535D01*
X168843339Y-67951000D01*
X168006661Y-67951000D01*
X167961323Y-67946535D01*
X167923636Y-67935102D01*
X167888897Y-67916534D01*
X167858452Y-67891548D01*
X167833466Y-67861103D01*
X167814898Y-67826364D01*
X167803465Y-67788677D01*
X167799000Y-67743339D01*
X167799000Y-66656661D01*
X167803465Y-66611323D01*
X167814898Y-66573636D01*
X167833466Y-66538897D01*
X167858452Y-66508452D01*
X167888897Y-66483466D01*
X167923636Y-66464898D01*
X167961323Y-66453465D01*
X168006661Y-66449000D01*
X168843339Y-66449000D01*
X168888677Y-66453465D01*
X168888677Y-66453465D01*
G37*
G36*
X166838677Y-66453465D02*
X166876364Y-66464898D01*
X166911103Y-66483466D01*
X166941548Y-66508452D01*
X166966534Y-66538897D01*
X166985102Y-66573636D01*
X166996535Y-66611323D01*
X167001000Y-66656661D01*
X167001000Y-67743339D01*
X166996535Y-67788677D01*
X166985102Y-67826364D01*
X166966534Y-67861103D01*
X166941548Y-67891548D01*
X166911103Y-67916534D01*
X166876364Y-67935102D01*
X166838677Y-67946535D01*
X166793339Y-67951000D01*
X165956661Y-67951000D01*
X165911323Y-67946535D01*
X165873636Y-67935102D01*
X165838897Y-67916534D01*
X165808452Y-67891548D01*
X165783466Y-67861103D01*
X165764898Y-67826364D01*
X165753465Y-67788677D01*
X165749000Y-67743339D01*
X165749000Y-66656661D01*
X165753465Y-66611323D01*
X165764898Y-66573636D01*
X165783466Y-66538897D01*
X165808452Y-66508452D01*
X165838897Y-66483466D01*
X165873636Y-66464898D01*
X165911323Y-66453465D01*
X165956661Y-66449000D01*
X166793339Y-66449000D01*
X166838677Y-66453465D01*
X166838677Y-66453465D01*
G37*
G36*
X144801000Y-67301000D02*
X143699000Y-67301000D01*
X143699000Y-66199000D01*
X144801000Y-66199000D01*
X144801000Y-67301000D01*
X144801000Y-67301000D01*
G37*
G36*
X122801000Y-66801000D02*
X121699000Y-66801000D01*
X121699000Y-65699000D01*
X122801000Y-65699000D01*
X122801000Y-66801000D01*
X122801000Y-66801000D01*
G37*
G36*
X115051000Y-66801000D02*
X113949000Y-66801000D01*
X113949000Y-65699000D01*
X115051000Y-65699000D01*
X115051000Y-66801000D01*
X115051000Y-66801000D01*
G37*
G36*
X98988677Y-65253465D02*
X99026364Y-65264898D01*
X99061103Y-65283466D01*
X99091548Y-65308452D01*
X99116534Y-65338897D01*
X99135102Y-65373636D01*
X99146535Y-65411323D01*
X99151000Y-65456661D01*
X99151000Y-66543339D01*
X99146535Y-66588677D01*
X99135102Y-66626364D01*
X99116534Y-66661103D01*
X99091548Y-66691548D01*
X99061103Y-66716534D01*
X99026364Y-66735102D01*
X98988677Y-66746535D01*
X98943339Y-66751000D01*
X98106661Y-66751000D01*
X98061323Y-66746535D01*
X98023636Y-66735102D01*
X97988897Y-66716534D01*
X97958452Y-66691548D01*
X97933466Y-66661103D01*
X97914898Y-66626364D01*
X97903465Y-66588677D01*
X97899000Y-66543339D01*
X97899000Y-65456661D01*
X97903465Y-65411323D01*
X97914898Y-65373636D01*
X97933466Y-65338897D01*
X97958452Y-65308452D01*
X97988897Y-65283466D01*
X98023636Y-65264898D01*
X98061323Y-65253465D01*
X98106661Y-65249000D01*
X98943339Y-65249000D01*
X98988677Y-65253465D01*
X98988677Y-65253465D01*
G37*
G36*
X96938677Y-65253465D02*
X96976364Y-65264898D01*
X97011103Y-65283466D01*
X97041548Y-65308452D01*
X97066534Y-65338897D01*
X97085102Y-65373636D01*
X97096535Y-65411323D01*
X97101000Y-65456661D01*
X97101000Y-66543339D01*
X97096535Y-66588677D01*
X97085102Y-66626364D01*
X97066534Y-66661103D01*
X97041548Y-66691548D01*
X97011103Y-66716534D01*
X96976364Y-66735102D01*
X96938677Y-66746535D01*
X96893339Y-66751000D01*
X96056661Y-66751000D01*
X96011323Y-66746535D01*
X95973636Y-66735102D01*
X95938897Y-66716534D01*
X95908452Y-66691548D01*
X95883466Y-66661103D01*
X95864898Y-66626364D01*
X95853465Y-66588677D01*
X95849000Y-66543339D01*
X95849000Y-65456661D01*
X95853465Y-65411323D01*
X95864898Y-65373636D01*
X95883466Y-65338897D01*
X95908452Y-65308452D01*
X95938897Y-65283466D01*
X95973636Y-65264898D01*
X96011323Y-65253465D01*
X96056661Y-65249000D01*
X96893339Y-65249000D01*
X96938677Y-65253465D01*
X96938677Y-65253465D01*
G37*
G36*
X141401000Y-66751000D02*
X140499000Y-66751000D01*
X140499000Y-65749000D01*
X141401000Y-65749000D01*
X141401000Y-66751000D01*
X141401000Y-66751000D01*
G37*
G36*
X139501000Y-66751000D02*
X138599000Y-66751000D01*
X138599000Y-65749000D01*
X139501000Y-65749000D01*
X139501000Y-66751000D01*
X139501000Y-66751000D01*
G37*
G36*
X150738677Y-65003465D02*
X150776364Y-65014898D01*
X150811103Y-65033466D01*
X150841548Y-65058452D01*
X150866534Y-65088897D01*
X150885102Y-65123636D01*
X150896535Y-65161323D01*
X150901000Y-65206661D01*
X150901000Y-66293339D01*
X150896535Y-66338677D01*
X150885102Y-66376364D01*
X150866534Y-66411103D01*
X150841548Y-66441548D01*
X150811103Y-66466534D01*
X150776364Y-66485102D01*
X150738677Y-66496535D01*
X150693339Y-66501000D01*
X149856661Y-66501000D01*
X149811323Y-66496535D01*
X149773636Y-66485102D01*
X149738897Y-66466534D01*
X149708452Y-66441548D01*
X149683466Y-66411103D01*
X149664898Y-66376364D01*
X149653465Y-66338677D01*
X149649000Y-66293339D01*
X149649000Y-65206661D01*
X149653465Y-65161323D01*
X149664898Y-65123636D01*
X149683466Y-65088897D01*
X149708452Y-65058452D01*
X149738897Y-65033466D01*
X149773636Y-65014898D01*
X149811323Y-65003465D01*
X149856661Y-64999000D01*
X150693339Y-64999000D01*
X150738677Y-65003465D01*
X150738677Y-65003465D01*
G37*
G36*
X152788677Y-65003465D02*
X152826364Y-65014898D01*
X152861103Y-65033466D01*
X152891548Y-65058452D01*
X152916534Y-65088897D01*
X152935102Y-65123636D01*
X152946535Y-65161323D01*
X152951000Y-65206661D01*
X152951000Y-66293339D01*
X152946535Y-66338677D01*
X152935102Y-66376364D01*
X152916534Y-66411103D01*
X152891548Y-66441548D01*
X152861103Y-66466534D01*
X152826364Y-66485102D01*
X152788677Y-66496535D01*
X152743339Y-66501000D01*
X151906661Y-66501000D01*
X151861323Y-66496535D01*
X151823636Y-66485102D01*
X151788897Y-66466534D01*
X151758452Y-66441548D01*
X151733466Y-66411103D01*
X151714898Y-66376364D01*
X151703465Y-66338677D01*
X151699000Y-66293339D01*
X151699000Y-65206661D01*
X151703465Y-65161323D01*
X151714898Y-65123636D01*
X151733466Y-65088897D01*
X151758452Y-65058452D01*
X151788897Y-65033466D01*
X151823636Y-65014898D01*
X151861323Y-65003465D01*
X151906661Y-64999000D01*
X152743339Y-64999000D01*
X152788677Y-65003465D01*
X152788677Y-65003465D01*
G37*
G36*
X88451000Y-66251000D02*
X87549000Y-66251000D01*
X87549000Y-65249000D01*
X88451000Y-65249000D01*
X88451000Y-66251000D01*
X88451000Y-66251000D01*
G37*
G36*
X103610442Y-64435518D02*
X103676627Y-64442037D01*
X103789853Y-64476384D01*
X103846467Y-64493557D01*
X103985087Y-64567652D01*
X104002991Y-64577222D01*
X104038729Y-64606552D01*
X104140186Y-64689814D01*
X104190399Y-64751000D01*
X104252778Y-64827009D01*
X104252779Y-64827011D01*
X104336443Y-64983533D01*
X104336443Y-64983534D01*
X104387963Y-65153373D01*
X104405359Y-65330000D01*
X104387963Y-65506627D01*
X104353616Y-65619853D01*
X104336443Y-65676467D01*
X104269878Y-65801000D01*
X104252778Y-65832991D01*
X104223448Y-65868729D01*
X104140186Y-65970186D01*
X104041712Y-66051000D01*
X104002991Y-66082778D01*
X104002989Y-66082779D01*
X103846467Y-66166443D01*
X103803281Y-66179543D01*
X103676627Y-66217963D01*
X103610442Y-66224482D01*
X103544260Y-66231000D01*
X103455740Y-66231000D01*
X103389558Y-66224482D01*
X103323373Y-66217963D01*
X103196719Y-66179543D01*
X103153533Y-66166443D01*
X102997011Y-66082779D01*
X102997009Y-66082778D01*
X102958288Y-66051000D01*
X102859814Y-65970186D01*
X102776552Y-65868729D01*
X102747222Y-65832991D01*
X102730122Y-65801000D01*
X102663557Y-65676467D01*
X102646384Y-65619853D01*
X102612037Y-65506627D01*
X102594641Y-65330000D01*
X102612037Y-65153373D01*
X102663557Y-64983534D01*
X102663557Y-64983533D01*
X102747221Y-64827011D01*
X102747222Y-64827009D01*
X102809601Y-64751000D01*
X102859814Y-64689814D01*
X102961271Y-64606552D01*
X102997009Y-64577222D01*
X103014913Y-64567652D01*
X103153533Y-64493557D01*
X103210147Y-64476384D01*
X103323373Y-64442037D01*
X103389558Y-64435518D01*
X103455740Y-64429000D01*
X103544260Y-64429000D01*
X103610442Y-64435518D01*
X103610442Y-64435518D01*
G37*
G36*
X161065547Y-64702726D02*
X161103234Y-64714159D01*
X161137973Y-64732727D01*
X161168418Y-64757713D01*
X161193404Y-64788158D01*
X161211972Y-64822897D01*
X161223405Y-64860584D01*
X161227870Y-64905922D01*
X161227870Y-65992600D01*
X161223405Y-66037938D01*
X161211972Y-66075625D01*
X161193404Y-66110364D01*
X161168418Y-66140809D01*
X161137973Y-66165795D01*
X161103234Y-66184363D01*
X161065547Y-66195796D01*
X161020209Y-66200261D01*
X160183531Y-66200261D01*
X160138193Y-66195796D01*
X160100506Y-66184363D01*
X160065767Y-66165795D01*
X160035322Y-66140809D01*
X160010336Y-66110364D01*
X159991768Y-66075625D01*
X159980335Y-66037938D01*
X159975870Y-65992600D01*
X159975870Y-64905922D01*
X159980335Y-64860584D01*
X159991768Y-64822897D01*
X160010336Y-64788158D01*
X160035322Y-64757713D01*
X160065767Y-64732727D01*
X160100506Y-64714159D01*
X160138193Y-64702726D01*
X160183531Y-64698261D01*
X161020209Y-64698261D01*
X161065547Y-64702726D01*
X161065547Y-64702726D01*
G37*
G36*
X159015547Y-64702726D02*
X159053234Y-64714159D01*
X159087973Y-64732727D01*
X159118418Y-64757713D01*
X159143404Y-64788158D01*
X159161972Y-64822897D01*
X159173405Y-64860584D01*
X159177870Y-64905922D01*
X159177870Y-65992600D01*
X159173405Y-66037938D01*
X159161972Y-66075625D01*
X159143404Y-66110364D01*
X159118418Y-66140809D01*
X159087973Y-66165795D01*
X159053234Y-66184363D01*
X159015547Y-66195796D01*
X158970209Y-66200261D01*
X158133531Y-66200261D01*
X158088193Y-66195796D01*
X158050506Y-66184363D01*
X158015767Y-66165795D01*
X157985322Y-66140809D01*
X157960336Y-66110364D01*
X157941768Y-66075625D01*
X157930335Y-66037938D01*
X157925870Y-65992600D01*
X157925870Y-64905922D01*
X157930335Y-64860584D01*
X157941768Y-64822897D01*
X157960336Y-64788158D01*
X157985322Y-64757713D01*
X158015767Y-64732727D01*
X158050506Y-64714159D01*
X158088193Y-64702726D01*
X158133531Y-64698261D01*
X158970209Y-64698261D01*
X159015547Y-64702726D01*
X159015547Y-64702726D01*
G37*
G36*
X94501000Y-66151000D02*
X93499000Y-66151000D01*
X93499000Y-65249000D01*
X94501000Y-65249000D01*
X94501000Y-66151000D01*
X94501000Y-66151000D01*
G37*
G36*
X187001000Y-66101000D02*
X185899000Y-66101000D01*
X185899000Y-64999000D01*
X187001000Y-64999000D01*
X187001000Y-66101000D01*
X187001000Y-66101000D01*
G37*
G36*
X179801000Y-66051000D02*
X178699000Y-66051000D01*
X178699000Y-64949000D01*
X179801000Y-64949000D01*
X179801000Y-66051000D01*
X179801000Y-66051000D01*
G37*
G36*
X171427870Y-65901000D02*
X170325870Y-65901000D01*
X170325870Y-64799000D01*
X171427870Y-64799000D01*
X171427870Y-65901000D01*
X171427870Y-65901000D01*
G37*
G36*
X163851000Y-65801000D02*
X162749000Y-65801000D01*
X162749000Y-64699000D01*
X163851000Y-64699000D01*
X163851000Y-65801000D01*
X163851000Y-65801000D01*
G37*
G36*
X117438677Y-64003465D02*
X117476364Y-64014898D01*
X117511103Y-64033466D01*
X117541548Y-64058452D01*
X117566534Y-64088897D01*
X117585102Y-64123636D01*
X117596535Y-64161323D01*
X117601000Y-64206661D01*
X117601000Y-65293339D01*
X117596535Y-65338677D01*
X117585102Y-65376364D01*
X117566534Y-65411103D01*
X117541548Y-65441548D01*
X117511103Y-65466534D01*
X117476364Y-65485102D01*
X117438677Y-65496535D01*
X117393339Y-65501000D01*
X116556661Y-65501000D01*
X116511323Y-65496535D01*
X116473636Y-65485102D01*
X116438897Y-65466534D01*
X116408452Y-65441548D01*
X116383466Y-65411103D01*
X116364898Y-65376364D01*
X116353465Y-65338677D01*
X116349000Y-65293339D01*
X116349000Y-64206661D01*
X116353465Y-64161323D01*
X116364898Y-64123636D01*
X116383466Y-64088897D01*
X116408452Y-64058452D01*
X116438897Y-64033466D01*
X116473636Y-64014898D01*
X116511323Y-64003465D01*
X116556661Y-63999000D01*
X117393339Y-63999000D01*
X117438677Y-64003465D01*
X117438677Y-64003465D01*
G37*
G36*
X109938677Y-64003465D02*
X109976364Y-64014898D01*
X110011103Y-64033466D01*
X110041548Y-64058452D01*
X110066534Y-64088897D01*
X110085102Y-64123636D01*
X110096535Y-64161323D01*
X110101000Y-64206661D01*
X110101000Y-65293339D01*
X110096535Y-65338677D01*
X110085102Y-65376364D01*
X110066534Y-65411103D01*
X110041548Y-65441548D01*
X110011103Y-65466534D01*
X109976364Y-65485102D01*
X109938677Y-65496535D01*
X109893339Y-65501000D01*
X109056661Y-65501000D01*
X109011323Y-65496535D01*
X108973636Y-65485102D01*
X108938897Y-65466534D01*
X108908452Y-65441548D01*
X108883466Y-65411103D01*
X108864898Y-65376364D01*
X108853465Y-65338677D01*
X108849000Y-65293339D01*
X108849000Y-64206661D01*
X108853465Y-64161323D01*
X108864898Y-64123636D01*
X108883466Y-64088897D01*
X108908452Y-64058452D01*
X108938897Y-64033466D01*
X108973636Y-64014898D01*
X109011323Y-64003465D01*
X109056661Y-63999000D01*
X109893339Y-63999000D01*
X109938677Y-64003465D01*
X109938677Y-64003465D01*
G37*
G36*
X111988677Y-64003465D02*
X112026364Y-64014898D01*
X112061103Y-64033466D01*
X112091548Y-64058452D01*
X112116534Y-64088897D01*
X112135102Y-64123636D01*
X112146535Y-64161323D01*
X112151000Y-64206661D01*
X112151000Y-65293339D01*
X112146535Y-65338677D01*
X112135102Y-65376364D01*
X112116534Y-65411103D01*
X112091548Y-65441548D01*
X112061103Y-65466534D01*
X112026364Y-65485102D01*
X111988677Y-65496535D01*
X111943339Y-65501000D01*
X111106661Y-65501000D01*
X111061323Y-65496535D01*
X111023636Y-65485102D01*
X110988897Y-65466534D01*
X110958452Y-65441548D01*
X110933466Y-65411103D01*
X110914898Y-65376364D01*
X110903465Y-65338677D01*
X110899000Y-65293339D01*
X110899000Y-64206661D01*
X110903465Y-64161323D01*
X110914898Y-64123636D01*
X110933466Y-64088897D01*
X110958452Y-64058452D01*
X110988897Y-64033466D01*
X111023636Y-64014898D01*
X111061323Y-64003465D01*
X111106661Y-63999000D01*
X111943339Y-63999000D01*
X111988677Y-64003465D01*
X111988677Y-64003465D01*
G37*
G36*
X119488677Y-64003465D02*
X119526364Y-64014898D01*
X119561103Y-64033466D01*
X119591548Y-64058452D01*
X119616534Y-64088897D01*
X119635102Y-64123636D01*
X119646535Y-64161323D01*
X119651000Y-64206661D01*
X119651000Y-65293339D01*
X119646535Y-65338677D01*
X119635102Y-65376364D01*
X119616534Y-65411103D01*
X119591548Y-65441548D01*
X119561103Y-65466534D01*
X119526364Y-65485102D01*
X119488677Y-65496535D01*
X119443339Y-65501000D01*
X118606661Y-65501000D01*
X118561323Y-65496535D01*
X118523636Y-65485102D01*
X118488897Y-65466534D01*
X118458452Y-65441548D01*
X118433466Y-65411103D01*
X118414898Y-65376364D01*
X118403465Y-65338677D01*
X118399000Y-65293339D01*
X118399000Y-64206661D01*
X118403465Y-64161323D01*
X118414898Y-64123636D01*
X118433466Y-64088897D01*
X118458452Y-64058452D01*
X118488897Y-64033466D01*
X118523636Y-64014898D01*
X118561323Y-64003465D01*
X118606661Y-63999000D01*
X119443339Y-63999000D01*
X119488677Y-64003465D01*
X119488677Y-64003465D01*
G37*
G36*
X182477870Y-65500261D02*
X181575870Y-65500261D01*
X181575870Y-64498261D01*
X182477870Y-64498261D01*
X182477870Y-65500261D01*
X182477870Y-65500261D01*
G37*
G36*
X184377870Y-65500261D02*
X183475870Y-65500261D01*
X183475870Y-64498261D01*
X184377870Y-64498261D01*
X184377870Y-65500261D01*
X184377870Y-65500261D01*
G37*
G36*
X176677869Y-65450261D02*
X175775869Y-65450261D01*
X175775869Y-64448261D01*
X176677869Y-64448261D01*
X176677869Y-65450261D01*
X176677869Y-65450261D01*
G37*
G36*
X174777869Y-65450261D02*
X173875869Y-65450261D01*
X173875869Y-64448261D01*
X174777869Y-64448261D01*
X174777869Y-65450261D01*
X174777869Y-65450261D01*
G37*
G36*
X125288501Y-65313889D02*
X124186501Y-65313889D01*
X124186501Y-64211889D01*
X125288501Y-64211889D01*
X125288501Y-65313889D01*
X125288501Y-65313889D01*
G37*
G36*
X130788500Y-65313889D02*
X129686500Y-65313889D01*
X129686500Y-64211889D01*
X130788500Y-64211889D01*
X130788500Y-65313889D01*
X130788500Y-65313889D01*
G37*
G36*
X133288500Y-65313889D02*
X132186500Y-65313889D01*
X132186500Y-64211889D01*
X133288500Y-64211889D01*
X133288500Y-65313889D01*
X133288500Y-65313889D01*
G37*
G36*
X127788501Y-65313889D02*
X126686501Y-65313889D01*
X126686501Y-64211889D01*
X127788501Y-64211889D01*
X127788501Y-65313889D01*
X127788501Y-65313889D01*
G37*
G36*
X166877871Y-65300261D02*
X165975871Y-65300261D01*
X165975871Y-64298261D01*
X166877871Y-64298261D01*
X166877871Y-65300261D01*
X166877871Y-65300261D01*
G37*
G36*
X168777871Y-65300261D02*
X167875871Y-65300261D01*
X167875871Y-64298261D01*
X168777871Y-64298261D01*
X168777871Y-65300261D01*
X168777871Y-65300261D01*
G37*
G36*
X92501000Y-65201000D02*
X91499000Y-65201000D01*
X91499000Y-64299000D01*
X92501000Y-64299000D01*
X92501000Y-65201000D01*
X92501000Y-65201000D01*
G37*
G36*
X144801000Y-64801000D02*
X143699000Y-64801000D01*
X143699000Y-63699000D01*
X144801000Y-63699000D01*
X144801000Y-64801000D01*
X144801000Y-64801000D01*
G37*
G36*
X140451000Y-64751000D02*
X139549000Y-64751000D01*
X139549000Y-63749000D01*
X140451000Y-63749000D01*
X140451000Y-64751000D01*
X140451000Y-64751000D01*
G37*
G36*
X156101000Y-64301000D02*
X154999000Y-64301000D01*
X154999000Y-63199000D01*
X156101000Y-63199000D01*
X156101000Y-64301000D01*
X156101000Y-64301000D01*
G37*
G36*
X87501000Y-64251000D02*
X86599000Y-64251000D01*
X86599000Y-63249000D01*
X87501000Y-63249000D01*
X87501000Y-64251000D01*
X87501000Y-64251000D01*
G37*
G36*
X89401000Y-64251000D02*
X88499000Y-64251000D01*
X88499000Y-63249000D01*
X89401000Y-63249000D01*
X89401000Y-64251000D01*
X89401000Y-64251000D01*
G37*
G36*
X94501000Y-64251000D02*
X93499000Y-64251000D01*
X93499000Y-63349000D01*
X94501000Y-63349000D01*
X94501000Y-64251000D01*
X94501000Y-64251000D01*
G37*
G36*
X96938677Y-62503465D02*
X96976364Y-62514898D01*
X97011103Y-62533466D01*
X97041548Y-62558452D01*
X97066534Y-62588897D01*
X97085102Y-62623636D01*
X97096535Y-62661323D01*
X97101000Y-62706661D01*
X97101000Y-63793339D01*
X97096535Y-63838677D01*
X97085102Y-63876364D01*
X97066534Y-63911103D01*
X97041548Y-63941548D01*
X97011103Y-63966534D01*
X96976364Y-63985102D01*
X96938677Y-63996535D01*
X96893339Y-64001000D01*
X96056661Y-64001000D01*
X96011323Y-63996535D01*
X95973636Y-63985102D01*
X95938897Y-63966534D01*
X95908452Y-63941548D01*
X95883466Y-63911103D01*
X95864898Y-63876364D01*
X95853465Y-63838677D01*
X95849000Y-63793339D01*
X95849000Y-62706661D01*
X95853465Y-62661323D01*
X95864898Y-62623636D01*
X95883466Y-62588897D01*
X95908452Y-62558452D01*
X95938897Y-62533466D01*
X95973636Y-62514898D01*
X96011323Y-62503465D01*
X96056661Y-62499000D01*
X96893339Y-62499000D01*
X96938677Y-62503465D01*
X96938677Y-62503465D01*
G37*
G36*
X98988677Y-62503465D02*
X99026364Y-62514898D01*
X99061103Y-62533466D01*
X99091548Y-62558452D01*
X99116534Y-62588897D01*
X99135102Y-62623636D01*
X99146535Y-62661323D01*
X99151000Y-62706661D01*
X99151000Y-63793339D01*
X99146535Y-63838677D01*
X99135102Y-63876364D01*
X99116534Y-63911103D01*
X99091548Y-63941548D01*
X99061103Y-63966534D01*
X99026364Y-63985102D01*
X98988677Y-63996535D01*
X98943339Y-64001000D01*
X98106661Y-64001000D01*
X98061323Y-63996535D01*
X98023636Y-63985102D01*
X97988897Y-63966534D01*
X97958452Y-63941548D01*
X97933466Y-63911103D01*
X97914898Y-63876364D01*
X97903465Y-63838677D01*
X97899000Y-63793339D01*
X97899000Y-62706661D01*
X97903465Y-62661323D01*
X97914898Y-62623636D01*
X97933466Y-62588897D01*
X97958452Y-62558452D01*
X97988897Y-62533466D01*
X98023636Y-62514898D01*
X98061323Y-62503465D01*
X98106661Y-62499000D01*
X98943339Y-62499000D01*
X98988677Y-62503465D01*
X98988677Y-62503465D01*
G37*
G36*
X150801000Y-63751000D02*
X149899000Y-63751000D01*
X149899000Y-62749000D01*
X150801000Y-62749000D01*
X150801000Y-63751000D01*
X150801000Y-63751000D01*
G37*
G36*
X152701000Y-63751000D02*
X151799000Y-63751000D01*
X151799000Y-62749000D01*
X152701000Y-62749000D01*
X152701000Y-63751000D01*
X152701000Y-63751000D01*
G37*
G36*
X159084776Y-63704309D02*
X158182776Y-63704309D01*
X158182776Y-62702309D01*
X159084776Y-62702309D01*
X159084776Y-63704309D01*
X159084776Y-63704309D01*
G37*
G36*
X160984776Y-63704309D02*
X160082776Y-63704309D01*
X160082776Y-62702309D01*
X160984776Y-62702309D01*
X160984776Y-63704309D01*
X160984776Y-63704309D01*
G37*
G36*
X103610442Y-61895518D02*
X103676627Y-61902037D01*
X103789853Y-61936384D01*
X103846467Y-61953557D01*
X103985087Y-62027652D01*
X104002991Y-62037222D01*
X104038729Y-62066552D01*
X104140186Y-62149814D01*
X104223448Y-62251271D01*
X104252778Y-62287009D01*
X104252779Y-62287011D01*
X104336443Y-62443533D01*
X104336443Y-62443534D01*
X104387963Y-62613373D01*
X104405359Y-62790000D01*
X104387963Y-62966627D01*
X104353616Y-63079853D01*
X104336443Y-63136467D01*
X104303018Y-63199000D01*
X104252778Y-63292991D01*
X104246205Y-63301000D01*
X104140186Y-63430186D01*
X104054798Y-63500261D01*
X104002991Y-63542778D01*
X104002989Y-63542779D01*
X103846467Y-63626443D01*
X103789853Y-63643616D01*
X103676627Y-63677963D01*
X103610443Y-63684481D01*
X103544260Y-63691000D01*
X103455740Y-63691000D01*
X103389557Y-63684481D01*
X103323373Y-63677963D01*
X103210147Y-63643616D01*
X103153533Y-63626443D01*
X102997011Y-63542779D01*
X102997009Y-63542778D01*
X102945202Y-63500261D01*
X102859814Y-63430186D01*
X102753795Y-63301000D01*
X102747222Y-63292991D01*
X102696982Y-63199000D01*
X102663557Y-63136467D01*
X102646384Y-63079853D01*
X102612037Y-62966627D01*
X102594641Y-62790000D01*
X102612037Y-62613373D01*
X102663557Y-62443534D01*
X102663557Y-62443533D01*
X102747221Y-62287011D01*
X102747222Y-62287009D01*
X102776552Y-62251271D01*
X102859814Y-62149814D01*
X102961271Y-62066552D01*
X102997009Y-62037222D01*
X103014913Y-62027652D01*
X103153533Y-61953557D01*
X103210147Y-61936384D01*
X103323373Y-61902037D01*
X103389558Y-61895518D01*
X103455740Y-61889000D01*
X103544260Y-61889000D01*
X103610442Y-61895518D01*
X103610442Y-61895518D01*
G37*
G36*
X187001000Y-63601000D02*
X185899000Y-63601000D01*
X185899000Y-62499000D01*
X187001000Y-62499000D01*
X187001000Y-63601000D01*
X187001000Y-63601000D01*
G37*
G36*
X179801000Y-63551000D02*
X178699000Y-63551000D01*
X178699000Y-62449000D01*
X179801000Y-62449000D01*
X179801000Y-63551000D01*
X179801000Y-63551000D01*
G37*
G36*
X183427870Y-63500261D02*
X182525870Y-63500261D01*
X182525870Y-62498261D01*
X183427870Y-62498261D01*
X183427870Y-63500261D01*
X183427870Y-63500261D01*
G37*
G36*
X175727869Y-63450261D02*
X174825869Y-63450261D01*
X174825869Y-62448261D01*
X175727869Y-62448261D01*
X175727869Y-63450261D01*
X175727869Y-63450261D01*
G37*
G36*
X171427870Y-63401000D02*
X170325870Y-63401000D01*
X170325870Y-62299000D01*
X171427870Y-62299000D01*
X171427870Y-63401000D01*
X171427870Y-63401000D01*
G37*
G36*
X113801000Y-63301000D02*
X112699000Y-63301000D01*
X112699000Y-62199000D01*
X113801000Y-62199000D01*
X113801000Y-63301000D01*
X113801000Y-63301000D01*
G37*
G36*
X122801000Y-63301000D02*
X121699000Y-63301000D01*
X121699000Y-62199000D01*
X122801000Y-62199000D01*
X122801000Y-63301000D01*
X122801000Y-63301000D01*
G37*
G36*
X163851000Y-63301000D02*
X162749000Y-63301000D01*
X162749000Y-62199000D01*
X163851000Y-62199000D01*
X163851000Y-63301000D01*
X163851000Y-63301000D01*
G37*
G36*
X167827871Y-63300261D02*
X166925871Y-63300261D01*
X166925871Y-62298261D01*
X167827871Y-62298261D01*
X167827871Y-63300261D01*
X167827871Y-63300261D01*
G37*
G36*
X117501000Y-62751001D02*
X116599000Y-62751001D01*
X116599000Y-61749001D01*
X117501000Y-61749001D01*
X117501000Y-62751001D01*
X117501000Y-62751001D01*
G37*
G36*
X119401000Y-62751001D02*
X118499000Y-62751001D01*
X118499000Y-61749001D01*
X119401000Y-61749001D01*
X119401000Y-62751001D01*
X119401000Y-62751001D01*
G37*
G36*
X108751000Y-62751000D02*
X107849000Y-62751000D01*
X107849000Y-61749000D01*
X108751000Y-61749000D01*
X108751000Y-62751000D01*
X108751000Y-62751000D01*
G37*
G36*
X110651000Y-62751000D02*
X109749000Y-62751000D01*
X109749000Y-61749000D01*
X110651000Y-61749000D01*
X110651000Y-62751000D01*
X110651000Y-62751000D01*
G37*
G36*
X156101000Y-61801000D02*
X154999000Y-61801000D01*
X154999000Y-60699000D01*
X156101000Y-60699000D01*
X156101000Y-61801000D01*
X156101000Y-61801000D01*
G37*
G36*
X151751000Y-61751000D02*
X150849000Y-61751000D01*
X150849000Y-60749000D01*
X151751000Y-60749000D01*
X151751000Y-61751000D01*
X151751000Y-61751000D01*
G37*
G36*
X160034776Y-61704309D02*
X159132776Y-61704309D01*
X159132776Y-60702309D01*
X160034776Y-60702309D01*
X160034776Y-61704309D01*
X160034776Y-61704309D01*
G37*
G36*
X127660442Y-59355518D02*
X127726627Y-59362037D01*
X127839853Y-59396384D01*
X127896467Y-59413557D01*
X128035087Y-59487652D01*
X128052991Y-59497222D01*
X128088729Y-59526552D01*
X128190186Y-59609814D01*
X128263378Y-59699000D01*
X128302778Y-59747009D01*
X128302779Y-59747011D01*
X128386443Y-59903533D01*
X128386443Y-59903534D01*
X128437963Y-60073373D01*
X128455359Y-60250000D01*
X128437963Y-60426627D01*
X128403616Y-60539853D01*
X128386443Y-60596467D01*
X128331637Y-60699000D01*
X128302778Y-60752991D01*
X128273448Y-60788729D01*
X128190186Y-60890186D01*
X128088729Y-60973448D01*
X128052991Y-61002778D01*
X128052989Y-61002779D01*
X127896467Y-61086443D01*
X127839853Y-61103616D01*
X127726627Y-61137963D01*
X127660443Y-61144481D01*
X127594260Y-61151000D01*
X127505740Y-61151000D01*
X127439557Y-61144481D01*
X127373373Y-61137963D01*
X127260147Y-61103616D01*
X127203533Y-61086443D01*
X127047011Y-61002779D01*
X127047009Y-61002778D01*
X127011271Y-60973448D01*
X126909814Y-60890186D01*
X126826552Y-60788729D01*
X126797222Y-60752991D01*
X126768363Y-60699000D01*
X126713557Y-60596467D01*
X126696384Y-60539853D01*
X126662037Y-60426627D01*
X126644641Y-60250000D01*
X126662037Y-60073373D01*
X126713557Y-59903534D01*
X126713557Y-59903533D01*
X126797221Y-59747011D01*
X126797222Y-59747009D01*
X126836622Y-59699000D01*
X126909814Y-59609814D01*
X127011271Y-59526552D01*
X127047009Y-59497222D01*
X127064913Y-59487652D01*
X127203533Y-59413557D01*
X127260147Y-59396384D01*
X127373373Y-59362037D01*
X127439558Y-59355518D01*
X127505740Y-59349000D01*
X127594260Y-59349000D01*
X127660442Y-59355518D01*
X127660442Y-59355518D01*
G37*
G36*
X104401000Y-61151000D02*
X102599000Y-61151000D01*
X102599000Y-59349000D01*
X104401000Y-59349000D01*
X104401000Y-61151000D01*
X104401000Y-61151000D01*
G37*
G36*
X130200442Y-59355518D02*
X130266627Y-59362037D01*
X130379853Y-59396384D01*
X130436467Y-59413557D01*
X130575087Y-59487652D01*
X130592991Y-59497222D01*
X130628729Y-59526552D01*
X130730186Y-59609814D01*
X130803378Y-59699000D01*
X130842778Y-59747009D01*
X130842779Y-59747011D01*
X130926443Y-59903533D01*
X130926443Y-59903534D01*
X130977963Y-60073373D01*
X130995359Y-60250000D01*
X130977963Y-60426627D01*
X130943616Y-60539853D01*
X130926443Y-60596467D01*
X130871637Y-60699000D01*
X130842778Y-60752991D01*
X130813448Y-60788729D01*
X130730186Y-60890186D01*
X130628729Y-60973448D01*
X130592991Y-61002778D01*
X130592989Y-61002779D01*
X130436467Y-61086443D01*
X130379853Y-61103616D01*
X130266627Y-61137963D01*
X130200443Y-61144481D01*
X130134260Y-61151000D01*
X130045740Y-61151000D01*
X129979557Y-61144481D01*
X129913373Y-61137963D01*
X129800147Y-61103616D01*
X129743533Y-61086443D01*
X129587011Y-61002779D01*
X129587009Y-61002778D01*
X129551271Y-60973448D01*
X129449814Y-60890186D01*
X129366552Y-60788729D01*
X129337222Y-60752991D01*
X129308363Y-60699000D01*
X129253557Y-60596467D01*
X129236384Y-60539853D01*
X129202037Y-60426627D01*
X129184641Y-60250000D01*
X129202037Y-60073373D01*
X129253557Y-59903534D01*
X129253557Y-59903533D01*
X129337221Y-59747011D01*
X129337222Y-59747009D01*
X129376622Y-59699000D01*
X129449814Y-59609814D01*
X129551271Y-59526552D01*
X129587009Y-59497222D01*
X129604913Y-59487652D01*
X129743533Y-59413557D01*
X129800147Y-59396384D01*
X129913373Y-59362037D01*
X129979558Y-59355518D01*
X130045740Y-59349000D01*
X130134260Y-59349000D01*
X130200442Y-59355518D01*
X130200442Y-59355518D01*
G37*
G36*
X132740442Y-59355518D02*
X132806627Y-59362037D01*
X132919853Y-59396384D01*
X132976467Y-59413557D01*
X133115087Y-59487652D01*
X133132991Y-59497222D01*
X133168729Y-59526552D01*
X133270186Y-59609814D01*
X133343378Y-59699000D01*
X133382778Y-59747009D01*
X133382779Y-59747011D01*
X133466443Y-59903533D01*
X133466443Y-59903534D01*
X133517963Y-60073373D01*
X133535359Y-60250000D01*
X133517963Y-60426627D01*
X133483616Y-60539853D01*
X133466443Y-60596467D01*
X133411637Y-60699000D01*
X133382778Y-60752991D01*
X133353448Y-60788729D01*
X133270186Y-60890186D01*
X133168729Y-60973448D01*
X133132991Y-61002778D01*
X133132989Y-61002779D01*
X132976467Y-61086443D01*
X132919853Y-61103616D01*
X132806627Y-61137963D01*
X132740443Y-61144481D01*
X132674260Y-61151000D01*
X132585740Y-61151000D01*
X132519557Y-61144481D01*
X132453373Y-61137963D01*
X132340147Y-61103616D01*
X132283533Y-61086443D01*
X132127011Y-61002779D01*
X132127009Y-61002778D01*
X132091271Y-60973448D01*
X131989814Y-60890186D01*
X131906552Y-60788729D01*
X131877222Y-60752991D01*
X131848363Y-60699000D01*
X131793557Y-60596467D01*
X131776384Y-60539853D01*
X131742037Y-60426627D01*
X131724641Y-60250000D01*
X131742037Y-60073373D01*
X131793557Y-59903534D01*
X131793557Y-59903533D01*
X131877221Y-59747011D01*
X131877222Y-59747009D01*
X131916622Y-59699000D01*
X131989814Y-59609814D01*
X132091271Y-59526552D01*
X132127009Y-59497222D01*
X132144913Y-59487652D01*
X132283533Y-59413557D01*
X132340147Y-59396384D01*
X132453373Y-59362037D01*
X132519558Y-59355518D01*
X132585740Y-59349000D01*
X132674260Y-59349000D01*
X132740442Y-59355518D01*
X132740442Y-59355518D01*
G37*
G36*
X135280442Y-59355518D02*
X135346627Y-59362037D01*
X135459853Y-59396384D01*
X135516467Y-59413557D01*
X135655087Y-59487652D01*
X135672991Y-59497222D01*
X135708729Y-59526552D01*
X135810186Y-59609814D01*
X135883378Y-59699000D01*
X135922778Y-59747009D01*
X135922779Y-59747011D01*
X136006443Y-59903533D01*
X136006443Y-59903534D01*
X136057963Y-60073373D01*
X136075359Y-60250000D01*
X136057963Y-60426627D01*
X136023616Y-60539853D01*
X136006443Y-60596467D01*
X135951637Y-60699000D01*
X135922778Y-60752991D01*
X135893448Y-60788729D01*
X135810186Y-60890186D01*
X135708729Y-60973448D01*
X135672991Y-61002778D01*
X135672989Y-61002779D01*
X135516467Y-61086443D01*
X135459853Y-61103616D01*
X135346627Y-61137963D01*
X135280443Y-61144481D01*
X135214260Y-61151000D01*
X135125740Y-61151000D01*
X135059557Y-61144481D01*
X134993373Y-61137963D01*
X134880147Y-61103616D01*
X134823533Y-61086443D01*
X134667011Y-61002779D01*
X134667009Y-61002778D01*
X134631271Y-60973448D01*
X134529814Y-60890186D01*
X134446552Y-60788729D01*
X134417222Y-60752991D01*
X134388363Y-60699000D01*
X134333557Y-60596467D01*
X134316384Y-60539853D01*
X134282037Y-60426627D01*
X134264641Y-60250000D01*
X134282037Y-60073373D01*
X134333557Y-59903534D01*
X134333557Y-59903533D01*
X134417221Y-59747011D01*
X134417222Y-59747009D01*
X134456622Y-59699000D01*
X134529814Y-59609814D01*
X134631271Y-59526552D01*
X134667009Y-59497222D01*
X134684913Y-59487652D01*
X134823533Y-59413557D01*
X134880147Y-59396384D01*
X134993373Y-59362037D01*
X135059558Y-59355518D01*
X135125740Y-59349000D01*
X135214260Y-59349000D01*
X135280442Y-59355518D01*
X135280442Y-59355518D01*
G37*
G36*
X137820442Y-59355518D02*
X137886627Y-59362037D01*
X137999853Y-59396384D01*
X138056467Y-59413557D01*
X138195087Y-59487652D01*
X138212991Y-59497222D01*
X138248729Y-59526552D01*
X138350186Y-59609814D01*
X138423378Y-59699000D01*
X138462778Y-59747009D01*
X138462779Y-59747011D01*
X138546443Y-59903533D01*
X138546443Y-59903534D01*
X138597963Y-60073373D01*
X138615359Y-60250000D01*
X138597963Y-60426627D01*
X138563616Y-60539853D01*
X138546443Y-60596467D01*
X138491637Y-60699000D01*
X138462778Y-60752991D01*
X138433448Y-60788729D01*
X138350186Y-60890186D01*
X138248729Y-60973448D01*
X138212991Y-61002778D01*
X138212989Y-61002779D01*
X138056467Y-61086443D01*
X137999853Y-61103616D01*
X137886627Y-61137963D01*
X137820443Y-61144481D01*
X137754260Y-61151000D01*
X137665740Y-61151000D01*
X137599557Y-61144481D01*
X137533373Y-61137963D01*
X137420147Y-61103616D01*
X137363533Y-61086443D01*
X137207011Y-61002779D01*
X137207009Y-61002778D01*
X137171271Y-60973448D01*
X137069814Y-60890186D01*
X136986552Y-60788729D01*
X136957222Y-60752991D01*
X136928363Y-60699000D01*
X136873557Y-60596467D01*
X136856384Y-60539853D01*
X136822037Y-60426627D01*
X136804641Y-60250000D01*
X136822037Y-60073373D01*
X136873557Y-59903534D01*
X136873557Y-59903533D01*
X136957221Y-59747011D01*
X136957222Y-59747009D01*
X136996622Y-59699000D01*
X137069814Y-59609814D01*
X137171271Y-59526552D01*
X137207009Y-59497222D01*
X137224913Y-59487652D01*
X137363533Y-59413557D01*
X137420147Y-59396384D01*
X137533373Y-59362037D01*
X137599558Y-59355518D01*
X137665740Y-59349000D01*
X137754260Y-59349000D01*
X137820442Y-59355518D01*
X137820442Y-59355518D01*
G37*
G36*
X141151000Y-61151000D02*
X139349000Y-61151000D01*
X139349000Y-59349000D01*
X141151000Y-59349000D01*
X141151000Y-61151000D01*
X141151000Y-61151000D01*
G37*
G36*
X113801000Y-60801000D02*
X112699000Y-60801000D01*
X112699000Y-59699000D01*
X113801000Y-59699000D01*
X113801000Y-60801000D01*
X113801000Y-60801000D01*
G37*
G36*
X122801000Y-60801000D02*
X121699000Y-60801000D01*
X121699000Y-59699000D01*
X122801000Y-59699000D01*
X122801000Y-60801000D01*
X122801000Y-60801000D01*
G37*
G36*
X118451000Y-60751001D02*
X117549000Y-60751001D01*
X117549000Y-59749001D01*
X118451000Y-59749001D01*
X118451000Y-60751001D01*
X118451000Y-60751001D01*
G37*
G36*
X109701000Y-60751000D02*
X108799000Y-60751000D01*
X108799000Y-59749000D01*
X109701000Y-59749000D01*
X109701000Y-60751000D01*
X109701000Y-60751000D01*
G37*
G36*
X170190442Y-57605518D02*
X170256627Y-57612037D01*
X170369853Y-57646384D01*
X170426467Y-57663557D01*
X170565087Y-57737652D01*
X170582991Y-57747222D01*
X170618729Y-57776552D01*
X170720186Y-57859814D01*
X170803448Y-57961271D01*
X170832778Y-57997009D01*
X170832779Y-57997011D01*
X170916443Y-58153533D01*
X170916443Y-58153534D01*
X170967963Y-58323373D01*
X170985359Y-58500000D01*
X170967963Y-58676627D01*
X170933616Y-58789853D01*
X170916443Y-58846467D01*
X170842348Y-58985087D01*
X170832778Y-59002991D01*
X170803448Y-59038729D01*
X170720186Y-59140186D01*
X170618729Y-59223448D01*
X170582991Y-59252778D01*
X170582989Y-59252779D01*
X170426467Y-59336443D01*
X170385071Y-59349000D01*
X170256627Y-59387963D01*
X170190443Y-59394481D01*
X170124260Y-59401000D01*
X170035740Y-59401000D01*
X169969557Y-59394481D01*
X169903373Y-59387963D01*
X169774929Y-59349000D01*
X169733533Y-59336443D01*
X169577011Y-59252779D01*
X169577009Y-59252778D01*
X169541271Y-59223448D01*
X169439814Y-59140186D01*
X169356552Y-59038729D01*
X169327222Y-59002991D01*
X169317652Y-58985087D01*
X169243557Y-58846467D01*
X169226384Y-58789853D01*
X169192037Y-58676627D01*
X169174641Y-58500000D01*
X169192037Y-58323373D01*
X169243557Y-58153534D01*
X169243557Y-58153533D01*
X169327221Y-57997011D01*
X169327222Y-57997009D01*
X169356552Y-57961271D01*
X169439814Y-57859814D01*
X169541271Y-57776552D01*
X169577009Y-57747222D01*
X169594913Y-57737652D01*
X169733533Y-57663557D01*
X169790147Y-57646384D01*
X169903373Y-57612037D01*
X169969558Y-57605518D01*
X170035740Y-57599000D01*
X170124260Y-57599000D01*
X170190442Y-57605518D01*
X170190442Y-57605518D01*
G37*
G36*
X172730442Y-57605518D02*
X172796627Y-57612037D01*
X172909853Y-57646384D01*
X172966467Y-57663557D01*
X173105087Y-57737652D01*
X173122991Y-57747222D01*
X173158729Y-57776552D01*
X173260186Y-57859814D01*
X173343448Y-57961271D01*
X173372778Y-57997009D01*
X173372779Y-57997011D01*
X173456443Y-58153533D01*
X173456443Y-58153534D01*
X173507963Y-58323373D01*
X173525359Y-58500000D01*
X173507963Y-58676627D01*
X173473616Y-58789853D01*
X173456443Y-58846467D01*
X173382348Y-58985087D01*
X173372778Y-59002991D01*
X173343448Y-59038729D01*
X173260186Y-59140186D01*
X173158729Y-59223448D01*
X173122991Y-59252778D01*
X173122989Y-59252779D01*
X172966467Y-59336443D01*
X172925071Y-59349000D01*
X172796627Y-59387963D01*
X172730443Y-59394481D01*
X172664260Y-59401000D01*
X172575740Y-59401000D01*
X172509557Y-59394481D01*
X172443373Y-59387963D01*
X172314929Y-59349000D01*
X172273533Y-59336443D01*
X172117011Y-59252779D01*
X172117009Y-59252778D01*
X172081271Y-59223448D01*
X171979814Y-59140186D01*
X171896552Y-59038729D01*
X171867222Y-59002991D01*
X171857652Y-58985087D01*
X171783557Y-58846467D01*
X171766384Y-58789853D01*
X171732037Y-58676627D01*
X171714641Y-58500000D01*
X171732037Y-58323373D01*
X171783557Y-58153534D01*
X171783557Y-58153533D01*
X171867221Y-57997011D01*
X171867222Y-57997009D01*
X171896552Y-57961271D01*
X171979814Y-57859814D01*
X172081271Y-57776552D01*
X172117009Y-57747222D01*
X172134913Y-57737652D01*
X172273533Y-57663557D01*
X172330147Y-57646384D01*
X172443373Y-57612037D01*
X172509558Y-57605518D01*
X172575740Y-57599000D01*
X172664260Y-57599000D01*
X172730442Y-57605518D01*
X172730442Y-57605518D01*
G37*
G36*
X177810442Y-57605518D02*
X177876627Y-57612037D01*
X177989853Y-57646384D01*
X178046467Y-57663557D01*
X178185087Y-57737652D01*
X178202991Y-57747222D01*
X178238729Y-57776552D01*
X178340186Y-57859814D01*
X178423448Y-57961271D01*
X178452778Y-57997009D01*
X178452779Y-57997011D01*
X178536443Y-58153533D01*
X178536443Y-58153534D01*
X178587963Y-58323373D01*
X178605359Y-58500000D01*
X178587963Y-58676627D01*
X178553616Y-58789853D01*
X178536443Y-58846467D01*
X178462348Y-58985087D01*
X178452778Y-59002991D01*
X178423448Y-59038729D01*
X178340186Y-59140186D01*
X178238729Y-59223448D01*
X178202991Y-59252778D01*
X178202989Y-59252779D01*
X178046467Y-59336443D01*
X178005071Y-59349000D01*
X177876627Y-59387963D01*
X177810443Y-59394481D01*
X177744260Y-59401000D01*
X177655740Y-59401000D01*
X177589557Y-59394481D01*
X177523373Y-59387963D01*
X177394929Y-59349000D01*
X177353533Y-59336443D01*
X177197011Y-59252779D01*
X177197009Y-59252778D01*
X177161271Y-59223448D01*
X177059814Y-59140186D01*
X176976552Y-59038729D01*
X176947222Y-59002991D01*
X176937652Y-58985087D01*
X176863557Y-58846467D01*
X176846384Y-58789853D01*
X176812037Y-58676627D01*
X176794641Y-58500000D01*
X176812037Y-58323373D01*
X176863557Y-58153534D01*
X176863557Y-58153533D01*
X176947221Y-57997011D01*
X176947222Y-57997009D01*
X176976552Y-57961271D01*
X177059814Y-57859814D01*
X177161271Y-57776552D01*
X177197009Y-57747222D01*
X177214913Y-57737652D01*
X177353533Y-57663557D01*
X177410147Y-57646384D01*
X177523373Y-57612037D01*
X177589558Y-57605518D01*
X177655740Y-57599000D01*
X177744260Y-57599000D01*
X177810442Y-57605518D01*
X177810442Y-57605518D01*
G37*
G36*
X167650442Y-57605518D02*
X167716627Y-57612037D01*
X167829853Y-57646384D01*
X167886467Y-57663557D01*
X168025087Y-57737652D01*
X168042991Y-57747222D01*
X168078729Y-57776552D01*
X168180186Y-57859814D01*
X168263448Y-57961271D01*
X168292778Y-57997009D01*
X168292779Y-57997011D01*
X168376443Y-58153533D01*
X168376443Y-58153534D01*
X168427963Y-58323373D01*
X168445359Y-58500000D01*
X168427963Y-58676627D01*
X168393616Y-58789853D01*
X168376443Y-58846467D01*
X168302348Y-58985087D01*
X168292778Y-59002991D01*
X168263448Y-59038729D01*
X168180186Y-59140186D01*
X168078729Y-59223448D01*
X168042991Y-59252778D01*
X168042989Y-59252779D01*
X167886467Y-59336443D01*
X167845071Y-59349000D01*
X167716627Y-59387963D01*
X167650443Y-59394481D01*
X167584260Y-59401000D01*
X167495740Y-59401000D01*
X167429557Y-59394481D01*
X167363373Y-59387963D01*
X167234929Y-59349000D01*
X167193533Y-59336443D01*
X167037011Y-59252779D01*
X167037009Y-59252778D01*
X167001271Y-59223448D01*
X166899814Y-59140186D01*
X166816552Y-59038729D01*
X166787222Y-59002991D01*
X166777652Y-58985087D01*
X166703557Y-58846467D01*
X166686384Y-58789853D01*
X166652037Y-58676627D01*
X166634641Y-58500000D01*
X166652037Y-58323373D01*
X166703557Y-58153534D01*
X166703557Y-58153533D01*
X166787221Y-57997011D01*
X166787222Y-57997009D01*
X166816552Y-57961271D01*
X166899814Y-57859814D01*
X167001271Y-57776552D01*
X167037009Y-57747222D01*
X167054913Y-57737652D01*
X167193533Y-57663557D01*
X167250147Y-57646384D01*
X167363373Y-57612037D01*
X167429558Y-57605518D01*
X167495740Y-57599000D01*
X167584260Y-57599000D01*
X167650442Y-57605518D01*
X167650442Y-57605518D01*
G37*
G36*
X165901000Y-59401000D02*
X164099000Y-59401000D01*
X164099000Y-57599000D01*
X165901000Y-57599000D01*
X165901000Y-59401000D01*
X165901000Y-59401000D01*
G37*
G36*
X175270442Y-57605518D02*
X175336627Y-57612037D01*
X175449853Y-57646384D01*
X175506467Y-57663557D01*
X175645087Y-57737652D01*
X175662991Y-57747222D01*
X175698729Y-57776552D01*
X175800186Y-57859814D01*
X175883448Y-57961271D01*
X175912778Y-57997009D01*
X175912779Y-57997011D01*
X175996443Y-58153533D01*
X175996443Y-58153534D01*
X176047963Y-58323373D01*
X176065359Y-58500000D01*
X176047963Y-58676627D01*
X176013616Y-58789853D01*
X175996443Y-58846467D01*
X175922348Y-58985087D01*
X175912778Y-59002991D01*
X175883448Y-59038729D01*
X175800186Y-59140186D01*
X175698729Y-59223448D01*
X175662991Y-59252778D01*
X175662989Y-59252779D01*
X175506467Y-59336443D01*
X175465071Y-59349000D01*
X175336627Y-59387963D01*
X175270443Y-59394481D01*
X175204260Y-59401000D01*
X175115740Y-59401000D01*
X175049557Y-59394481D01*
X174983373Y-59387963D01*
X174854929Y-59349000D01*
X174813533Y-59336443D01*
X174657011Y-59252779D01*
X174657009Y-59252778D01*
X174621271Y-59223448D01*
X174519814Y-59140186D01*
X174436552Y-59038729D01*
X174407222Y-59002991D01*
X174397652Y-58985087D01*
X174323557Y-58846467D01*
X174306384Y-58789853D01*
X174272037Y-58676627D01*
X174254641Y-58500000D01*
X174272037Y-58323373D01*
X174323557Y-58153534D01*
X174323557Y-58153533D01*
X174407221Y-57997011D01*
X174407222Y-57997009D01*
X174436552Y-57961271D01*
X174519814Y-57859814D01*
X174621271Y-57776552D01*
X174657009Y-57747222D01*
X174674913Y-57737652D01*
X174813533Y-57663557D01*
X174870147Y-57646384D01*
X174983373Y-57612037D01*
X175049558Y-57605518D01*
X175115740Y-57599000D01*
X175204260Y-57599000D01*
X175270442Y-57605518D01*
X175270442Y-57605518D01*
G37*
M02*
