G04 #@! TF.GenerationSoftware,KiCad,Pcbnew,(5.0.1)-3*
G04 #@! TF.CreationDate,2021-03-04T13:58:57-05:00*
G04 #@! TF.ProjectId,pilotage,70696C6F746167652E6B696361645F70,rev?*
G04 #@! TF.SameCoordinates,Original*
G04 #@! TF.FileFunction,Soldermask,Bot*
G04 #@! TF.FilePolarity,Negative*
%FSLAX46Y46*%
G04 Gerber Fmt 4.6, Leading zero omitted, Abs format (unit mm)*
G04 Created by KiCad (PCBNEW (5.0.1)-3) date 04/03/2021 13:58:57*
%MOMM*%
%LPD*%
G01*
G04 APERTURE LIST*
%ADD10C,0.100000*%
G04 APERTURE END LIST*
D10*
G36*
X186038413Y-96555525D02*
X186113456Y-96578290D01*
X186123425Y-96581314D01*
X186201774Y-96623193D01*
X186270448Y-96679552D01*
X186326807Y-96748226D01*
X186368686Y-96826575D01*
X186368687Y-96826579D01*
X186394475Y-96911587D01*
X186403182Y-97000000D01*
X186394475Y-97088413D01*
X186371710Y-97163456D01*
X186368686Y-97173425D01*
X186326807Y-97251774D01*
X186270448Y-97320448D01*
X186201774Y-97376807D01*
X186123425Y-97418686D01*
X186113456Y-97421710D01*
X186038413Y-97444475D01*
X185972158Y-97451000D01*
X185927842Y-97451000D01*
X185861589Y-97444475D01*
X185826511Y-97433833D01*
X185805476Y-97427453D01*
X185781449Y-97422673D01*
X185756945Y-97422673D01*
X185732911Y-97427453D01*
X185710272Y-97436830D01*
X185689897Y-97450444D01*
X185672570Y-97467770D01*
X185658956Y-97488145D01*
X185649578Y-97510784D01*
X185644797Y-97534817D01*
X185644797Y-97559321D01*
X185649577Y-97583355D01*
X185658954Y-97605994D01*
X185672568Y-97626369D01*
X185689895Y-97643696D01*
X185726368Y-97673630D01*
X185823341Y-97791790D01*
X185823342Y-97791792D01*
X185895399Y-97926601D01*
X185925408Y-98025529D01*
X185939772Y-98072881D01*
X185954754Y-98225000D01*
X185939772Y-98377119D01*
X185895398Y-98523401D01*
X185823341Y-98658210D01*
X185726369Y-98776369D01*
X185608210Y-98873341D01*
X185562043Y-98898018D01*
X185473399Y-98945399D01*
X185354352Y-98981511D01*
X185327119Y-98989772D01*
X185213118Y-99001000D01*
X184586882Y-99001000D01*
X184472881Y-98989772D01*
X184445648Y-98981511D01*
X184326601Y-98945399D01*
X184237957Y-98898018D01*
X184191790Y-98873341D01*
X184073631Y-98776369D01*
X183976659Y-98658210D01*
X183904602Y-98523401D01*
X183860228Y-98377119D01*
X183845246Y-98225000D01*
X183860228Y-98072881D01*
X183874592Y-98025529D01*
X183904601Y-97926601D01*
X183976658Y-97791792D01*
X183976659Y-97791790D01*
X184073631Y-97673631D01*
X184191790Y-97576659D01*
X184326599Y-97504602D01*
X184326601Y-97504601D01*
X184472878Y-97460229D01*
X184472881Y-97460228D01*
X184586882Y-97449000D01*
X185213118Y-97449000D01*
X185327119Y-97460228D01*
X185327122Y-97460229D01*
X185473399Y-97504601D01*
X185473401Y-97504602D01*
X185480792Y-97506844D01*
X185489246Y-97510345D01*
X185513279Y-97515123D01*
X185537784Y-97515121D01*
X185561817Y-97510338D01*
X185584455Y-97500959D01*
X185604828Y-97487344D01*
X185622154Y-97470015D01*
X185635766Y-97449639D01*
X185645142Y-97426999D01*
X185649920Y-97402966D01*
X185649918Y-97378461D01*
X185645135Y-97354428D01*
X185635756Y-97331790D01*
X185622150Y-97311429D01*
X185598504Y-97282615D01*
X185573193Y-97251775D01*
X185559809Y-97226735D01*
X185531314Y-97173425D01*
X185528290Y-97163456D01*
X185505525Y-97088413D01*
X185496818Y-97000000D01*
X185505525Y-96911587D01*
X185531313Y-96826579D01*
X185531314Y-96826575D01*
X185573193Y-96748226D01*
X185629552Y-96679552D01*
X185698226Y-96623193D01*
X185776575Y-96581314D01*
X185786544Y-96578290D01*
X185861587Y-96555525D01*
X185927842Y-96549000D01*
X185972158Y-96549000D01*
X186038413Y-96555525D01*
X186038413Y-96555525D01*
G37*
G36*
X189147714Y-97758058D02*
X189147717Y-97758059D01*
X189265719Y-97793854D01*
X189265721Y-97793855D01*
X189374471Y-97851983D01*
X189469790Y-97930210D01*
X189548017Y-98025529D01*
X189606145Y-98134279D01*
X189641942Y-98252286D01*
X189654028Y-98375000D01*
X189641942Y-98497714D01*
X189606145Y-98615721D01*
X189548017Y-98724471D01*
X189469790Y-98819790D01*
X189374471Y-98898017D01*
X189374469Y-98898018D01*
X189265719Y-98956146D01*
X189169683Y-98985278D01*
X189147714Y-98991942D01*
X189055747Y-99001000D01*
X188344253Y-99001000D01*
X188252286Y-98991942D01*
X188230317Y-98985278D01*
X188134281Y-98956146D01*
X188025531Y-98898018D01*
X188025529Y-98898017D01*
X187930210Y-98819790D01*
X187851983Y-98724471D01*
X187793855Y-98615721D01*
X187758058Y-98497714D01*
X187745972Y-98375000D01*
X187758058Y-98252286D01*
X187793855Y-98134279D01*
X187851983Y-98025529D01*
X187930210Y-97930210D01*
X188025529Y-97851983D01*
X188134279Y-97793855D01*
X188134281Y-97793854D01*
X188252283Y-97758059D01*
X188252286Y-97758058D01*
X188344253Y-97749000D01*
X189055747Y-97749000D01*
X189147714Y-97758058D01*
X189147714Y-97758058D01*
G37*
G36*
X185327119Y-90010228D02*
X185327122Y-90010229D01*
X185473399Y-90054601D01*
X185473401Y-90054602D01*
X185608210Y-90126659D01*
X185726369Y-90223631D01*
X185823341Y-90341790D01*
X185895398Y-90476599D01*
X185939772Y-90622881D01*
X185954754Y-90775000D01*
X185939772Y-90927119D01*
X185939771Y-90927122D01*
X185896494Y-91069790D01*
X185895398Y-91073401D01*
X185823341Y-91208210D01*
X185726368Y-91326370D01*
X185689895Y-91356304D01*
X185672568Y-91373631D01*
X185658954Y-91394006D01*
X185649577Y-91416645D01*
X185644797Y-91440678D01*
X185644797Y-91465183D01*
X185649578Y-91489216D01*
X185658956Y-91511855D01*
X185672570Y-91532229D01*
X185689897Y-91549556D01*
X185710272Y-91563170D01*
X185732911Y-91572547D01*
X185756944Y-91577327D01*
X185781449Y-91577327D01*
X185805476Y-91572547D01*
X185826511Y-91566167D01*
X185861589Y-91555525D01*
X185927842Y-91549000D01*
X185972158Y-91549000D01*
X186038413Y-91555525D01*
X186110281Y-91577327D01*
X186123425Y-91581314D01*
X186201774Y-91623193D01*
X186270448Y-91679552D01*
X186326807Y-91748226D01*
X186368686Y-91826575D01*
X186368687Y-91826579D01*
X186394475Y-91911587D01*
X186403182Y-92000000D01*
X186394475Y-92088413D01*
X186371710Y-92163456D01*
X186368686Y-92173425D01*
X186326807Y-92251774D01*
X186270448Y-92320448D01*
X186201774Y-92376807D01*
X186123425Y-92418686D01*
X186113456Y-92421710D01*
X186038413Y-92444475D01*
X185972158Y-92451000D01*
X185927842Y-92451000D01*
X185861587Y-92444475D01*
X185786544Y-92421710D01*
X185776575Y-92418686D01*
X185698226Y-92376807D01*
X185629552Y-92320448D01*
X185573193Y-92251774D01*
X185531314Y-92173425D01*
X185528290Y-92163456D01*
X185505525Y-92088413D01*
X185496818Y-92000000D01*
X185505525Y-91911587D01*
X185531313Y-91826579D01*
X185531314Y-91826575D01*
X185559809Y-91773265D01*
X185573193Y-91748225D01*
X185598504Y-91717385D01*
X185622150Y-91688571D01*
X185635761Y-91668202D01*
X185645138Y-91645563D01*
X185649919Y-91621529D01*
X185649919Y-91597025D01*
X185645139Y-91572992D01*
X185635762Y-91550352D01*
X185622148Y-91529978D01*
X185604821Y-91512650D01*
X185584447Y-91499036D01*
X185561808Y-91489659D01*
X185537774Y-91484878D01*
X185513270Y-91484878D01*
X185489237Y-91489658D01*
X185480788Y-91493157D01*
X185473401Y-91495398D01*
X185473399Y-91495399D01*
X185351985Y-91532229D01*
X185327119Y-91539772D01*
X185213118Y-91551000D01*
X184586882Y-91551000D01*
X184472881Y-91539772D01*
X184383471Y-91512650D01*
X184326601Y-91495399D01*
X184326599Y-91495398D01*
X184191790Y-91423341D01*
X184073631Y-91326369D01*
X183976659Y-91208210D01*
X183904602Y-91073401D01*
X183903507Y-91069790D01*
X183860229Y-90927122D01*
X183860228Y-90927119D01*
X183845246Y-90775000D01*
X183860228Y-90622881D01*
X183904602Y-90476599D01*
X183976659Y-90341790D01*
X184073631Y-90223631D01*
X184191790Y-90126659D01*
X184326599Y-90054602D01*
X184326601Y-90054601D01*
X184472878Y-90010229D01*
X184472881Y-90010228D01*
X184586882Y-89999000D01*
X185213118Y-89999000D01*
X185327119Y-90010228D01*
X185327119Y-90010228D01*
G37*
G36*
X189147714Y-90008058D02*
X189154871Y-90010229D01*
X189265719Y-90043854D01*
X189265721Y-90043855D01*
X189374471Y-90101983D01*
X189469790Y-90180210D01*
X189548017Y-90275529D01*
X189606145Y-90384279D01*
X189641942Y-90502286D01*
X189654028Y-90625000D01*
X189641942Y-90747714D01*
X189606145Y-90865721D01*
X189548017Y-90974471D01*
X189469790Y-91069790D01*
X189374471Y-91148017D01*
X189374469Y-91148018D01*
X189265719Y-91206146D01*
X189169683Y-91235278D01*
X189147714Y-91241942D01*
X189055747Y-91251000D01*
X188344253Y-91251000D01*
X188252286Y-91241942D01*
X188230317Y-91235278D01*
X188134281Y-91206146D01*
X188025531Y-91148018D01*
X188025529Y-91148017D01*
X187930210Y-91069790D01*
X187851983Y-90974471D01*
X187793855Y-90865721D01*
X187758058Y-90747714D01*
X187745972Y-90625000D01*
X187758058Y-90502286D01*
X187793855Y-90384279D01*
X187851983Y-90275529D01*
X187930210Y-90180210D01*
X188025529Y-90101983D01*
X188134279Y-90043855D01*
X188134281Y-90043854D01*
X188245129Y-90010229D01*
X188252286Y-90008058D01*
X188344253Y-89999000D01*
X189055747Y-89999000D01*
X189147714Y-90008058D01*
X189147714Y-90008058D01*
G37*
G36*
X83610443Y-86055519D02*
X83676627Y-86062037D01*
X83789853Y-86096384D01*
X83846467Y-86113557D01*
X83985087Y-86187652D01*
X84002991Y-86197222D01*
X84038729Y-86226552D01*
X84140186Y-86309814D01*
X84223448Y-86411271D01*
X84252778Y-86447009D01*
X84252779Y-86447011D01*
X84336443Y-86603533D01*
X84336443Y-86603534D01*
X84387963Y-86773373D01*
X84405359Y-86950000D01*
X84387963Y-87126627D01*
X84353616Y-87239853D01*
X84336443Y-87296467D01*
X84262348Y-87435087D01*
X84252778Y-87452991D01*
X84223448Y-87488729D01*
X84140186Y-87590186D01*
X84038729Y-87673448D01*
X84002991Y-87702778D01*
X84002989Y-87702779D01*
X83846467Y-87786443D01*
X83789853Y-87803616D01*
X83676627Y-87837963D01*
X83610442Y-87844482D01*
X83544260Y-87851000D01*
X83455740Y-87851000D01*
X83389558Y-87844482D01*
X83323373Y-87837963D01*
X83210147Y-87803616D01*
X83153533Y-87786443D01*
X82997011Y-87702779D01*
X82997009Y-87702778D01*
X82961271Y-87673448D01*
X82859814Y-87590186D01*
X82776552Y-87488729D01*
X82747222Y-87452991D01*
X82737652Y-87435087D01*
X82663557Y-87296467D01*
X82646384Y-87239853D01*
X82612037Y-87126627D01*
X82594641Y-86950000D01*
X82612037Y-86773373D01*
X82663557Y-86603534D01*
X82663557Y-86603533D01*
X82747221Y-86447011D01*
X82747222Y-86447009D01*
X82776552Y-86411271D01*
X82859814Y-86309814D01*
X82961271Y-86226552D01*
X82997009Y-86197222D01*
X83014913Y-86187652D01*
X83153533Y-86113557D01*
X83210147Y-86096384D01*
X83323373Y-86062037D01*
X83389557Y-86055519D01*
X83455740Y-86049000D01*
X83544260Y-86049000D01*
X83610443Y-86055519D01*
X83610443Y-86055519D01*
G37*
G36*
X83610442Y-83515518D02*
X83676627Y-83522037D01*
X83789853Y-83556384D01*
X83846467Y-83573557D01*
X83985087Y-83647652D01*
X84002991Y-83657222D01*
X84038729Y-83686552D01*
X84140186Y-83769814D01*
X84223448Y-83871271D01*
X84252778Y-83907009D01*
X84252779Y-83907011D01*
X84336443Y-84063533D01*
X84336443Y-84063534D01*
X84387963Y-84233373D01*
X84405359Y-84410000D01*
X84387963Y-84586627D01*
X84353616Y-84699853D01*
X84336443Y-84756467D01*
X84262348Y-84895087D01*
X84252778Y-84912991D01*
X84223448Y-84948729D01*
X84140186Y-85050186D01*
X84038729Y-85133448D01*
X84002991Y-85162778D01*
X84002989Y-85162779D01*
X83846467Y-85246443D01*
X83789853Y-85263616D01*
X83676627Y-85297963D01*
X83610443Y-85304481D01*
X83544260Y-85311000D01*
X83455740Y-85311000D01*
X83389557Y-85304481D01*
X83323373Y-85297963D01*
X83210147Y-85263616D01*
X83153533Y-85246443D01*
X82997011Y-85162779D01*
X82997009Y-85162778D01*
X82961271Y-85133448D01*
X82859814Y-85050186D01*
X82776552Y-84948729D01*
X82747222Y-84912991D01*
X82737652Y-84895087D01*
X82663557Y-84756467D01*
X82646384Y-84699853D01*
X82612037Y-84586627D01*
X82594641Y-84410000D01*
X82612037Y-84233373D01*
X82663557Y-84063534D01*
X82663557Y-84063533D01*
X82747221Y-83907011D01*
X82747222Y-83907009D01*
X82776552Y-83871271D01*
X82859814Y-83769814D01*
X82961271Y-83686552D01*
X82997009Y-83657222D01*
X83014913Y-83647652D01*
X83153533Y-83573557D01*
X83210147Y-83556384D01*
X83323373Y-83522037D01*
X83389558Y-83515518D01*
X83455740Y-83509000D01*
X83544260Y-83509000D01*
X83610442Y-83515518D01*
X83610442Y-83515518D01*
G37*
G36*
X83610442Y-80975518D02*
X83676627Y-80982037D01*
X83789853Y-81016384D01*
X83846467Y-81033557D01*
X83985087Y-81107652D01*
X84002991Y-81117222D01*
X84038729Y-81146552D01*
X84140186Y-81229814D01*
X84223448Y-81331271D01*
X84252778Y-81367009D01*
X84252779Y-81367011D01*
X84336443Y-81523533D01*
X84336443Y-81523534D01*
X84387963Y-81693373D01*
X84405359Y-81870000D01*
X84387963Y-82046627D01*
X84353616Y-82159853D01*
X84336443Y-82216467D01*
X84262348Y-82355087D01*
X84252778Y-82372991D01*
X84223448Y-82408729D01*
X84140186Y-82510186D01*
X84038729Y-82593448D01*
X84002991Y-82622778D01*
X84002989Y-82622779D01*
X83846467Y-82706443D01*
X83789853Y-82723616D01*
X83676627Y-82757963D01*
X83610443Y-82764481D01*
X83544260Y-82771000D01*
X83455740Y-82771000D01*
X83389557Y-82764481D01*
X83323373Y-82757963D01*
X83210147Y-82723616D01*
X83153533Y-82706443D01*
X82997011Y-82622779D01*
X82997009Y-82622778D01*
X82961271Y-82593448D01*
X82859814Y-82510186D01*
X82776552Y-82408729D01*
X82747222Y-82372991D01*
X82737652Y-82355087D01*
X82663557Y-82216467D01*
X82646384Y-82159853D01*
X82612037Y-82046627D01*
X82594641Y-81870000D01*
X82612037Y-81693373D01*
X82663557Y-81523534D01*
X82663557Y-81523533D01*
X82747221Y-81367011D01*
X82747222Y-81367009D01*
X82776552Y-81331271D01*
X82859814Y-81229814D01*
X82961271Y-81146552D01*
X82997009Y-81117222D01*
X83014913Y-81107652D01*
X83153533Y-81033557D01*
X83210147Y-81016384D01*
X83323373Y-80982037D01*
X83389558Y-80975518D01*
X83455740Y-80969000D01*
X83544260Y-80969000D01*
X83610442Y-80975518D01*
X83610442Y-80975518D01*
G37*
G36*
X83610443Y-78435519D02*
X83676627Y-78442037D01*
X83789853Y-78476384D01*
X83846467Y-78493557D01*
X83985087Y-78567652D01*
X84002991Y-78577222D01*
X84038729Y-78606552D01*
X84140186Y-78689814D01*
X84223448Y-78791271D01*
X84252778Y-78827009D01*
X84252779Y-78827011D01*
X84336443Y-78983533D01*
X84336443Y-78983534D01*
X84387963Y-79153373D01*
X84405359Y-79330000D01*
X84387963Y-79506627D01*
X84353616Y-79619853D01*
X84336443Y-79676467D01*
X84262348Y-79815087D01*
X84252778Y-79832991D01*
X84223448Y-79868729D01*
X84140186Y-79970186D01*
X84038729Y-80053448D01*
X84002991Y-80082778D01*
X84002989Y-80082779D01*
X83846467Y-80166443D01*
X83789853Y-80183616D01*
X83676627Y-80217963D01*
X83610442Y-80224482D01*
X83544260Y-80231000D01*
X83455740Y-80231000D01*
X83389558Y-80224482D01*
X83323373Y-80217963D01*
X83210147Y-80183616D01*
X83153533Y-80166443D01*
X82997011Y-80082779D01*
X82997009Y-80082778D01*
X82961271Y-80053448D01*
X82859814Y-79970186D01*
X82776552Y-79868729D01*
X82747222Y-79832991D01*
X82737652Y-79815087D01*
X82663557Y-79676467D01*
X82646384Y-79619853D01*
X82612037Y-79506627D01*
X82594641Y-79330000D01*
X82612037Y-79153373D01*
X82663557Y-78983534D01*
X82663557Y-78983533D01*
X82747221Y-78827011D01*
X82747222Y-78827009D01*
X82776552Y-78791271D01*
X82859814Y-78689814D01*
X82961271Y-78606552D01*
X82997009Y-78577222D01*
X83014913Y-78567652D01*
X83153533Y-78493557D01*
X83210147Y-78476384D01*
X83323373Y-78442037D01*
X83389557Y-78435519D01*
X83455740Y-78429000D01*
X83544260Y-78429000D01*
X83610443Y-78435519D01*
X83610443Y-78435519D01*
G37*
G36*
X83610443Y-75895519D02*
X83676627Y-75902037D01*
X83789853Y-75936384D01*
X83846467Y-75953557D01*
X83985087Y-76027652D01*
X84002991Y-76037222D01*
X84038729Y-76066552D01*
X84140186Y-76149814D01*
X84223448Y-76251271D01*
X84252778Y-76287009D01*
X84252779Y-76287011D01*
X84336443Y-76443533D01*
X84336443Y-76443534D01*
X84387963Y-76613373D01*
X84405359Y-76790000D01*
X84387963Y-76966627D01*
X84353616Y-77079853D01*
X84336443Y-77136467D01*
X84262348Y-77275087D01*
X84252778Y-77292991D01*
X84223448Y-77328729D01*
X84140186Y-77430186D01*
X84038729Y-77513448D01*
X84002991Y-77542778D01*
X84002989Y-77542779D01*
X83846467Y-77626443D01*
X83789853Y-77643616D01*
X83676627Y-77677963D01*
X83610442Y-77684482D01*
X83544260Y-77691000D01*
X83455740Y-77691000D01*
X83389558Y-77684482D01*
X83323373Y-77677963D01*
X83210147Y-77643616D01*
X83153533Y-77626443D01*
X82997011Y-77542779D01*
X82997009Y-77542778D01*
X82961271Y-77513448D01*
X82859814Y-77430186D01*
X82776552Y-77328729D01*
X82747222Y-77292991D01*
X82737652Y-77275087D01*
X82663557Y-77136467D01*
X82646384Y-77079853D01*
X82612037Y-76966627D01*
X82594641Y-76790000D01*
X82612037Y-76613373D01*
X82663557Y-76443534D01*
X82663557Y-76443533D01*
X82747221Y-76287011D01*
X82747222Y-76287009D01*
X82776552Y-76251271D01*
X82859814Y-76149814D01*
X82961271Y-76066552D01*
X82997009Y-76037222D01*
X83014913Y-76027652D01*
X83153533Y-75953557D01*
X83210147Y-75936384D01*
X83323373Y-75902037D01*
X83389557Y-75895519D01*
X83455740Y-75889000D01*
X83544260Y-75889000D01*
X83610443Y-75895519D01*
X83610443Y-75895519D01*
G37*
G36*
X84401000Y-75151000D02*
X82599000Y-75151000D01*
X82599000Y-73349000D01*
X84401000Y-73349000D01*
X84401000Y-75151000D01*
X84401000Y-75151000D01*
G37*
G36*
X103610443Y-72055519D02*
X103676627Y-72062037D01*
X103789853Y-72096384D01*
X103846467Y-72113557D01*
X103985087Y-72187652D01*
X104002991Y-72197222D01*
X104038729Y-72226552D01*
X104140186Y-72309814D01*
X104223448Y-72411271D01*
X104252778Y-72447009D01*
X104252779Y-72447011D01*
X104336443Y-72603533D01*
X104336443Y-72603534D01*
X104387963Y-72773373D01*
X104405359Y-72950000D01*
X104387963Y-73126627D01*
X104353616Y-73239853D01*
X104336443Y-73296467D01*
X104308363Y-73349000D01*
X104252778Y-73452991D01*
X104223448Y-73488729D01*
X104140186Y-73590186D01*
X104038729Y-73673448D01*
X104002991Y-73702778D01*
X104002989Y-73702779D01*
X103846467Y-73786443D01*
X103789853Y-73803616D01*
X103676627Y-73837963D01*
X103610442Y-73844482D01*
X103544260Y-73851000D01*
X103455740Y-73851000D01*
X103389558Y-73844482D01*
X103323373Y-73837963D01*
X103210147Y-73803616D01*
X103153533Y-73786443D01*
X102997011Y-73702779D01*
X102997009Y-73702778D01*
X102961271Y-73673448D01*
X102859814Y-73590186D01*
X102776552Y-73488729D01*
X102747222Y-73452991D01*
X102691637Y-73349000D01*
X102663557Y-73296467D01*
X102646384Y-73239853D01*
X102612037Y-73126627D01*
X102594641Y-72950000D01*
X102612037Y-72773373D01*
X102663557Y-72603534D01*
X102663557Y-72603533D01*
X102747221Y-72447011D01*
X102747222Y-72447009D01*
X102776552Y-72411271D01*
X102859814Y-72309814D01*
X102961271Y-72226552D01*
X102997009Y-72197222D01*
X103014913Y-72187652D01*
X103153533Y-72113557D01*
X103210147Y-72096384D01*
X103323373Y-72062037D01*
X103389557Y-72055519D01*
X103455740Y-72049000D01*
X103544260Y-72049000D01*
X103610443Y-72055519D01*
X103610443Y-72055519D01*
G37*
G36*
X103610442Y-69515518D02*
X103676627Y-69522037D01*
X103789853Y-69556384D01*
X103846467Y-69573557D01*
X103985087Y-69647652D01*
X104002991Y-69657222D01*
X104038729Y-69686552D01*
X104140186Y-69769814D01*
X104223448Y-69871271D01*
X104252778Y-69907009D01*
X104252779Y-69907011D01*
X104336443Y-70063533D01*
X104336443Y-70063534D01*
X104387963Y-70233373D01*
X104405359Y-70410000D01*
X104387963Y-70586627D01*
X104353616Y-70699853D01*
X104336443Y-70756467D01*
X104262348Y-70895087D01*
X104252778Y-70912991D01*
X104223448Y-70948729D01*
X104140186Y-71050186D01*
X104038729Y-71133448D01*
X104002991Y-71162778D01*
X104002989Y-71162779D01*
X103846467Y-71246443D01*
X103789853Y-71263616D01*
X103676627Y-71297963D01*
X103610443Y-71304481D01*
X103544260Y-71311000D01*
X103455740Y-71311000D01*
X103389557Y-71304481D01*
X103323373Y-71297963D01*
X103210147Y-71263616D01*
X103153533Y-71246443D01*
X102997011Y-71162779D01*
X102997009Y-71162778D01*
X102961271Y-71133448D01*
X102859814Y-71050186D01*
X102776552Y-70948729D01*
X102747222Y-70912991D01*
X102737652Y-70895087D01*
X102663557Y-70756467D01*
X102646384Y-70699853D01*
X102612037Y-70586627D01*
X102594641Y-70410000D01*
X102612037Y-70233373D01*
X102663557Y-70063534D01*
X102663557Y-70063533D01*
X102747221Y-69907011D01*
X102747222Y-69907009D01*
X102776552Y-69871271D01*
X102859814Y-69769814D01*
X102961271Y-69686552D01*
X102997009Y-69657222D01*
X103014913Y-69647652D01*
X103153533Y-69573557D01*
X103210147Y-69556384D01*
X103323373Y-69522037D01*
X103389558Y-69515518D01*
X103455740Y-69509000D01*
X103544260Y-69509000D01*
X103610442Y-69515518D01*
X103610442Y-69515518D01*
G37*
G36*
X103610443Y-66975519D02*
X103676627Y-66982037D01*
X103789853Y-67016384D01*
X103846467Y-67033557D01*
X103985087Y-67107652D01*
X104002991Y-67117222D01*
X104038729Y-67146552D01*
X104140186Y-67229814D01*
X104223448Y-67331271D01*
X104252778Y-67367009D01*
X104252779Y-67367011D01*
X104336443Y-67523533D01*
X104336443Y-67523534D01*
X104387963Y-67693373D01*
X104405359Y-67870000D01*
X104387963Y-68046627D01*
X104353616Y-68159853D01*
X104336443Y-68216467D01*
X104262348Y-68355087D01*
X104252778Y-68372991D01*
X104223448Y-68408729D01*
X104140186Y-68510186D01*
X104038729Y-68593448D01*
X104002991Y-68622778D01*
X104002989Y-68622779D01*
X103846467Y-68706443D01*
X103789853Y-68723616D01*
X103676627Y-68757963D01*
X103610442Y-68764482D01*
X103544260Y-68771000D01*
X103455740Y-68771000D01*
X103389558Y-68764482D01*
X103323373Y-68757963D01*
X103210147Y-68723616D01*
X103153533Y-68706443D01*
X102997011Y-68622779D01*
X102997009Y-68622778D01*
X102961271Y-68593448D01*
X102859814Y-68510186D01*
X102776552Y-68408729D01*
X102747222Y-68372991D01*
X102737652Y-68355087D01*
X102663557Y-68216467D01*
X102646384Y-68159853D01*
X102612037Y-68046627D01*
X102594641Y-67870000D01*
X102612037Y-67693373D01*
X102663557Y-67523534D01*
X102663557Y-67523533D01*
X102747221Y-67367011D01*
X102747222Y-67367009D01*
X102776552Y-67331271D01*
X102859814Y-67229814D01*
X102961271Y-67146552D01*
X102997009Y-67117222D01*
X103014913Y-67107652D01*
X103153533Y-67033557D01*
X103210147Y-67016384D01*
X103323373Y-66982037D01*
X103389557Y-66975519D01*
X103455740Y-66969000D01*
X103544260Y-66969000D01*
X103610443Y-66975519D01*
X103610443Y-66975519D01*
G37*
G36*
X103610442Y-64435518D02*
X103676627Y-64442037D01*
X103789853Y-64476384D01*
X103846467Y-64493557D01*
X103985087Y-64567652D01*
X104002991Y-64577222D01*
X104038729Y-64606552D01*
X104140186Y-64689814D01*
X104223448Y-64791271D01*
X104252778Y-64827009D01*
X104252779Y-64827011D01*
X104336443Y-64983533D01*
X104336443Y-64983534D01*
X104387963Y-65153373D01*
X104405359Y-65330000D01*
X104387963Y-65506627D01*
X104353616Y-65619853D01*
X104336443Y-65676467D01*
X104262348Y-65815087D01*
X104252778Y-65832991D01*
X104223448Y-65868729D01*
X104140186Y-65970186D01*
X104038729Y-66053448D01*
X104002991Y-66082778D01*
X104002989Y-66082779D01*
X103846467Y-66166443D01*
X103789853Y-66183616D01*
X103676627Y-66217963D01*
X103610442Y-66224482D01*
X103544260Y-66231000D01*
X103455740Y-66231000D01*
X103389558Y-66224482D01*
X103323373Y-66217963D01*
X103210147Y-66183616D01*
X103153533Y-66166443D01*
X102997011Y-66082779D01*
X102997009Y-66082778D01*
X102961271Y-66053448D01*
X102859814Y-65970186D01*
X102776552Y-65868729D01*
X102747222Y-65832991D01*
X102737652Y-65815087D01*
X102663557Y-65676467D01*
X102646384Y-65619853D01*
X102612037Y-65506627D01*
X102594641Y-65330000D01*
X102612037Y-65153373D01*
X102663557Y-64983534D01*
X102663557Y-64983533D01*
X102747221Y-64827011D01*
X102747222Y-64827009D01*
X102776552Y-64791271D01*
X102859814Y-64689814D01*
X102961271Y-64606552D01*
X102997009Y-64577222D01*
X103014913Y-64567652D01*
X103153533Y-64493557D01*
X103210147Y-64476384D01*
X103323373Y-64442037D01*
X103389558Y-64435518D01*
X103455740Y-64429000D01*
X103544260Y-64429000D01*
X103610442Y-64435518D01*
X103610442Y-64435518D01*
G37*
G36*
X103610442Y-61895518D02*
X103676627Y-61902037D01*
X103789853Y-61936384D01*
X103846467Y-61953557D01*
X103985087Y-62027652D01*
X104002991Y-62037222D01*
X104038729Y-62066552D01*
X104140186Y-62149814D01*
X104223448Y-62251271D01*
X104252778Y-62287009D01*
X104252779Y-62287011D01*
X104336443Y-62443533D01*
X104336443Y-62443534D01*
X104387963Y-62613373D01*
X104405359Y-62790000D01*
X104387963Y-62966627D01*
X104353616Y-63079853D01*
X104336443Y-63136467D01*
X104262348Y-63275087D01*
X104252778Y-63292991D01*
X104223448Y-63328729D01*
X104140186Y-63430186D01*
X104038729Y-63513448D01*
X104002991Y-63542778D01*
X104002989Y-63542779D01*
X103846467Y-63626443D01*
X103789853Y-63643616D01*
X103676627Y-63677963D01*
X103610443Y-63684481D01*
X103544260Y-63691000D01*
X103455740Y-63691000D01*
X103389557Y-63684481D01*
X103323373Y-63677963D01*
X103210147Y-63643616D01*
X103153533Y-63626443D01*
X102997011Y-63542779D01*
X102997009Y-63542778D01*
X102961271Y-63513448D01*
X102859814Y-63430186D01*
X102776552Y-63328729D01*
X102747222Y-63292991D01*
X102737652Y-63275087D01*
X102663557Y-63136467D01*
X102646384Y-63079853D01*
X102612037Y-62966627D01*
X102594641Y-62790000D01*
X102612037Y-62613373D01*
X102663557Y-62443534D01*
X102663557Y-62443533D01*
X102747221Y-62287011D01*
X102747222Y-62287009D01*
X102776552Y-62251271D01*
X102859814Y-62149814D01*
X102961271Y-62066552D01*
X102997009Y-62037222D01*
X103014913Y-62027652D01*
X103153533Y-61953557D01*
X103210147Y-61936384D01*
X103323373Y-61902037D01*
X103389558Y-61895518D01*
X103455740Y-61889000D01*
X103544260Y-61889000D01*
X103610442Y-61895518D01*
X103610442Y-61895518D01*
G37*
G36*
X141151000Y-61151000D02*
X139349000Y-61151000D01*
X139349000Y-59349000D01*
X141151000Y-59349000D01*
X141151000Y-61151000D01*
X141151000Y-61151000D01*
G37*
G36*
X137820442Y-59355518D02*
X137886627Y-59362037D01*
X137999853Y-59396384D01*
X138056467Y-59413557D01*
X138195087Y-59487652D01*
X138212991Y-59497222D01*
X138248729Y-59526552D01*
X138350186Y-59609814D01*
X138433448Y-59711271D01*
X138462778Y-59747009D01*
X138462779Y-59747011D01*
X138546443Y-59903533D01*
X138546443Y-59903534D01*
X138597963Y-60073373D01*
X138615359Y-60250000D01*
X138597963Y-60426627D01*
X138563616Y-60539853D01*
X138546443Y-60596467D01*
X138472348Y-60735087D01*
X138462778Y-60752991D01*
X138433448Y-60788729D01*
X138350186Y-60890186D01*
X138248729Y-60973448D01*
X138212991Y-61002778D01*
X138212989Y-61002779D01*
X138056467Y-61086443D01*
X137999853Y-61103616D01*
X137886627Y-61137963D01*
X137820443Y-61144481D01*
X137754260Y-61151000D01*
X137665740Y-61151000D01*
X137599557Y-61144481D01*
X137533373Y-61137963D01*
X137420147Y-61103616D01*
X137363533Y-61086443D01*
X137207011Y-61002779D01*
X137207009Y-61002778D01*
X137171271Y-60973448D01*
X137069814Y-60890186D01*
X136986552Y-60788729D01*
X136957222Y-60752991D01*
X136947652Y-60735087D01*
X136873557Y-60596467D01*
X136856384Y-60539853D01*
X136822037Y-60426627D01*
X136804641Y-60250000D01*
X136822037Y-60073373D01*
X136873557Y-59903534D01*
X136873557Y-59903533D01*
X136957221Y-59747011D01*
X136957222Y-59747009D01*
X136986552Y-59711271D01*
X137069814Y-59609814D01*
X137171271Y-59526552D01*
X137207009Y-59497222D01*
X137224913Y-59487652D01*
X137363533Y-59413557D01*
X137420147Y-59396384D01*
X137533373Y-59362037D01*
X137599558Y-59355518D01*
X137665740Y-59349000D01*
X137754260Y-59349000D01*
X137820442Y-59355518D01*
X137820442Y-59355518D01*
G37*
G36*
X135280442Y-59355518D02*
X135346627Y-59362037D01*
X135459853Y-59396384D01*
X135516467Y-59413557D01*
X135655087Y-59487652D01*
X135672991Y-59497222D01*
X135708729Y-59526552D01*
X135810186Y-59609814D01*
X135893448Y-59711271D01*
X135922778Y-59747009D01*
X135922779Y-59747011D01*
X136006443Y-59903533D01*
X136006443Y-59903534D01*
X136057963Y-60073373D01*
X136075359Y-60250000D01*
X136057963Y-60426627D01*
X136023616Y-60539853D01*
X136006443Y-60596467D01*
X135932348Y-60735087D01*
X135922778Y-60752991D01*
X135893448Y-60788729D01*
X135810186Y-60890186D01*
X135708729Y-60973448D01*
X135672991Y-61002778D01*
X135672989Y-61002779D01*
X135516467Y-61086443D01*
X135459853Y-61103616D01*
X135346627Y-61137963D01*
X135280443Y-61144481D01*
X135214260Y-61151000D01*
X135125740Y-61151000D01*
X135059557Y-61144481D01*
X134993373Y-61137963D01*
X134880147Y-61103616D01*
X134823533Y-61086443D01*
X134667011Y-61002779D01*
X134667009Y-61002778D01*
X134631271Y-60973448D01*
X134529814Y-60890186D01*
X134446552Y-60788729D01*
X134417222Y-60752991D01*
X134407652Y-60735087D01*
X134333557Y-60596467D01*
X134316384Y-60539853D01*
X134282037Y-60426627D01*
X134264641Y-60250000D01*
X134282037Y-60073373D01*
X134333557Y-59903534D01*
X134333557Y-59903533D01*
X134417221Y-59747011D01*
X134417222Y-59747009D01*
X134446552Y-59711271D01*
X134529814Y-59609814D01*
X134631271Y-59526552D01*
X134667009Y-59497222D01*
X134684913Y-59487652D01*
X134823533Y-59413557D01*
X134880147Y-59396384D01*
X134993373Y-59362037D01*
X135059558Y-59355518D01*
X135125740Y-59349000D01*
X135214260Y-59349000D01*
X135280442Y-59355518D01*
X135280442Y-59355518D01*
G37*
G36*
X132740442Y-59355518D02*
X132806627Y-59362037D01*
X132919853Y-59396384D01*
X132976467Y-59413557D01*
X133115087Y-59487652D01*
X133132991Y-59497222D01*
X133168729Y-59526552D01*
X133270186Y-59609814D01*
X133353448Y-59711271D01*
X133382778Y-59747009D01*
X133382779Y-59747011D01*
X133466443Y-59903533D01*
X133466443Y-59903534D01*
X133517963Y-60073373D01*
X133535359Y-60250000D01*
X133517963Y-60426627D01*
X133483616Y-60539853D01*
X133466443Y-60596467D01*
X133392348Y-60735087D01*
X133382778Y-60752991D01*
X133353448Y-60788729D01*
X133270186Y-60890186D01*
X133168729Y-60973448D01*
X133132991Y-61002778D01*
X133132989Y-61002779D01*
X132976467Y-61086443D01*
X132919853Y-61103616D01*
X132806627Y-61137963D01*
X132740443Y-61144481D01*
X132674260Y-61151000D01*
X132585740Y-61151000D01*
X132519557Y-61144481D01*
X132453373Y-61137963D01*
X132340147Y-61103616D01*
X132283533Y-61086443D01*
X132127011Y-61002779D01*
X132127009Y-61002778D01*
X132091271Y-60973448D01*
X131989814Y-60890186D01*
X131906552Y-60788729D01*
X131877222Y-60752991D01*
X131867652Y-60735087D01*
X131793557Y-60596467D01*
X131776384Y-60539853D01*
X131742037Y-60426627D01*
X131724641Y-60250000D01*
X131742037Y-60073373D01*
X131793557Y-59903534D01*
X131793557Y-59903533D01*
X131877221Y-59747011D01*
X131877222Y-59747009D01*
X131906552Y-59711271D01*
X131989814Y-59609814D01*
X132091271Y-59526552D01*
X132127009Y-59497222D01*
X132144913Y-59487652D01*
X132283533Y-59413557D01*
X132340147Y-59396384D01*
X132453373Y-59362037D01*
X132519558Y-59355518D01*
X132585740Y-59349000D01*
X132674260Y-59349000D01*
X132740442Y-59355518D01*
X132740442Y-59355518D01*
G37*
G36*
X130200442Y-59355518D02*
X130266627Y-59362037D01*
X130379853Y-59396384D01*
X130436467Y-59413557D01*
X130575087Y-59487652D01*
X130592991Y-59497222D01*
X130628729Y-59526552D01*
X130730186Y-59609814D01*
X130813448Y-59711271D01*
X130842778Y-59747009D01*
X130842779Y-59747011D01*
X130926443Y-59903533D01*
X130926443Y-59903534D01*
X130977963Y-60073373D01*
X130995359Y-60250000D01*
X130977963Y-60426627D01*
X130943616Y-60539853D01*
X130926443Y-60596467D01*
X130852348Y-60735087D01*
X130842778Y-60752991D01*
X130813448Y-60788729D01*
X130730186Y-60890186D01*
X130628729Y-60973448D01*
X130592991Y-61002778D01*
X130592989Y-61002779D01*
X130436467Y-61086443D01*
X130379853Y-61103616D01*
X130266627Y-61137963D01*
X130200443Y-61144481D01*
X130134260Y-61151000D01*
X130045740Y-61151000D01*
X129979557Y-61144481D01*
X129913373Y-61137963D01*
X129800147Y-61103616D01*
X129743533Y-61086443D01*
X129587011Y-61002779D01*
X129587009Y-61002778D01*
X129551271Y-60973448D01*
X129449814Y-60890186D01*
X129366552Y-60788729D01*
X129337222Y-60752991D01*
X129327652Y-60735087D01*
X129253557Y-60596467D01*
X129236384Y-60539853D01*
X129202037Y-60426627D01*
X129184641Y-60250000D01*
X129202037Y-60073373D01*
X129253557Y-59903534D01*
X129253557Y-59903533D01*
X129337221Y-59747011D01*
X129337222Y-59747009D01*
X129366552Y-59711271D01*
X129449814Y-59609814D01*
X129551271Y-59526552D01*
X129587009Y-59497222D01*
X129604913Y-59487652D01*
X129743533Y-59413557D01*
X129800147Y-59396384D01*
X129913373Y-59362037D01*
X129979558Y-59355518D01*
X130045740Y-59349000D01*
X130134260Y-59349000D01*
X130200442Y-59355518D01*
X130200442Y-59355518D01*
G37*
G36*
X127660442Y-59355518D02*
X127726627Y-59362037D01*
X127839853Y-59396384D01*
X127896467Y-59413557D01*
X128035087Y-59487652D01*
X128052991Y-59497222D01*
X128088729Y-59526552D01*
X128190186Y-59609814D01*
X128273448Y-59711271D01*
X128302778Y-59747009D01*
X128302779Y-59747011D01*
X128386443Y-59903533D01*
X128386443Y-59903534D01*
X128437963Y-60073373D01*
X128455359Y-60250000D01*
X128437963Y-60426627D01*
X128403616Y-60539853D01*
X128386443Y-60596467D01*
X128312348Y-60735087D01*
X128302778Y-60752991D01*
X128273448Y-60788729D01*
X128190186Y-60890186D01*
X128088729Y-60973448D01*
X128052991Y-61002778D01*
X128052989Y-61002779D01*
X127896467Y-61086443D01*
X127839853Y-61103616D01*
X127726627Y-61137963D01*
X127660443Y-61144481D01*
X127594260Y-61151000D01*
X127505740Y-61151000D01*
X127439557Y-61144481D01*
X127373373Y-61137963D01*
X127260147Y-61103616D01*
X127203533Y-61086443D01*
X127047011Y-61002779D01*
X127047009Y-61002778D01*
X127011271Y-60973448D01*
X126909814Y-60890186D01*
X126826552Y-60788729D01*
X126797222Y-60752991D01*
X126787652Y-60735087D01*
X126713557Y-60596467D01*
X126696384Y-60539853D01*
X126662037Y-60426627D01*
X126644641Y-60250000D01*
X126662037Y-60073373D01*
X126713557Y-59903534D01*
X126713557Y-59903533D01*
X126797221Y-59747011D01*
X126797222Y-59747009D01*
X126826552Y-59711271D01*
X126909814Y-59609814D01*
X127011271Y-59526552D01*
X127047009Y-59497222D01*
X127064913Y-59487652D01*
X127203533Y-59413557D01*
X127260147Y-59396384D01*
X127373373Y-59362037D01*
X127439558Y-59355518D01*
X127505740Y-59349000D01*
X127594260Y-59349000D01*
X127660442Y-59355518D01*
X127660442Y-59355518D01*
G37*
G36*
X104401000Y-61151000D02*
X102599000Y-61151000D01*
X102599000Y-59349000D01*
X104401000Y-59349000D01*
X104401000Y-61151000D01*
X104401000Y-61151000D01*
G37*
G36*
X167650442Y-57605518D02*
X167716627Y-57612037D01*
X167829853Y-57646384D01*
X167886467Y-57663557D01*
X168025087Y-57737652D01*
X168042991Y-57747222D01*
X168078729Y-57776552D01*
X168180186Y-57859814D01*
X168263448Y-57961271D01*
X168292778Y-57997009D01*
X168292779Y-57997011D01*
X168376443Y-58153533D01*
X168376443Y-58153534D01*
X168427963Y-58323373D01*
X168445359Y-58500000D01*
X168427963Y-58676627D01*
X168393616Y-58789853D01*
X168376443Y-58846467D01*
X168302348Y-58985087D01*
X168292778Y-59002991D01*
X168263448Y-59038729D01*
X168180186Y-59140186D01*
X168078729Y-59223448D01*
X168042991Y-59252778D01*
X168042989Y-59252779D01*
X167886467Y-59336443D01*
X167845071Y-59349000D01*
X167716627Y-59387963D01*
X167650443Y-59394481D01*
X167584260Y-59401000D01*
X167495740Y-59401000D01*
X167429557Y-59394481D01*
X167363373Y-59387963D01*
X167234929Y-59349000D01*
X167193533Y-59336443D01*
X167037011Y-59252779D01*
X167037009Y-59252778D01*
X167001271Y-59223448D01*
X166899814Y-59140186D01*
X166816552Y-59038729D01*
X166787222Y-59002991D01*
X166777652Y-58985087D01*
X166703557Y-58846467D01*
X166686384Y-58789853D01*
X166652037Y-58676627D01*
X166634641Y-58500000D01*
X166652037Y-58323373D01*
X166703557Y-58153534D01*
X166703557Y-58153533D01*
X166787221Y-57997011D01*
X166787222Y-57997009D01*
X166816552Y-57961271D01*
X166899814Y-57859814D01*
X167001271Y-57776552D01*
X167037009Y-57747222D01*
X167054913Y-57737652D01*
X167193533Y-57663557D01*
X167250147Y-57646384D01*
X167363373Y-57612037D01*
X167429558Y-57605518D01*
X167495740Y-57599000D01*
X167584260Y-57599000D01*
X167650442Y-57605518D01*
X167650442Y-57605518D01*
G37*
G36*
X177810442Y-57605518D02*
X177876627Y-57612037D01*
X177989853Y-57646384D01*
X178046467Y-57663557D01*
X178185087Y-57737652D01*
X178202991Y-57747222D01*
X178238729Y-57776552D01*
X178340186Y-57859814D01*
X178423448Y-57961271D01*
X178452778Y-57997009D01*
X178452779Y-57997011D01*
X178536443Y-58153533D01*
X178536443Y-58153534D01*
X178587963Y-58323373D01*
X178605359Y-58500000D01*
X178587963Y-58676627D01*
X178553616Y-58789853D01*
X178536443Y-58846467D01*
X178462348Y-58985087D01*
X178452778Y-59002991D01*
X178423448Y-59038729D01*
X178340186Y-59140186D01*
X178238729Y-59223448D01*
X178202991Y-59252778D01*
X178202989Y-59252779D01*
X178046467Y-59336443D01*
X178005071Y-59349000D01*
X177876627Y-59387963D01*
X177810443Y-59394481D01*
X177744260Y-59401000D01*
X177655740Y-59401000D01*
X177589557Y-59394481D01*
X177523373Y-59387963D01*
X177394929Y-59349000D01*
X177353533Y-59336443D01*
X177197011Y-59252779D01*
X177197009Y-59252778D01*
X177161271Y-59223448D01*
X177059814Y-59140186D01*
X176976552Y-59038729D01*
X176947222Y-59002991D01*
X176937652Y-58985087D01*
X176863557Y-58846467D01*
X176846384Y-58789853D01*
X176812037Y-58676627D01*
X176794641Y-58500000D01*
X176812037Y-58323373D01*
X176863557Y-58153534D01*
X176863557Y-58153533D01*
X176947221Y-57997011D01*
X176947222Y-57997009D01*
X176976552Y-57961271D01*
X177059814Y-57859814D01*
X177161271Y-57776552D01*
X177197009Y-57747222D01*
X177214913Y-57737652D01*
X177353533Y-57663557D01*
X177410147Y-57646384D01*
X177523373Y-57612037D01*
X177589558Y-57605518D01*
X177655740Y-57599000D01*
X177744260Y-57599000D01*
X177810442Y-57605518D01*
X177810442Y-57605518D01*
G37*
G36*
X175270442Y-57605518D02*
X175336627Y-57612037D01*
X175449853Y-57646384D01*
X175506467Y-57663557D01*
X175645087Y-57737652D01*
X175662991Y-57747222D01*
X175698729Y-57776552D01*
X175800186Y-57859814D01*
X175883448Y-57961271D01*
X175912778Y-57997009D01*
X175912779Y-57997011D01*
X175996443Y-58153533D01*
X175996443Y-58153534D01*
X176047963Y-58323373D01*
X176065359Y-58500000D01*
X176047963Y-58676627D01*
X176013616Y-58789853D01*
X175996443Y-58846467D01*
X175922348Y-58985087D01*
X175912778Y-59002991D01*
X175883448Y-59038729D01*
X175800186Y-59140186D01*
X175698729Y-59223448D01*
X175662991Y-59252778D01*
X175662989Y-59252779D01*
X175506467Y-59336443D01*
X175465071Y-59349000D01*
X175336627Y-59387963D01*
X175270443Y-59394481D01*
X175204260Y-59401000D01*
X175115740Y-59401000D01*
X175049557Y-59394481D01*
X174983373Y-59387963D01*
X174854929Y-59349000D01*
X174813533Y-59336443D01*
X174657011Y-59252779D01*
X174657009Y-59252778D01*
X174621271Y-59223448D01*
X174519814Y-59140186D01*
X174436552Y-59038729D01*
X174407222Y-59002991D01*
X174397652Y-58985087D01*
X174323557Y-58846467D01*
X174306384Y-58789853D01*
X174272037Y-58676627D01*
X174254641Y-58500000D01*
X174272037Y-58323373D01*
X174323557Y-58153534D01*
X174323557Y-58153533D01*
X174407221Y-57997011D01*
X174407222Y-57997009D01*
X174436552Y-57961271D01*
X174519814Y-57859814D01*
X174621271Y-57776552D01*
X174657009Y-57747222D01*
X174674913Y-57737652D01*
X174813533Y-57663557D01*
X174870147Y-57646384D01*
X174983373Y-57612037D01*
X175049558Y-57605518D01*
X175115740Y-57599000D01*
X175204260Y-57599000D01*
X175270442Y-57605518D01*
X175270442Y-57605518D01*
G37*
G36*
X172730442Y-57605518D02*
X172796627Y-57612037D01*
X172909853Y-57646384D01*
X172966467Y-57663557D01*
X173105087Y-57737652D01*
X173122991Y-57747222D01*
X173158729Y-57776552D01*
X173260186Y-57859814D01*
X173343448Y-57961271D01*
X173372778Y-57997009D01*
X173372779Y-57997011D01*
X173456443Y-58153533D01*
X173456443Y-58153534D01*
X173507963Y-58323373D01*
X173525359Y-58500000D01*
X173507963Y-58676627D01*
X173473616Y-58789853D01*
X173456443Y-58846467D01*
X173382348Y-58985087D01*
X173372778Y-59002991D01*
X173343448Y-59038729D01*
X173260186Y-59140186D01*
X173158729Y-59223448D01*
X173122991Y-59252778D01*
X173122989Y-59252779D01*
X172966467Y-59336443D01*
X172925071Y-59349000D01*
X172796627Y-59387963D01*
X172730443Y-59394481D01*
X172664260Y-59401000D01*
X172575740Y-59401000D01*
X172509557Y-59394481D01*
X172443373Y-59387963D01*
X172314929Y-59349000D01*
X172273533Y-59336443D01*
X172117011Y-59252779D01*
X172117009Y-59252778D01*
X172081271Y-59223448D01*
X171979814Y-59140186D01*
X171896552Y-59038729D01*
X171867222Y-59002991D01*
X171857652Y-58985087D01*
X171783557Y-58846467D01*
X171766384Y-58789853D01*
X171732037Y-58676627D01*
X171714641Y-58500000D01*
X171732037Y-58323373D01*
X171783557Y-58153534D01*
X171783557Y-58153533D01*
X171867221Y-57997011D01*
X171867222Y-57997009D01*
X171896552Y-57961271D01*
X171979814Y-57859814D01*
X172081271Y-57776552D01*
X172117009Y-57747222D01*
X172134913Y-57737652D01*
X172273533Y-57663557D01*
X172330147Y-57646384D01*
X172443373Y-57612037D01*
X172509558Y-57605518D01*
X172575740Y-57599000D01*
X172664260Y-57599000D01*
X172730442Y-57605518D01*
X172730442Y-57605518D01*
G37*
G36*
X170190442Y-57605518D02*
X170256627Y-57612037D01*
X170369853Y-57646384D01*
X170426467Y-57663557D01*
X170565087Y-57737652D01*
X170582991Y-57747222D01*
X170618729Y-57776552D01*
X170720186Y-57859814D01*
X170803448Y-57961271D01*
X170832778Y-57997009D01*
X170832779Y-57997011D01*
X170916443Y-58153533D01*
X170916443Y-58153534D01*
X170967963Y-58323373D01*
X170985359Y-58500000D01*
X170967963Y-58676627D01*
X170933616Y-58789853D01*
X170916443Y-58846467D01*
X170842348Y-58985087D01*
X170832778Y-59002991D01*
X170803448Y-59038729D01*
X170720186Y-59140186D01*
X170618729Y-59223448D01*
X170582991Y-59252778D01*
X170582989Y-59252779D01*
X170426467Y-59336443D01*
X170385071Y-59349000D01*
X170256627Y-59387963D01*
X170190443Y-59394481D01*
X170124260Y-59401000D01*
X170035740Y-59401000D01*
X169969557Y-59394481D01*
X169903373Y-59387963D01*
X169774929Y-59349000D01*
X169733533Y-59336443D01*
X169577011Y-59252779D01*
X169577009Y-59252778D01*
X169541271Y-59223448D01*
X169439814Y-59140186D01*
X169356552Y-59038729D01*
X169327222Y-59002991D01*
X169317652Y-58985087D01*
X169243557Y-58846467D01*
X169226384Y-58789853D01*
X169192037Y-58676627D01*
X169174641Y-58500000D01*
X169192037Y-58323373D01*
X169243557Y-58153534D01*
X169243557Y-58153533D01*
X169327221Y-57997011D01*
X169327222Y-57997009D01*
X169356552Y-57961271D01*
X169439814Y-57859814D01*
X169541271Y-57776552D01*
X169577009Y-57747222D01*
X169594913Y-57737652D01*
X169733533Y-57663557D01*
X169790147Y-57646384D01*
X169903373Y-57612037D01*
X169969558Y-57605518D01*
X170035740Y-57599000D01*
X170124260Y-57599000D01*
X170190442Y-57605518D01*
X170190442Y-57605518D01*
G37*
G36*
X165901000Y-59401000D02*
X164099000Y-59401000D01*
X164099000Y-57599000D01*
X165901000Y-57599000D01*
X165901000Y-59401000D01*
X165901000Y-59401000D01*
G37*
M02*
